<?xml version="1.0"?>
<!DOCTYPE svg PUBLIC "-//W3C//DTD SVG 1.1//EN" "http://www.w3.org/Graphics/SVG/1.1/DTD/svg11.dtd">
<svg width="39.78000000000002mm" height="2.780000000000009mm" viewBox="0 0 39.78000000000002 2.780000000000009" xmlns="http://www.w3.org/2000/svg" version="1.1">
<g id="Body002" transform="translate(0.390000,0.390000) scale(1,-1)">
ceforge.net/DTD/sodipodi-0.dtd"
   xmlns="http://www.w3.org/2000/svg"
   xmlns:svg="http://www.w3.org/2000/svg">
  <defs
     id="defs42" />
  <sodipodi:namedview
     id="namedview40"
     pagecolor="#ffffff"
     bordercolor="#666666"
     borderopacity="1.0"
     inkscape:showpageshadow="2"
     inkscape:pageopacity="0.0"
     inkscape:pagecheckerboard="0"
     inkscape:deskcolor="#d1d1d1"
     inkscape:document-units="mm"
     showgrid="false"
     inkscape:zoom="5.3260279"
     inkscape:cx="75.102874"
     inkscape:cy="78.67026"
     inkscape:window-width="1920"
     inkscape:window-height="1017"
     inkscape:window-x="-8"
     inkscape:window-y="-8"
     inkscape:window-maximized="1"
     inkscape:current-layer="svg38" />
  <g
     id="Body002"
     transform="matrix(0.24301337,0,0,-0.24301337,1.0425273,10.957473)">
    <path
       id="Body002_f0004"
       d="M 36.89,0 H 2.11 A 2.11,2.11 0 0 0 0,2.11 V 38.69 A 2.11,2.11 0 0 0 2.11,40.8 H 36.89 A 2.11,2.11 0 0 0 39,38.69 V 2.11 A 2.11,2.11 0 0 0 36.89,0 Z m -25.7,24.25 a 1,1 0 0 0 -1,1 v 11.6 a 1,1 0 0 0 1,1 h 16.62 a 1,1 0 0 0 1,-1 v -11.6 a 1,1 0 0 0 -1,-1 z m 0,-21 a 1,1 0 0 0 -1,1 v 11.6 a 1,1 0 0 0 1,1 h 16.62 a 1,1 0 0 0 1,-1 V 4.25 a 1,1 0 0 0 -1,-1 z m -9.9,15.96 a 1.19,1.19 0 0 0 0,2.38 h 36.42 a 1.19,1.19 0 0 0 0,-2.38 z"
       stroke="#000000"
       stroke-width="0.35 px"
       style="fill:#fc5405;fill-opacity:1;fill-rule:evenodd;stroke-width:0.35;stroke-linecap:square;stroke-miterlimit:4;stroke-dasharray:none" />
    <path
       id="Body002_f0030"
       d="m 10.19,25.25 a 1,1 0 0 1 1,-1 h 16.62 a 1,1 0 0 1 1,1 v 11.6 a 1,1 0 0 1 -1,1 H 11.19 a 1,1 0 0 1 -1,-1 z"
       stroke="#000000"
       stroke-width="0.35 px"
       style="fill:#fc5405;fill-opacity:1;fill-rule:evenodd;stroke-width:0.35;stroke-linecap:square;stroke-miterlimit:4;stroke-dasharray:none" />
    <path
       id="Body002_f0031"
       d="m 10.19,4.25 a 1,1 0 0 1 1,-1 h 16.62 a 1,1 0 0 1 1,1 v 11.6 a 1,1 0 0 1 -1,1 H 11.19 a 1,1 0 0 1 -1,-1 z"
       stroke="#000000"
       stroke-width="0.35 px"
       style="fill:#fc5405;fill-opacity:1;fill-rule:evenodd;stroke-width:0.35;stroke-linecap:square;stroke-miterlimit:4;stroke-dasharray:none" />
    <path
       id="Body002_f0032"
       d="m 1.29,21.59 a 1.19,1.19 0 0 1 0,-2.38 h 36.42 a 1.19,1.19 0 0 1 0,2.38 z"
       stroke="#000000"
       stroke-width="0.35 px"
       style="fill:#fc5405;fill-opacity:1;fill-rule:evenodd;stroke-width:0.35;stroke-linecap:square;stroke-miterlimit:4;stroke-dasharray:none" />
    <title
       id="title35">b'Icon'</title>
  </g>
</svg>
