<?xml version="1.0" encoding="UTF-8" standalone="no"?>
<svg
   xmlns:dc="http://purl.org/dc/elements/1.1/"
   xmlns:cc="http://creativecommons.org/ns#"
   xmlns:rdf="http://www.w3.org/1999/02/22-rdf-syntax-ns#"
   xmlns:svg="http://www.w3.org/2000/svg"
   xmlns="http://www.w3.org/2000/svg"
   xmlns:sodipodi="http://sodipodi.sourceforge.net/DTD/sodipodi-0.dtd"
   xmlns:inkscape="http://www.inkscape.org/namespaces/inkscape"
   inkscape:version="1.0 (4035a4fb49, 2020-05-01)"
   sodipodi:docname="16 Bit VS 15mm.svg"
   id="svg8"
   version="1.1"
   viewBox="0 0 26.058001 15"
   height="15mm"
   width="26.058001mm">
  <defs
     id="defs2" />
  <sodipodi:namedview
     showguides="false"
     inkscape:window-maximized="1"
     inkscape:window-y="-8"
     inkscape:window-x="-8"
     inkscape:window-height="1017"
     inkscape:window-width="1920"
     showgrid="false"
     inkscape:document-rotation="0"
     inkscape:current-layer="layer7"
     inkscape:document-units="mm"
     inkscape:cy="19.498746"
     inkscape:cx="37.698341"
     inkscape:zoom="5.6568545"
     inkscape:pageshadow="2"
     inkscape:pageopacity="0.0"
     borderopacity="1.0"
     bordercolor="#666666"
     pagecolor="#ffffff"
     id="base" />
  <metadata
     id="metadata5">
    <rdf:RDF>
      <cc:Work
         rdf:about="">
        <dc:format>image/svg+xml</dc:format>
        <dc:type
           rdf:resource="http://purl.org/dc/dcmitype/StillImage" />
        <dc:title></dc:title>
      </cc:Work>
    </rdf:RDF>
  </metadata>
  <g
     id="layer1"
     inkscape:groupmode="layer"
     inkscape:label="Layer 1"
     style="display:none" />
  <g
     style="display:inline"
     inkscape:label="1"
     id="layer3"
     inkscape:groupmode="layer">
    <path
       id="path882"
       d="M 2.354634,8.4766823 H 0 V 7.6918043 6.9069266 H 0.9418536 1.8837072 V 4.5522925 2.1976584 H 0.9418536 0 V 1.8837072 1.569756 H 0.1569756 0.3139512 V 1.4127804 1.2558048 h 0.15697562 0.1569756 V 1.0988292 0.9418536 H 0.784878 0.9418536 V 0.784878 0.62790241 H 1.0988292 1.2558048 V 0.47092682 0.3139512 H 1.4127804 1.569756 V 0.1569756 0 h 0.9418536 0.9418536 v 3.4534632 3.4534634 h 0.6279025 0.6279024 v 0.7848777 0.784878 z m 0,-0.3139508 H 4.3953169 V 7.6918043 7.2208777 H 3.7674146 3.139512 V 3.7674146 0.3139512 H 2.5116096 1.8837072 v 0.15697562 0.1569756 H 1.7267316 1.569756 V 0.784878 0.9418536 H 1.4127804 1.2558048 V 1.0988292 1.2558048 H 1.0988292 0.9418536 V 1.4127804 1.569756 H 0.784878 0.62790241 V 1.7267316 1.8837072 H 1.4127804 2.1976584 V 4.5522925 7.2208777 H 1.2558048 0.3139512 v 0.4709266 0.4709272 z"
       style="fill:#008000;fill-opacity:1;stroke-width:0.0313952" />
    <path
       id="rect913"
       style="fill:#00ff00;fill-opacity:1;stroke:#000000;stroke-width:0;stroke-miterlimit:4;stroke-dasharray:none;stroke-opacity:1"
       d="M 1.8837016,0.31393205 V 0.62786407 H 1.5697703 V 0.94179615 H 1.2558379 V 1.2557282 H 0.94190558 V 1.5698224 H 0.62797327 v 0.313932 H 2.197634 V 7.2209237 H 0.31387983 V 8.1627195 H 4.3953204 V 7.2209237 H 3.1395921 V 1.8837544 1.5698224 1.2557282 0.94179615 0.62786407 0.31393205 Z" />
  </g>
  <g
     style="display:inline"
     inkscape:label="6"
     id="layer4"
     inkscape:groupmode="layer">
    <path
       id="path953"
       d="M 8.0057558,8.4766823 H 6.5929753 V 8.3197073 8.1627315 H 6.4359998 6.2790241 V 8.0057558 7.84878 H 6.1220486 5.9650729 V 7.6918043 7.5348292 H 5.8080973 5.6511217 V 7.3778534 7.2208777 H 5.4941461 5.3371705 V 4.2383414 1.2558048 H 5.4941461 5.6511217 V 1.0988292 0.9418536 H 5.8080973 5.9650729 V 0.784878 0.62790241 H 6.1220486 6.2790241 V 0.47092682 0.3139512 H 6.4359998 6.5929753 V 0.1569756 0 H 7.84878 9.1045853 v 0.1569756 0.1569756 h 0.156975 0.1569757 v 0.15697562 0.1569756 H 9.5755118 9.7324875 V 0.784878 0.9418536 h 0.1569758 0.1569747 v 0.1569756 0.1569756 h 0.156976 0.156976 v 0.784878 0.784878 H 9.5755118 8.7906338 V 2.5116096 2.1976584 H 8.633658 8.4766823 V 2.0406828 1.8837072 H 8.0057558 7.5348292 V 2.0406828 2.1976584 H 7.3778534 7.2208777 V 2.354634 2.5116096 H 7.0639022 6.9069266 V 3.139512 3.7674146 H 7.0639022 7.2208777 V 3.6104389 3.4534632 H 8.1627315 9.1045853 V 3.6104389 3.7674146 H 9.2615603 9.418536 V 3.9243901 4.0813657 H 9.5755118 9.7324875 V 4.2383414 4.395317 h 0.1569758 0.1569747 v 0.1569756 0.1569756 h 0.156976 0.156976 V 6.1220486 7.5348293 H 10.203414 10.046438 V 7.6918043 7.84878 H 9.8894633 9.7324875 V 8.0057558 8.1627315 H 9.5755118 9.418536 v 0.1569758 0.156975 z m 0,-0.3139508 H 9.1045853 V 8.0057558 7.84878 H 9.2615603 9.418536 V 7.6918043 7.5348292 H 9.5755118 9.7324875 V 7.3778534 7.2208777 H 9.8894633 10.046438 V 6.1220486 5.0232193 H 9.8894633 9.7324875 V 4.8662437 4.7092681 H 9.5755118 9.418536 V 4.5522925 4.3953169 H 9.2615602 9.1045853 V 4.2383414 4.0813657 H 8.9476095 8.7906338 V 3.9243901 3.7674146 H 8.1627315 7.5348292 V 3.9243901 4.0813657 H 7.3778534 7.2208777 V 4.2383414 4.3953169 H 6.9069266 6.5929753 V 3.2964876 2.1976584 H 6.7499509 6.9069266 V 2.0406828 1.8837072 H 7.0639022 7.2208777 V 1.7267316 1.569756 h 0.7848781 0.784878 V 1.7267316 1.8837072 H 8.9476095 9.1045853 V 2.1976584 2.5116096 H 9.5755118 10.046438 V 2.0406828 1.569756 H 9.8894633 9.7324875 V 1.4127804 1.2558048 H 9.5755118 9.418536 V 1.0988292 0.9418536 H 9.2615602 9.1045853 V 0.784878 0.62790241 H 8.9476095 8.7906338 V 0.47092682 0.3139512 H 7.84878 6.9069266 v 0.15697562 0.1569756 H 6.7499509 6.5929753 V 0.784878 0.9418536 H 6.4359998 6.2790241 V 1.0988292 1.2558048 H 6.1220486 5.9650729 V 1.4127804 1.569756 H 5.8080973 5.6511217 V 4.2383414 6.9069266 H 5.8080973 5.9650729 V 7.0639022 7.2208777 H 6.1220486 6.2790241 V 7.3778534 7.5348292 H 6.4359998 6.5929753 V 7.6918043 7.84878 H 6.7499509 6.9069265 V 8.0057558 8.1627315 Z M 7.84878,7.5348292 H 7.2208777 V 7.3778534 7.2208777 H 7.0639022 6.9069266 V 7.0639022 6.9069266 H 6.7499509 6.5929753 V 6.1220486 5.3371705 H 6.7499509 6.9069266 V 5.180195 5.0232193 H 7.0639022 7.2208777 V 4.8662437 4.7092681 H 7.84878 8.4766823 V 4.8662437 5.0232193 H 8.633658 8.7906338 V 5.180195 5.3371706 h 0.1569757 0.1569758 v 0.784878 0.784878 H 8.9476095 8.7906338 V 7.0639022 7.2208777 H 8.633658 8.4766823 v 0.1569756 0.1569759 z m 0,-0.3139515 H 8.1627315 V 7.0639022 6.9069266 h 0.1569758 0.156975 V 6.7499509 6.5929753 H 8.633658 8.7906338 V 6.1220486 5.6511217 H 8.633658 8.4766823 V 5.4941461 5.3371705 H 8.3197073 8.1627315 V 5.180195 5.0232193 H 7.84878 7.5348292 V 5.180195 5.3371705 H 7.3778534 7.2208777 V 5.4941461 5.6511217 H 7.0639022 6.9069266 v 0.4709269 0.4709267 h 0.1569756 0.1569755 v 0.1569756 0.1569757 h 0.1569757 0.1569758 v 0.1569756 0.1569755 z"
       style="display:inline;fill:#000080;fill-opacity:1;stroke-width:0.0313952" />
    <path
       d="M 6.9068599,0.31389508 V 0.62782713 H 6.5929276 V 0.94175917 H 6.2789963 V 1.2556912 H 5.9650638 V 1.5697856 H 5.6509695 v 5.3371691 h 0.3140943 v 0.3139322 h 0.3139325 v 0.3139318 h 0.3139313 v 0.313932 h 0.3139323 v 0.313932 H 9.1045462 V 7.8487507 H 9.418479 V 7.5348187 H 9.7324103 V 7.2208869 H 10.046342 V 5.0232001 H 9.7324103 V 4.7092681 H 9.418479 V 4.395336 H 9.1045463 V 4.081404 H 8.7906143 V 3.76731 H 8.4766823 7.5347235 V 4.081404 H 7.2207924 V 4.395336 H 6.9068599 6.5929276 V 2.1976496 H 6.9068599 V 1.8837175 H 7.2207924 V 1.5697856 h 1.5698218 v 0.3139319 h 0.313932 v 0.627864 H 10.046342 V 1.5697856 H 9.7324103 V 1.2556912 H 9.418479 V 0.94175917 H 9.1045463 V 0.62782713 H 8.7906143 V 0.31389508 H 7.2207924 Z M 7.2207924,4.7092681 h 1.2558899 v 0.313932 h 0.313932 v 0.3139321 h 0.313932 V 6.9069547 H 8.7906143 V 7.2208869 H 8.4766823 V 7.5348187 H 7.2207924 V 7.2208869 H 6.9068599 V 6.9069547 H 6.5929276 V 5.3371322 H 6.9068599 V 5.0232001 h 0.3139325 z"
       style="fill:#0000ff;fill-opacity:1;stroke:#000000;stroke-width:0;stroke-miterlimit:4;stroke-dasharray:none;stroke-opacity:1"
       id="rect982" />
  </g>
  <g
     style="display:inline"
     inkscape:label="BIT"
     id="layer5"
     inkscape:groupmode="layer">
    <path
       id="path1083"
       d="M 13.656878,8.4766823 H 12.244097 V 4.2383414 0 h 1.412781 1.41278 v 0.1569756 0.1569756 h 0.156975 0.156975 v 0.15697562 0.1569756 h 0.156977 0.156975 V 0.784878 0.9418536 h 0.156976 0.156975 V 2.354634 3.7674146 H 15.854536 15.69756 V 3.9243901 4.0813657 H 15.540585 15.383608 V 4.2383414 4.395317 h 0.156977 0.156975 v 0.1569756 0.1569756 h 0.156976 0.156975 V 6.1220486 7.5348293 H 15.854536 15.69756 V 7.6918043 7.84878 h -0.156975 -0.156977 v 0.1569758 0.1569757 h -0.156975 -0.156975 v 0.1569758 0.156975 z m 0,-0.3139508 h 1.098829 V 8.0057558 7.84878 h 0.156975 0.156976 V 7.6918043 7.5348292 h 0.156975 0.156975 V 7.3778534 7.2208777 h 0.156977 0.156975 V 6.1220486 5.0232193 H 15.540585 15.383608 V 4.8662437 4.7092681 H 15.226633 15.069658 V 4.5522925 4.3953169 H 14.912682 14.755707 V 4.2383414 4.0813657 H 14.598731 14.441755 V 3.9243901 3.7674146 h 0.470927 0.470926 V 3.6104389 3.4534632 h 0.156977 0.156975 V 2.354634 1.2558048 H 15.540585 15.383608 V 1.0988292 0.9418536 H 15.226633 15.069658 V 0.784878 0.62790241 H 14.912682 14.755707 V 0.47092682 0.3139512 h -1.098829 -1.09883 V 4.2383414 8.1627315 Z M 13.813853,7.2208777 H 13.185951 V 5.9650729 4.7092681 h 0.627902 0.627902 v 0.1569756 0.1569756 h 0.156976 0.156976 v 0.9418536 0.9418537 h -0.156976 -0.156976 v 0.1569756 0.1569755 z m 0,-0.3139512 h 0.313951 V 6.7499509 6.5929753 h 0.156976 0.156975 V 5.9650729 5.3371705 H 14.28478 14.127804 V 5.180195 5.0232193 h -0.313951 -0.313951 v 0.9418536 0.9418537 z m 0,-3.7674145 H 13.185951 V 2.0406828 0.9418536 h 0.627902 0.627902 v 0.1569756 0.1569756 h 0.156976 0.156976 v 0.784878 0.784878 H 14.598731 14.441755 V 2.9825364 3.139512 Z m 0,-0.3139512 h 0.313951 V 2.6685852 2.5116096 h 0.156976 0.156975 V 2.0406828 1.569756 H 14.28478 14.127804 V 1.4127804 1.2558048 h -0.313951 -0.313951 v 0.784878 0.784878 z m 5.023219,5.6511215 H 16.639414 V 7.6918043 6.9069266 h 0.627902 0.627903 V 4.2383414 1.569756 H 17.267316 16.639414 V 0.784878 0 h 2.197658 2.197659 v 0.784878 0.784878 h -0.627903 -0.627902 v 2.6685854 2.6685852 h 0.627902 0.627903 v 0.7848777 0.784878 z m 0,-0.3139508 h 1.883707 V 7.6918043 7.2208777 H 20.092876 19.464975 V 4.2383414 1.2558048 h 0.627901 0.627903 V 0.784878 0.3139512 H 18.837072 16.953364 V 0.784878 1.2558048 h 0.627903 0.627903 v 2.9825366 2.9825363 h -0.627902 -0.627904 v 0.4709266 0.4709272 z m 5.023219,0.3139508 H 22.918438 V 5.0232193 1.569756 H 22.290535 21.662634 V 0.784878 0 h 2.197657 2.197659 v 0.784878 0.784878 h -0.627903 -0.627901 v 3.4534633 3.453463 z m 0,-0.3139508 h 0.627903 V 4.7092681 1.2558048 h 0.627902 0.627903 V 0.784878 0.3139512 H 23.860291 21.976584 V 0.784878 1.2558048 h 0.627903 0.627903 v 3.4534633 3.4534634 z"
       style="display:inline;fill:#800080;fill-opacity:1;stroke-width:0.0313952" />
    <path
       d="M 12.55804,0.31393205 V 7.2209237 8.1627195 h 2.197686 v -0.313932 h 0.313932 v -0.313932 h 0.313933 V 7.2209237 h 0.313931 V 5.0232372 H 15.383591 V 4.7093052 H 15.069658 V 4.395373 H 14.755727 V 4.0814411 H 14.441795 V 3.7673466 h 0.941796 v -0.313932 h 0.313931 V 1.2557282 H 15.383591 V 0.94179615 H 15.069658 V 0.62786407 H 14.755727 V 0.31393205 h -1.569822 z m 4.395372,0 V 1.2557282 h 1.25573 v 5.9651955 h -1.25573 V 8.1627195 H 20.72076 V 7.2209237 H 19.465032 V 1.2557282 H 20.72076 V 0.31393205 Z m 5.023238,0 V 1.2557282 h 1.255728 v 6.9069913 h 1.255891 V 1.2557282 h 1.255728 V 0.31393205 Z m -8.790745,0.6278641 h 1.25589 V 1.2557282 h 0.313932 v 1.5698224 h -0.313932 v 0.313932 h -1.25589 z m 0,3.76750905 h 1.25589 v 0.313932 h 0.313932 v 1.8837543 h -0.313932 v 0.3139322 h -1.25589 z"
       style="fill:#ff00ff;fill-opacity:1;stroke:#000000;stroke-width:0;stroke-miterlimit:4;stroke-dasharray:none;stroke-opacity:1"
       id="rect1087" />
  </g>
  <g
     style="display:inline"
     inkscape:label="VIRTUAL"
     id="layer6"
     inkscape:groupmode="layer">
    <path
       id="path847"
       d="m 10.517366,14.686049 h 0.156975 v -0.156975 -0.156976 h 0.156976 0.156975 v -0.313952 -0.31395 h 0.156976 0.156975 v -0.470928 -0.470926 h 0.156976 0.156976 V 12.48839 12.17444 h 0.156975 0.156976 v -0.627903 -0.627903 h 0.156976 0.156975 V 10.290732 9.6628298 h -0.313951 -0.313951 v 0.4709262 0.470927 h -0.156976 -0.156976 v 0.627903 0.627902 h -0.156975 -0.156976 v 0.470927 0.470927 h -0.156975 -0.156976 v 0.470926 0.470928 H 10.517366 10.36039 V 13.273268 12.802342 H 10.203414 10.046438 V 12.331415 11.860488 H 9.8894632 9.7324875 V 11.232586 10.604683 H 9.5755118 9.418536 V 10.133756 9.6628297 H 9.1045853 8.7906338 v 0.6279023 0.627902 h 0.1569757 0.1569758 v 0.627903 0.627903 H 9.2615602 9.418536 v 0.31395 0.313952 h 0.1569758 0.1569757 v 0.470926 0.470928 h 0.1569757 0.1569748 v 0.31395 0.313952 h 0.156976 0.156976 v 0.156975 0.156975 z"
       style="display:inline;fill:#400080;fill-opacity:1;stroke-width:0.0313952" />
    <path
       id="path1159"
       d="M 10.517366,15 H 10.046438 V 14.843024 14.686049 H 9.8894632 9.7324875 V 14.372098 14.058146 H 9.5755118 9.418536 V 13.58722 13.116293 H 9.2615602 9.1045853 V 12.802342 12.48839 H 8.9476095 8.7906338 V 11.860488 11.232586 H 8.633658 8.4766823 V 10.290732 9.3488782 h 0.627903 0.6279022 v 0.4709266 0.4709272 h 0.1569757 0.1569748 v 0.627902 0.627903 h 0.156976 0.156976 v 0.470927 0.470926 h 0.156976 0.156975 v -0.470926 -0.470927 h 0.156976 0.156975 v -0.627903 -0.627902 h 0.156976 0.156975 V 9.8198048 9.3488783 h 0.627903 0.627902 v 0.9418537 0.941854 h -0.156975 -0.156976 v 0.627902 0.627902 h -0.156975 -0.156976 v 0.313952 0.313951 H 11.77317 11.616195 v 0.470927 0.470926 h -0.156976 -0.156975 v 0.313952 0.31395 H 11.145268 10.988292 V 14.843024 15 Z"
       style="display:inline;fill:#400080;fill-opacity:1;stroke-width:0.0313952" />
    <path
       id="rect1163"
       d="m 8.7905955,9.6628845 v 0.9417965 0.313931 h 0.313932 v 1.25589 h 0.313932 v 0.627865 h 0.3140948 v 0.941796 h 0.3139317 v 0.627864 h 0.313932 v 0.314094 h 0.313932 v -0.314094 h 0.313932 v -0.627864 h 0.313932 v -0.941796 h 0.313932 v -0.627865 h 0.313932 v -1.25589 h 0.314094 V 9.6628845 H 11.616146 V 10.60468 h -0.313932 v 1.255728 h -0.313932 v 0.941959 H 10.67435 v 0.941796 H 10.360418 V 12.802367 H 10.046486 V 11.860408 H 9.7325543 V 10.918612 10.60468 H 9.4184595 V 9.6628845 Z"
       style="fill:#a000ff;fill-opacity:1;stroke:#000000;stroke-width:0;stroke-miterlimit:4;stroke-dasharray:none;stroke-opacity:1" />
  </g>
  <g
     style="display:inline"
     inkscape:label="STUDIOS"
     id="layer7"
     inkscape:groupmode="layer">
    <path
       id="path919"
       d="m 15.069658,14.686049 h 1.41278 v -0.156976 -0.156976 h 0.156976 0.156975 v -0.156975 -0.156976 h 0.156975 0.156977 v -0.156975 -0.156976 h 0.156975 0.156976 V 13.430244 13.116293 H 17.267316 17.110341 V 12.959317 12.802341 H 16.953364 16.796389 V 12.645366 12.48839 H 16.639414 16.482438 V 12.174439 11.860487 H 15.69756 14.912682 V 11.703512 11.546537 H 14.755707 14.598731 V 11.389561 11.232585 H 14.441756 14.28478 v -0.313951 -0.313951 h 0.156976 0.156975 v -0.156976 -0.156976 h 1.412781 1.41278 V 9.9767805 9.662829 h -1.41278 -1.412781 V 9.8198048 9.9767805 H 14.441756 14.28478 v 0.1569755 0.156975 h -0.156976 -0.156975 v 0.156976 0.156976 h -0.156976 -0.156975 v 0.313951 0.313951 h 0.156975 0.156976 v 0.156976 0.156976 h 0.156975 0.156976 v 0.156975 0.156975 h 0.156975 0.156976 v 0.156976 0.156976 h 0.156976 0.156975 v 0.156976 0.156975 h 0.627903 0.627901 v 0.156976 0.156975 h 0.156977 0.156975 v 0.156976 0.156976 h 0.156976 0.156975 v 0.313951 0.313951 h -0.156975 -0.156976 v 0.156975 0.156976 h -1.41278 -1.41278 v 0.313951 0.313951 z"
       style="display:inline;fill:#408000;fill-opacity:1;stroke-width:0.0313952" />
    <path
       id="path1332"
       d="m 14.912682,15 h -1.726731 v -0.627903 -0.627902 h 1.41278 1.412781 V 13.430244 13.116293 H 15.854537 15.69756 V 12.959317 12.802341 H 15.069659 14.441756 V 12.645366 12.48839 H 14.28478 14.127804 v -0.156975 -0.156976 h -0.156975 -0.156976 v -0.156976 -0.156976 h -0.156975 -0.156976 v -0.156975 -0.156975 h -0.156976 -0.156975 v -0.627903 -0.627903 h 0.156975 0.156976 V 10.133756 9.9767805 h 0.156976 0.156975 V 9.8198048 9.662829 h 0.156976 0.156975 V 9.5058533 9.3488782 h 1.726732 1.726731 v 0.6279023 0.6279025 h -1.412781 -1.412779 v 0.313951 0.313951 h 0.156975 0.156976 v 0.156976 0.156976 h 0.627902 0.627903 v 0.156975 0.156975 h 0.156975 0.156976 v 0.156976 0.156976 h 0.156975 0.156975 v 0.156976 0.156975 h 0.156977 0.156975 v 0.156976 0.156975 h 0.156976 0.156975 v 0.627903 0.627902 h -0.156975 -0.156976 v 0.156976 0.156975 h -0.156975 -0.156977 v 0.156976 0.156975 H 16.796389 16.639414 V 14.843024 15 Z"
       style="display:inline;fill:#400080;fill-opacity:1;stroke-width:0.0313952" />
    <path
       id="rect1335"
       d="m 14.441861,9.6628845 v 0.3139313 h -0.313933 v 0.3139332 h -0.314094 v 0.313932 h -0.313932 v 0.627863 h 0.313932 v 0.313933 h 0.314094 v 0.313931 h 0.313933 v 0.314095 h 0.313931 v 0.313932 h 1.255729 v 0.313932 h 0.313932 v 0.313932 h 0.313932 v 0.627864 h -0.313933 v 0.313932 h -2.82555 v 0.628026 h 2.82555 v -0.314094 h 0.313933 v -0.313933 h 0.314094 v -0.313931 h 0.313932 v -0.627865 h -0.313932 v -0.313931 h -0.314094 v -0.313932 h -0.313933 v -0.628027 h -1.56966 V 11.546476 H 14.44186 V 11.232544 H 14.127928 V 10.60468 h 0.313932 v -0.313932 h 2.82555 V 9.6628845 Z"
       style="fill:#a000ff;fill-opacity:1;stroke:#000000;stroke-width:0;stroke-miterlimit:4;stroke-dasharray:none;stroke-opacity:1" />
  </g>
</svg>
