<?xml version="1.0" encoding="UTF-8" standalone="no"?>
<svg
   xmlns:dc="http://purl.org/dc/elements/1.1/"
   xmlns:cc="http://creativecommons.org/ns#"
   xmlns:rdf="http://www.w3.org/1999/02/22-rdf-syntax-ns#"
   xmlns:svg="http://www.w3.org/2000/svg"
   xmlns="http://www.w3.org/2000/svg"
   xmlns:sodipodi="http://sodipodi.sourceforge.net/DTD/sodipodi-0.dtd"
   xmlns:inkscape="http://www.inkscape.org/namespaces/inkscape"
   width="17.372mm"
   height="10mm"
   viewBox="0 0 17.372 10"
   version="1.1"
   id="svg8"
   sodipodi:docname="16 Bit VS.svg"
   inkscape:version="1.0 (4035a4fb49, 2020-05-01)">
  <defs
     id="defs2" />
  <sodipodi:namedview
     id="base"
     pagecolor="#ffffff"
     bordercolor="#666666"
     borderopacity="1.0"
     inkscape:pageopacity="0.0"
     inkscape:pageshadow="2"
     inkscape:zoom="5.6568545"
     inkscape:cx="37.698341"
     inkscape:cy="19.498746"
     inkscape:document-units="mm"
     inkscape:current-layer="layer7"
     inkscape:document-rotation="0"
     showgrid="false"
     inkscape:window-width="1920"
     inkscape:window-height="1017"
     inkscape:window-x="-8"
     inkscape:window-y="-8"
     inkscape:window-maximized="1"
     showguides="false" />
  <metadata
     id="metadata5">
    <rdf:RDF>
      <cc:Work
         rdf:about="">
        <dc:format>image/svg+xml</dc:format>
        <dc:type
           rdf:resource="http://purl.org/dc/dcmitype/StillImage" />
        <dc:title></dc:title>
      </cc:Work>
    </rdf:RDF>
  </metadata>
  <g
     style="display:none"
     inkscape:label="Layer 1"
     inkscape:groupmode="layer"
     id="layer1" />
  <g
     inkscape:groupmode="layer"
     id="layer3"
     inkscape:label="1"
     style="display:inline">
    <path
       style="fill:#008000;fill-opacity:1;stroke-width:0.0209301"
       d="M 1.569756,5.6511217 H 0 V 5.1278697 4.6046177 H 0.62790241 1.2558048 V 3.0348617 1.4651056 H 0.62790241 0 V 1.2558048 1.046504 H 0.1046504 0.2093008 V 0.94185362 0.83720322 h 0.10465041 0.1046504 V 0.73255282 0.62790241 h 0.1046504 0.1046504 v -0.1046504 -0.1046504 h 0.10465041 0.1046504 V 0.31395121 0.2093008 H 0.94185362 1.046504 V 0.1046504 0 h 0.6279024 0.6279024 v 2.3023088 2.3023089 h 0.4186017 0.4186016 v 0.523252 0.523252 z m 0,-0.2093008 H 2.9302113 V 5.1278697 4.8139185 H 2.5116097 2.093008 V 2.5116097 0.2093008 H 1.6744064 1.2558048 v 0.10465041 0.1046504 H 1.1511544 1.046504 v 0.1046504 0.1046504 H 0.94185362 0.83720322 v 0.10465041 0.1046504 H 0.73255282 0.62790241 V 0.94185362 1.046504 H 0.52325201 0.41860161 V 1.1511544 1.2558048 H 0.94185362 1.4651056 V 3.0348617 4.8139185 H 0.83720322 0.2093008 v 0.3139512 0.3139512 z"
       id="path882" />
    <path
       d="M 1.2558011,0.20928803 V 0.41857605 H 1.0465135 V 0.62786411 H 0.83722526 V 0.83715213 H 0.62793705 V 1.0465483 h -0.2092882 v 0.209288 H 1.4650893 V 4.8139491 H 0.20925322 V 5.4418132 H 2.9302136 V 4.8139491 H 2.0930614 V 1.2558363 1.0465483 0.83715213 0.62786411 0.41857605 0.20928803 Z"
       style="fill:#00ff00;fill-opacity:1;stroke:#000000;stroke-width:0;stroke-miterlimit:4;stroke-dasharray:none;stroke-opacity:1"
       id="rect913" />
  </g>
  <g
     inkscape:groupmode="layer"
     id="layer4"
     inkscape:label="6"
     style="display:inline">
    <path
       style="display:inline;fill:#000080;fill-opacity:1;stroke-width:0.0209301"
       d="M 5.3371705,5.6511217 H 4.3953169 V 5.5464713 5.4418209 H 4.2906665 4.1860161 V 5.3371705 5.2325201 H 4.0813657 3.9767153 V 5.1278697 5.0232193 H 3.8720649 3.7674145 V 4.9185689 4.8139185 H 3.6627641 3.5581137 V 2.8255609 0.83720322 H 3.6627641 3.7674145 V 0.73255282 0.62790241 H 3.8720649 3.9767153 V 0.52325201 0.41860161 H 4.0813657 4.1860161 V 0.31395121 0.2093008 H 4.2906665 4.3953169 V 0.1046504 0 h 0.8372032 0.8372032 v 0.1046504 0.1046504 h 0.1046504 0.1046504 v 0.10465041 0.1046504 h 0.1046504 0.1046504 v 0.1046504 0.1046504 h 0.1046504 0.1046504 v 0.10465041 0.1046504 H 6.8022761 6.9069265 V 1.3604552 1.8837072 H 6.3836745 5.8604225 V 1.6744064 1.4651056 H 5.7557721 5.6511217 V 1.3604552 1.2558048 H 5.3371705 5.0232193 V 1.3604552 1.4651056 H 4.9185689 4.8139185 V 1.569756 1.6744064 H 4.7092681 4.6046177 V 2.093008 2.5116097 H 4.7092681 4.8139185 V 2.4069593 2.3023088 H 5.4418209 6.0697233 V 2.4069593 2.5116097 H 6.1743737 6.2790241 V 2.6162601 2.7209105 H 6.3836745 6.4883249 V 2.8255609 2.9302113 H 6.5929753 6.6976257 V 3.0348617 3.1395121 H 6.8022761 6.9069265 V 4.0813657 5.0232193 H 6.8022761 6.6976257 V 5.1278697 5.2325201 H 6.5929753 6.4883249 V 5.3371705 5.4418209 H 6.3836745 6.2790241 v 0.1046504 0.1046504 z m 0,-0.2093008 H 6.0697233 V 5.3371705 5.2325201 H 6.1743737 6.2790241 V 5.1278697 5.0232193 H 6.3836745 6.4883249 V 4.9185689 4.8139185 H 6.5929753 6.6976257 V 4.0813657 3.3488129 H 6.5929753 6.4883249 V 3.2441625 3.1395121 H 6.3836745 6.2790241 V 3.0348617 2.9302113 H 6.1743737 6.0697233 V 2.8255609 2.7209105 H 5.9650729 5.8604225 V 2.6162601 2.5116097 H 5.4418209 5.0232193 V 2.6162601 2.7209105 H 4.9185689 4.8139185 V 2.8255609 2.9302113 H 4.6046177 4.3953169 V 2.1976584 1.4651056 H 4.4999673 4.6046177 V 1.3604552 1.2558048 H 4.7092681 4.8139185 V 1.1511544 1.046504 h 0.523252 0.523252 V 1.1511544 1.2558048 H 5.9650729 6.0697233 V 1.4651056 1.6744064 H 6.3836745 6.6976257 V 1.3604552 1.046504 H 6.5929753 6.4883249 V 0.94185362 0.83720322 H 6.3836745 6.2790241 V 0.73255282 0.62790241 H 6.1743737 6.0697233 V 0.52325201 0.41860161 H 5.9650729 5.8604225 V 0.31395121 0.2093008 H 5.2325201 4.6046177 v 0.10465041 0.1046504 H 4.4999673 4.3953169 v 0.1046504 0.1046504 H 4.2906665 4.1860161 v 0.10465041 0.1046504 H 4.0813657 3.9767153 V 0.94185362 1.046504 H 3.8720649 3.7674145 V 2.8255609 4.6046177 H 3.8720649 3.9767153 V 4.7092681 4.8139185 H 4.0813657 4.1860161 V 4.9185689 5.0232193 H 4.2906665 4.3953169 V 5.1278697 5.2325201 H 4.4999673 4.6046177 V 5.3371705 5.4418209 Z M 5.2325201,5.0232193 H 4.8139185 V 4.9185689 4.8139185 H 4.7092681 4.6046177 V 4.7092681 4.6046177 H 4.4999673 4.3953169 V 4.0813657 3.5581137 H 4.4999673 4.6046177 V 3.4534633 3.3488129 H 4.7092681 4.8139185 V 3.2441625 3.1395121 h 0.4186016 0.4186016 v 0.1046504 0.1046504 h 0.1046504 0.1046504 v 0.1046504 0.1046504 h 0.1046504 0.1046504 v 0.523252 0.523252 H 5.9650729 5.8604225 V 4.7092681 4.8139185 H 5.7557721 5.6511217 v 0.1046504 0.1046504 z m 0,-0.2093008 H 5.4418209 V 4.7092681 4.6046177 H 5.5464713 5.6511217 V 4.4999673 4.3953169 H 5.7557721 5.8604225 V 4.0813657 3.7674145 H 5.7557721 5.6511217 V 3.6627641 3.5581137 H 5.5464713 5.4418209 V 3.4534633 3.3488129 H 5.2325201 5.0232193 V 3.4534633 3.5581137 H 4.9185689 4.8139185 V 3.6627641 3.7674145 H 4.7092681 4.6046177 v 0.3139512 0.3139512 h 0.1046504 0.1046504 v 0.1046504 0.1046504 h 0.1046504 0.1046504 v 0.1046504 0.1046504 z"
       id="path953" />
    <path
       id="rect982"
       style="fill:#0000ff;fill-opacity:1;stroke:#000000;stroke-width:0;stroke-miterlimit:4;stroke-dasharray:none;stroke-opacity:1"
       d="M 4.6045733,0.20926339 V 0.41855142 H 4.3952851 V 0.62783946 H 4.1859975 V 0.83712749 H 3.9767092 V 1.0465237 H 3.767313 v 3.5581128 h 0.2093962 v 0.2092881 h 0.2092883 v 0.2092878 h 0.2092876 v 0.209288 H 4.6045733 V 5.4417885 H 6.0696976 V 5.2325004 H 6.2789858 V 5.0232124 H 6.4882735 V 4.8139246 H 6.6975617 V 3.3488001 H 6.4882735 V 3.1395121 H 6.2789858 V 2.930224 H 6.0696976 V 2.720936 H 5.8604093 V 2.51154 H 5.6511217 5.0231492 V 2.720936 H 4.8138616 V 2.930224 H 4.6045733 4.3952851 V 1.4650997 h 0.2092882 v -0.209288 h 0.2092883 v -0.209288 h 1.0465477 v 0.209288 h 0.2092883 v 0.418576 H 6.6975617 V 1.0465237 H 6.4882735 V 0.83712749 H 6.2789858 V 0.62783946 H 6.0696976 V 0.41855142 H 5.8604093 V 0.20926339 H 4.8138616 Z M 4.8138616,3.1395121 h 0.8372601 v 0.209288 h 0.2092876 v 0.209288 H 6.0696976 V 4.6046365 H 5.8604093 V 4.8139246 H 5.6511217 V 5.0232124 H 4.8138616 V 4.8139246 H 4.6045733 V 4.6046365 H 4.3952851 V 3.5580881 h 0.2092882 v -0.209288 h 0.2092883 z" />
  </g>
  <g
     inkscape:groupmode="layer"
     id="layer5"
     inkscape:label="BIT"
     style="display:inline">
    <path
       style="display:inline;fill:#800080;fill-opacity:1;stroke-width:0.0209301"
       d="M 9.104585,5.6511217 H 8.1627314 V 2.8255609 0 h 0.9418536 0.941854 v 0.1046504 0.1046504 h 0.10465 0.10465 v 0.10465041 0.1046504 h 0.104651 0.10465 v 0.1046504 0.1046504 h 0.104651 0.10465 V 1.569756 2.5116097 h -0.10465 -0.104651 v 0.1046504 0.1046504 h -0.10465 -0.104651 v 0.1046504 0.1046504 h 0.104651 0.10465 v 0.1046504 0.1046504 h 0.104651 0.10465 v 0.9418536 0.9418536 h -0.10465 -0.104651 v 0.1046504 0.1046504 h -0.10465 -0.104651 v 0.1046504 0.1046504 h -0.10465 -0.10465 v 0.1046504 0.1046504 z m 0,-0.2093008 H 9.8371378 V 5.3371705 5.2325201 H 9.9417882 10.046439 V 5.1278697 5.0232193 h 0.10465 0.10465 V 4.9185689 4.8139185 h 0.104651 0.10465 V 4.0813657 3.3488129 H 10.36039 10.255739 V 3.2441625 3.1395121 h -0.10465 -0.10465 V 3.0348617 2.9302113 H 9.9417882 9.8371378 V 2.8255609 2.7209105 H 9.7324874 9.627837 V 2.6162601 2.5116097 H 9.9417882 10.255739 V 2.4069593 2.3023088 h 0.104651 0.10465 V 1.569756 0.83720322 H 10.36039 10.255739 V 0.73255282 0.62790241 h -0.10465 -0.10465 V 0.52325201 0.41860161 H 9.9417882 9.8371378 V 0.31395121 0.2093008 H 9.104585 8.3720322 v 2.6162601 2.61626 z M 9.2092354,4.8139185 H 8.7906338 V 3.9767153 3.1395121 H 9.2092354 9.627837 V 3.2441625 3.3488129 H 9.7324874 9.8371378 V 3.9767153 4.6046177 H 9.7324874 9.627837 v 0.1046504 0.1046504 z m 0,-0.2093008 H 9.4185362 V 4.4999673 4.3953169 H 9.5231866 9.627837 V 3.9767153 3.5581137 H 9.5231866 9.4185362 V 3.4534633 3.3488129 H 9.2092354 8.9999346 v 0.6279024 0.6279024 z m 0,-2.5116097 H 8.7906338 V 1.3604552 0.62790241 H 9.2092354 9.627837 v 0.10465041 0.1046504 H 9.7324874 9.8371378 V 1.3604552 1.8837072 H 9.7324874 9.627837 V 1.9883576 2.093008 Z m 0,-0.2093008 H 9.4185362 V 1.7790568 1.6744064 H 9.5231866 9.627837 V 1.3604552 1.046504 H 9.5231866 9.4185362 V 0.94185362 0.83720322 H 9.2092354 8.9999346 v 0.52325198 0.523252 z m 3.3488126,3.7674145 h -1.465105 v -0.523252 -0.523252 h 0.418601 0.418602 V 2.8255609 1.046504 H 11.511544 11.092943 V 0.52325201 0 h 1.465105 1.465106 V 0.52325201 1.046504 h -0.418602 -0.418601 v 1.7790569 1.7790568 h 0.418601 0.418602 v 0.523252 0.523252 z m 0,-0.2093008 h 1.255805 V 5.1278697 4.8139185 H 13.395251 12.97665 V 2.8255609 0.83720322 h 0.418601 0.418602 V 0.52325201 0.2093008 h -1.255805 -1.255805 v 0.31395121 0.31395121 h 0.418602 0.418602 V 2.8255609 4.8139185 h -0.418602 -0.418602 v 0.3139512 0.3139512 z m 3.348813,0.2093008 H 15.278959 V 3.3488129 1.046504 H 14.860357 14.441756 V 0.52325201 0 h 1.465105 1.465106 V 0.52325201 1.046504 h -0.418602 -0.418601 v 2.3023089 2.3023088 z m 0,-0.2093008 h 0.418602 V 3.1395121 0.83720322 h 0.418601 0.418602 V 0.52325201 0.2093008 h -1.255805 -1.255805 v 0.31395121 0.31395121 h 0.418602 0.418602 V 3.1395121 5.4418209 Z"
       id="path1083" />
    <path
       id="rect1087"
       style="fill:#ff00ff;fill-opacity:1;stroke:#000000;stroke-width:0;stroke-miterlimit:4;stroke-dasharray:none;stroke-opacity:1"
       d="M 8.3720269,0.20928803 V 4.8139491 5.4418132 H 9.8371512 V 5.2325251 h 0.2092878 v -0.209288 h 0.209288 v -0.209288 h 0.209288 V 3.3488248 H 10.255727 V 3.1395368 H 10.046439 V 2.9302487 H 9.8371512 V 2.7209607 H 9.627863 V 2.5115644 h 0.627864 v -0.209288 h 0.209288 V 0.83715213 H 10.255727 V 0.62786411 H 10.046439 V 0.41857605 H 9.8371512 V 0.20928803 H 8.7906028 Z m 2.9302481,0 v 0.6278641 h 0.837153 V 4.8139491 H 11.302275 V 5.4418132 H 13.81384 V 4.8139491 H 12.976688 V 0.83715213 h 0.837152 v -0.6278641 z m 3.348825,0 v 0.6278641 h 0.837152 V 5.4418132 h 0.837261 V 0.83715213 h 0.837152 V 0.20928803 Z M 8.7906028,0.62786411 H 9.627863 V 0.83715213 H 9.8371512 V 1.8837004 H 9.627863 v 0.209288 H 8.7906028 Z m 0,2.51167269 H 9.627863 v 0.209288 H 9.8371512 V 4.604661 H 9.627863 V 4.8139491 H 8.7906028 Z" />
  </g>
  <g
     inkscape:groupmode="layer"
     id="layer6"
     inkscape:label="VIRTUAL"
     style="display:inline">
    <path
       style="display:inline;fill:#400080;fill-opacity:1;stroke-width:0.0209301"
       d="M 7.011577,9.7906992 H 7.1162274 V 9.6860488 9.5813984 H 7.2208778 7.3255282 V 9.3720976 9.1627968 H 7.4301786 7.534829 V 8.8488456 8.5348944 H 7.6394794 7.7441298 V 8.3255936 8.1162928 H 7.8487802 7.9534306 V 7.6976912 7.2790895 H 8.058081 8.1627314 V 6.8604879 6.4418863 H 7.9534306 7.7441298 V 6.7558375 7.0697887 H 7.6394794 7.534829 V 7.4883903 7.906992 H 7.4301786 7.3255282 V 8.2209432 8.5348944 H 7.2208778 7.1162274 V 8.8488456 9.1627968 H 7.011577 6.9069265 V 8.8488456 8.5348944 H 6.8022761 6.6976257 V 8.2209432 7.906992 H 6.5929753 6.4883249 V 7.4883903 7.0697887 H 6.3836745 6.2790241 V 6.7558375 6.4418863 H 6.0697233 5.8604225 v 0.4186016 0.4186016 h 0.1046504 0.1046504 v 0.4186017 0.4186016 h 0.1046504 0.1046504 v 0.2093008 0.2093008 h 0.1046504 0.1046504 v 0.3139512 0.3139512 h 0.1046504 0.1046504 v 0.2093008 0.2093008 h 0.1046504 0.1046504 v 0.1046504 0.1046504 z"
       id="path847" />
    <path
       style="display:inline;fill:#400080;fill-opacity:1;stroke-width:0.0209301"
       d="M 7.011577,10 H 6.6976257 V 9.8953496 9.7906992 H 6.5929753 6.4883249 V 9.5813984 9.3720976 H 6.3836745 6.2790241 V 9.0581464 8.7441952 H 6.1743737 6.0697233 V 8.5348944 8.3255936 H 5.9650729 5.8604225 V 7.906992 7.4883903 H 5.7557721 5.6511217 V 6.8604879 6.2325855 H 6.0697233 6.4883249 V 6.5465367 6.8604879 H 6.5929753 6.6976257 V 7.2790895 7.6976912 H 6.8022761 6.9069265 V 8.0116424 8.3255936 H 7.011577 7.1162274 V 8.0116424 7.6976912 H 7.2208778 7.3255282 V 7.2790895 6.8604879 H 7.4301786 7.534829 V 6.5465367 6.2325855 H 7.9534306 8.3720322 V 6.8604879 7.4883903 H 8.2673818 8.1627314 V 7.906992 8.3255936 H 8.058081 7.9534306 V 8.5348944 8.7441952 H 7.8487802 7.7441298 V 9.0581464 9.3720976 H 7.6394794 7.534829 V 9.5813984 9.7906992 H 7.4301786 7.3255282 V 9.8953496 10 Z"
       id="path1159" />
    <path
       style="fill:#a000ff;fill-opacity:1;stroke:#000000;stroke-width:0;stroke-miterlimit:4;stroke-dasharray:none;stroke-opacity:1"
       d="M 5.860397,6.441923 V 7.0697871 7.2790747 H 6.069685 V 8.116335 h 0.2092881 v 0.4185763 h 0.2093962 v 0.6278641 h 0.2092878 v 0.4185759 h 0.2092881 v 0.2093962 h 0.209288 V 9.5813513 H 7.3255213 V 9.1627754 h 0.209288 V 8.5349113 h 0.209288 V 8.116335 H 7.9533854 V 7.2790747 H 8.1627816 V 6.441923 H 7.7440973 V 7.0697871 H 7.5348093 V 7.9069388 H 7.3255213 V 8.5349113 H 7.1162332 V 9.1627754 H 6.9069452 V 8.5349113 H 6.6976571 V 7.9069388 H 6.4883693 V 7.2790747 7.0697871 H 6.2789731 V 6.441923 Z"
       id="rect1163" />
  </g>
  <g
     inkscape:groupmode="layer"
     id="layer7"
     inkscape:label="STUDIOS"
     style="display:inline">
    <path
       style="display:inline;fill:#408000;fill-opacity:1;stroke-width:0.0209301"
       d="m 10.046439,9.790699 h 0.941853 V 9.6860486 9.5813982 h 0.104651 0.10465 V 9.4767478 9.3720974 h 0.10465 0.104651 V 9.267447 9.1627966 h 0.10465 0.104651 V 8.9534958 8.744195 h -0.104651 -0.10465 V 8.6395446 8.5348942 h -0.104651 -0.10465 V 8.4302438 8.3255934 h -0.10465 -0.104651 V 8.1162926 7.9069917 H 10.46504 9.9417882 V 7.8023413 7.6976909 H 9.8371378 9.7324874 V 7.5930405 7.4883901 H 9.627837 9.5231866 V 7.2790893 7.0697885 H 9.627837 9.7324874 V 6.9651381 6.8604877 h 0.9418536 0.941854 V 6.6511869 6.4418861 H 10.674341 9.7324874 V 6.5465365 6.6511869 H 9.627837 9.5231866 V 6.7558373 6.8604877 H 9.4185362 9.3138858 V 6.9651381 7.0697885 H 9.2092354 9.104585 V 7.2790893 7.4883901 H 9.2092354 9.3138858 V 7.5930405 7.6976909 H 9.4185362 9.5231866 V 7.8023413 7.9069917 H 9.627837 9.7324874 V 8.0116421 8.1162926 H 9.8371378 9.9417882 V 8.220943 8.3255934 h 0.4186018 0.418601 v 0.1046504 0.1046504 h 0.104651 0.10465 V 8.6395446 8.744195 h 0.104651 0.10465 v 0.2093008 0.2093008 h -0.10465 -0.104651 V 9.267447 9.3720974 H 10.046439 9.104585 V 9.5813982 9.790699 Z"
       id="path919" />
    <path
       style="display:inline;fill:#400080;fill-opacity:1;stroke-width:0.0209301"
       d="M 9.9417882,9.9999998 H 8.7906338 V 9.5813982 9.1627966 H 9.7324874 10.674341 V 8.9534958 8.744195 H 10.569691 10.46504 V 8.6395446 8.5348942 H 10.046439 9.627837 V 8.4302438 8.3255934 H 9.5231866 9.4185362 V 8.220943 8.1162926 H 9.3138858 9.2092354 V 8.0116421 7.9069917 H 9.104585 8.9999346 V 7.8023413 7.6976909 H 8.8952842 8.7906338 V 7.2790893 6.8604877 H 8.8952842 8.9999346 V 6.7558373 6.6511869 H 9.104585 9.2092354 V 6.5465365 6.4418861 H 9.3138858 9.4185362 V 6.3372357 6.2325853 h 1.1511548 1.151154 V 6.6511869 7.0697885 H 10.778991 9.8371378 v 0.2093008 0.2093008 h 0.1046504 0.1046508 v 0.1046504 0.1046504 h 0.418601 0.418602 v 0.1046504 0.1046504 h 0.10465 0.104651 v 0.1046504 0.1046505 h 0.10465 0.10465 V 8.220943 8.3255934 h 0.104651 0.10465 v 0.1046504 0.1046504 h 0.104651 0.10465 v 0.4186016 0.4186016 h -0.10465 -0.104651 v 0.1046504 0.1046504 h -0.10465 -0.104651 V 9.6860486 9.790699 h -0.10465 -0.10465 v 0.1046504 0.1046504 z"
       id="path1332" />
    <path
       style="fill:#a000ff;fill-opacity:1;stroke:#000000;stroke-width:0;stroke-miterlimit:4;stroke-dasharray:none;stroke-opacity:1"
       d="M 9.6279071,6.441923 V 6.6512106 H 9.4186189 V 6.8604988 H 9.2092226 v 0.2092881 h -0.209288 v 0.4185758 h 0.209288 V 7.697651 h 0.2093963 v 0.2092876 h 0.2092882 v 0.2093962 h 0.2092876 v 0.2092883 h 0.8371523 v 0.2092882 h 0.209288 v 0.2092876 h 0.209288 V 9.1627752 H 10.883635 V 9.3720628 H 8.9999346 V 9.7907473 H 10.883635 V 9.5813511 h 0.209288 V 9.3720628 h 0.209396 V 9.1627752 h 0.209288 V 8.7441989 H 11.302319 V 8.5349113 H 11.092923 V 8.3256231 H 10.883635 V 7.9069386 H 9.8371947 V 7.697651 H 9.6279071 V 7.4883627 H 9.4186189 V 7.0697869 H 9.6279071 V 6.8604988 H 11.511607 V 6.441923 Z"
       id="rect1335" />
  </g>
</svg>
