<?xml version="1.0" encoding="UTF-8" standalone="no"?>
<svg
   inkscape:version="1.2.2 (732a01da63, 2022-12-09)"
   sodipodi:docname="16 Bit Virtual Studios 7.5mm.svg"
   id="svg8"
   version="1.1"
   viewBox="0 0 34.030999 9.5"
   height="9.5mm"
   width="34.030998mm"
   xmlns:inkscape="http://www.inkscape.org/namespaces/inkscape"
   xmlns:sodipodi="http://sodipodi.sourceforge.net/DTD/sodipodi-0.dtd"
   xmlns="http://www.w3.org/2000/svg"
   xmlns:svg="http://www.w3.org/2000/svg"
   xmlns:rdf="http://www.w3.org/1999/02/22-rdf-syntax-ns#"
   xmlns:cc="http://creativecommons.org/ns#"
   xmlns:dc="http://purl.org/dc/elements/1.1/">
  <defs
     id="defs2" />
  <sodipodi:namedview
     showguides="false"
     inkscape:window-maximized="1"
     inkscape:window-y="-8"
     inkscape:window-x="-8"
     inkscape:window-height="1017"
     inkscape:window-width="1920"
     showgrid="false"
     inkscape:document-rotation="0"
     inkscape:current-layer="layer3"
     inkscape:document-units="mm"
     inkscape:cy="47.999999"
     inkscape:cx="100.25"
     inkscape:zoom="4.0000001"
     inkscape:pageshadow="2"
     inkscape:pageopacity="0.0"
     borderopacity="1.0"
     bordercolor="#666666"
     pagecolor="#ffffff"
     id="base"
     inkscape:showpageshadow="2"
     inkscape:pagecheckerboard="0"
     inkscape:deskcolor="#d1d1d1" />
  <metadata
     id="metadata5">
    <rdf:RDF>
      <cc:Work
         rdf:about="">
        <dc:format>image/svg+xml</dc:format>
        <dc:type
           rdf:resource="http://purl.org/dc/dcmitype/StillImage" />
      </cc:Work>
    </rdf:RDF>
  </metadata>
  <g
     style="display:inline"
     inkscape:label="1"
     id="layer3"
     inkscape:groupmode="layer">
    <path
       id="path882"
       d="M 11.703125,5.21875 H 10.53125 V 4.8281249 4.4375001 H 11 11.46875 V 3.265625 2.09375 H 11 10.53125 V 1.9375 1.78125 h 0.07813 0.07813 V 1.703125 1.625 h 0.07813 0.07813 V 1.546875 1.46875 H 10.921875 11 V 1.390625 1.3125 h 0.07813 0.07813 V 1.234375 1.15625 h 0.07813 0.07813 V 1.078125 1 H 11.78125 12.25 v 1.71875 1.7187501 h 0.3125 0.3125 V 4.8281249 5.21875 Z m 0,-0.1562501 h 1.015625 v -0.234375 -0.234375 h -0.3125 -0.3125 V 2.875 1.15625 h -0.3125 -0.3125 V 1.234375 1.3125 H 11.390625 11.3125 V 1.390625 1.46875 H 11.23437 11.15624 V 1.546875 1.625 H 11.078125 11 V 1.703125 1.78125 H 10.92187 10.84374 V 1.859375 1.9375 H 11.234375 11.625 V 3.265625 4.5937499 H 11.15625 10.6875 v 0.234375 0.234375 z"
       style="fill:#008000;fill-opacity:1;stroke-width:0.015625" />
    <path
       id="rect913"
       style="fill:#00ff00;fill-opacity:1;stroke:#000000;stroke-width:0;stroke-miterlimit:4;stroke-dasharray:none;stroke-opacity:1"
       d="M 11.468747,1.1562404 V 1.312481 h -0.15624 v 0.1562404 h -0.15624 V 1.6249619 H 11.000026 V 1.781283 h -0.156241 v 0.1562405 h 0.781203 v 2.6562492 h -0.937524 v 0.4687216 h 2.031288 V 4.5937727 H 12.093789 V 1.9375235 1.781283 1.6249619 1.4687214 1.312481 1.1562404 Z" />
  </g>
  <g
     style="display:inline"
     inkscape:label="6"
     id="layer4"
     inkscape:groupmode="layer">
    <path
       id="path953"
       d="M 14.515625,5.21875 H 13.8125 V 5.140625 5.0625 H 13.73437 13.65624 V 4.984375 4.9062501 H 13.578125 13.5 V 4.8281249 4.75 H 13.42187 13.34374 V 4.6718751 4.5937499 H 13.265625 13.1875 V 3.109375 1.625 h 0.07813 0.07813 V 1.546875 1.46875 H 13.421875 13.5 V 1.390625 1.3125 h 0.07813 0.07813 V 1.234375 1.15625 h 0.07813 0.07813 V 1.078125 1 h 0.625 0.625 V 1.078125 1.15625 h 0.07813 0.07813 V 1.234375 1.3125 h 0.07813 0.07813 V 1.390625 1.46875 h 0.07813 0.07813 V 1.546875 1.625 h 0.07813 0.07813 V 2.015625 2.40625 H 15.296875 14.90625 V 2.25 2.09375 H 14.828125 14.75 V 2.015625 1.9375 H 14.515625 14.28125 V 2.015625 2.09375 H 14.203125 14.125 V 2.171875 2.25 H 14.04687 13.96874 V 2.5625 2.875 H 14.04687 14.125 V 2.796875 2.71875 h 0.46875 0.46875 V 2.796875 2.875 h 0.07813 0.07813 V 2.953125 3.03125 h 0.07813 0.07813 V 3.109375 3.1875 h 0.07813 0.07813 V 3.265625 3.34375 h 0.07813 0.07813 V 4.046875 4.75 H 15.60941 15.53128 V 4.828125 4.90625 H 15.453125 15.375 V 4.984375 5.0625 H 15.29687 15.21874 V 5.140625 5.21875 Z m 0,-0.1562501 H 15.0625 V 4.984375 4.9062501 h 0.07813 0.07813 V 4.8281249 4.75 h 0.07813 0.07813 V 4.671875 4.59375 h 0.07813 0.07813 V 4.046875 3.5 H 15.453125 15.375 V 3.421875 3.34375 H 15.29687 15.21874 V 3.265625 3.1875 H 15.140625 15.0625 V 3.109375 3.03125 H 14.98437 14.90624 V 2.953125 2.875 h -0.3125 -0.3125 V 2.953125 3.03125 H 14.203125 14.125 V 3.109375 3.1875 H 13.96875 13.8125 V 2.640625 2.09375 h 0.07813 0.07813 V 2.015625 1.9375 h 0.07813 0.07813 V 1.859375 1.78125 h 0.390625 0.390625 V 1.859375 1.9375 h 0.07813 0.07813 V 2.09375 2.25 h 0.234375 0.234375 V 2.015625 1.78125 H 15.453125 15.375 V 1.703125 1.625 H 15.29687 15.21874 V 1.546875 1.46875 H 15.140625 15.0625 V 1.390625 1.3125 H 14.98437 14.90624 V 1.234375 1.15625 H 14.4375 13.96875 V 1.234375 1.3125 H 13.890625 13.8125 V 1.390625 1.46875 H 13.73437 13.65624 V 1.546875 1.625 H 13.578125 13.5 V 1.703125 1.78125 H 13.42187 13.34374 V 3.109375 4.4375001 H 13.421875 13.5 v 0.078125 0.078125 h 0.07813 0.07813 V 4.6718751 4.75 h 0.07813 0.07813 V 4.828125 4.90625 h 0.07813 0.07813 V 4.984375 5.0625 Z M 14.4375,4.75 H 14.125 V 4.671875 4.59375 H 14.04687 13.96874 V 4.515625 4.4375001 H 13.890625 13.8125 V 4.046875 3.65625 h 0.07813 0.07813 V 3.578125 3.5 h 0.07813 0.07813 V 3.421875 3.34375 H 14.4375 14.75 V 3.421875 3.5 h 0.07813 0.07813 V 3.578125 3.65625 h 0.07813 0.07813 v 0.390625 0.3906251 h -0.07813 -0.07813 v 0.078125 0.078125 H 14.828125 14.75 V 4.6718751 4.75 Z m 0,-0.1562501 h 0.15625 V 4.515625 4.4375001 H 14.671875 14.75 V 4.359375 4.28125 h 0.07813 0.07813 V 4.046875 3.8125 H 14.828125 14.75 V 3.734375 3.65625 H 14.67187 14.59374 V 3.578125 3.5 H 14.4375 14.28125 V 3.578125 3.65625 H 14.203125 14.125 V 3.734375 3.8125 H 14.04687 13.96874 V 4.046875 4.28125 H 14.04687 14.125 V 4.359375 4.4375 h 0.07813 0.07813 V 4.515625 4.59375 Z"
       style="display:inline;fill:#000080;fill-opacity:1;stroke-width:0.015625" />
    <path
       d="M 13.968717,1.1562221 V 1.3124625 H 13.812476 V 1.468703 h -0.15624 v 0.1562404 h -0.15624 V 1.7812647 H 13.343675 V 4.437514 h 0.156321 v 0.1562404 h 0.15624 v 0.1562403 h 0.15624 v 0.1562408 h 0.156241 v 0.1562404 h 1.093764 V 4.9062355 h 0.15624 V 4.7499947 h 0.15624 V 4.5937544 h 0.156242 V 3.4999905 H 15.374961 V 3.34375 h -0.15624 V 3.1875096 h -0.15624 V 3.031269 H 14.90624 V 2.874948 H 14.75 14.281197 v 0.156321 h -0.15624 v 0.1562405 h -0.15624 -0.156241 V 2.0937456 h 0.156241 V 1.9375051 h 0.15624 V 1.7812647 h 0.781283 v 0.1562404 h 0.156241 v 0.312481 h 0.468721 V 1.7812647 H 15.374961 V 1.6249434 h -0.15624 V 1.468703 h -0.15624 V 1.3124625 H 14.90624 V 1.1562221 H 14.124957 Z M 14.124957,3.34375 H 14.75 v 0.1562405 h 0.15624 V 3.656231 h 0.156241 V 4.437514 H 14.90624 V 4.5937544 H 14.75 V 4.7499947 H 14.124957 V 4.5937544 h -0.15624 V 4.437514 H 13.812476 V 3.656231 h 0.156241 V 3.4999905 h 0.15624 z"
       style="fill:#0000ff;fill-opacity:1;stroke:#000000;stroke-width:0;stroke-miterlimit:4;stroke-dasharray:none;stroke-opacity:1"
       id="rect982" />
  </g>
  <g
     style="display:inline"
     inkscape:label="BIT"
     id="layer5"
     inkscape:groupmode="layer">
    <path
       id="path1083"
       d="M 17.328125,5.21875 H 16.625 V 3.109375 1 h 0.703125 0.703125 V 1.078125 1.15625 h 0.07813 0.07813 V 1.234375 1.3125 h 0.07813 0.07813 V 1.390625 1.46875 H 18.421875 18.5 V 2.171875 2.875 H 18.42187 18.34374 V 2.953125 3.03125 H 18.265625 18.1875 V 3.109375 3.1875 h 0.07813 0.07813 V 3.265625 3.34375 H 18.421875 18.5 V 4.046875 4.75 H 18.42187 18.34374 V 4.828125 4.90625 H 18.26561 18.18748 V 4.984375 5.0625 H 18.10935 18.03122 V 5.140625 5.21875 Z m 0,-0.1562501 H 17.875 V 4.984375 4.9062501 h 0.07813 0.07813 V 4.8281249 4.75 h 0.07813 0.07813 V 4.671875 4.59375 h 0.07813 0.07813 V 4.046875 3.5 H 18.265625 18.1875 V 3.421875 3.34375 H 18.10937 18.03124 V 3.265625 3.1875 H 17.953125 17.875 V 3.109375 3.03125 H 17.79687 17.71874 V 2.953125 2.875 H 17.953125 18.1875 V 2.796875 2.71875 h 0.07813 0.07813 V 2.171875 1.625 H 18.265625 18.1875 V 1.546875 1.46875 H 18.10937 18.03124 V 1.390625 1.3125 H 17.953125 17.875 V 1.234375 1.15625 H 17.328125 16.78125 v 1.953125 1.9531249 z m 0.07813,-0.46875 h -0.3125 V 3.96875 3.34375 h 0.3125 0.3125 V 3.421875 3.5 h 0.07813 0.07813 v 0.46875 0.4687501 h -0.07813 -0.07813 v 0.078125 0.078125 z m 0,-0.1562498 H 17.5625 V 4.359375 4.28125 h 0.07813 0.07813 V 3.96875 3.65625 H 17.640625 17.5625 V 3.578125 3.5 H 17.40625 17.25 v 0.46875 0.4687501 z m 0,-1.8750001 h -0.3125 V 2.015625 1.46875 h 0.3125 0.3125 V 1.546875 1.625 h 0.07813 0.07813 V 2.015625 2.40625 h -0.07813 -0.07813 V 2.484375 2.5625 Z m 0,-0.15625 H 17.5625 V 2.328125 2.25 h 0.07813 0.07813 V 2.015625 1.78125 H 17.640625 17.5625 V 1.703125 1.625 H 17.40625 17.25 V 2.015625 2.40625 Z m 2.5,2.8125 H 18.8125 V 4.8281249 4.4375001 h 0.3125 0.3125 V 3.109375 1.78125 H 19.125 18.8125 V 1.390625 1 H 19.90625 21 V 1.390625 1.78125 H 20.6875 20.375 V 3.109375 4.4375001 H 20.6875 21 V 4.8281249 5.21875 Z m 0,-0.1562501 h 0.9375 v -0.234375 -0.234375 h -0.3125 -0.3125 V 3.109375 1.625 h 0.3125 0.3125 V 1.390625 1.15625 h -0.9375 -0.9375 V 1.390625 1.625 h 0.3125 0.3125 v 1.484375 1.4843749 h -0.3125 -0.3125 v 0.234375 0.234375 z m 2.5,0.1562501 H 21.9375 V 3.5 1.78125 H 21.625 21.3125 V 1.390625 1 H 22.40625 23.5 V 1.390625 1.78125 H 23.1875 22.875 V 3.5 5.21875 Z m 0,-0.1562501 h 0.3125 V 3.34375 1.625 h 0.3125 0.3125 V 1.390625 1.15625 h -0.9375 -0.9375 V 1.390625 1.625 h 0.3125 0.3125 v 1.71875 1.7187499 z"
       style="display:inline;fill:#800080;fill-opacity:1;stroke-width:0.015625" />
    <path
       d="M 16.781246,1.1562404 V 4.5937727 5.0624943 H 17.87501 V 4.9062539 h 0.156241 V 4.7500131 h 0.15624 V 4.5937727 h 0.15624 V 3.5000088 h -0.15624 V 3.3437684 H 18.03125 V 3.1875279 H 17.87501 V 3.0312875 H 17.71877 V 2.8749663 h 0.468721 V 2.7187259 h 0.15624 v -1.093764 h -0.15624 V 1.4687214 H 18.03125 V 1.312481 H 17.87501 V 1.1562404 h -0.781283 z m 2.187528,0 v 0.4687215 h 0.624962 v 2.9688108 h -0.624962 v 0.4687216 h 1.874967 V 4.5937727 H 20.218778 V 1.6249619 h 0.624963 V 1.1562404 Z m 2.500009,0 v 0.4687215 h 0.624962 v 3.4375324 h 0.625042 V 1.6249619 h 0.624962 V 1.1562404 Z m -4.375056,0.312481 h 0.625043 v 0.1562405 h 0.15624 v 0.781283 h -0.15624 v 0.1562405 h -0.625043 z m 0,1.875047 h 0.625043 v 0.1562404 h 0.15624 v 0.9375236 h -0.15624 v 0.1562403 h -0.625043 z"
       style="fill:#ff00ff;fill-opacity:1;stroke:#000000;stroke-width:0;stroke-miterlimit:4;stroke-dasharray:none;stroke-opacity:1"
       id="rect1087" />
  </g>
  <g
     style="display:inline"
     inkscape:label="VIRTUAL"
     id="layer6"
     inkscape:groupmode="layer">
    <path
       id="path1159"
       d="M 2.015625,8.5 H 1.78125 V 8.4218748 8.3437502 H 1.703125 1.625 V 8.1874997 8.03125 H 1.546875 1.46875 V 7.796875 7.5625 H 1.390625 1.3125 V 7.40625 7.25 H 1.234375 1.15625 V 6.9375 6.625 H 1.078125 1 V 6.15625 5.6875 H 1.3125 1.625 V 5.921875 6.15625 H 1.703125 1.78125 v 0.3125 0.3125 H 1.859375 1.9375 V 7.015625 7.25 H 2.015625 2.09375 V 7.015625 6.78125 H 2.171875 2.25 V 6.46875 6.15625 H 2.328125 2.40625 V 5.921875 5.6875 h 0.3125 0.3125 V 6.15625 6.625 H 2.953125 2.875 V 6.9375 7.25 H 2.796875 2.71875 V 7.40625 7.5625 H 2.640625 2.5625 V 7.796875 8.03125 H 2.484375 2.40625 V 8.1874997 8.3437502 H 2.328125 2.25 V 8.4218748 8.5 Z m 0,-0.1562498 H 2.09375 V 8.265625 8.1874997 H 2.171875 2.25 V 8.03125 7.8750002 H 2.328125 2.40625 V 7.640625 7.40625 H 2.484375 2.5625 V 7.25 7.09375 H 2.640625 2.71875 V 6.78125 6.46875 H 2.796875 2.875 V 6.15625 5.84375 H 2.71875 2.5625 V 6.078125 6.3125 H 2.484375 2.40625 V 6.625 6.9375 H 2.328125 2.25 V 7.171875 7.40625 H 2.171875 2.09375 V 7.640625 7.8750002 H 2.015625 1.9375 V 7.640625 7.40625 H 1.859375 1.78125 V 7.171875 6.9375 H 1.703125 1.625 V 6.625 6.3125 H 1.546875 1.46875 V 6.078125 5.84375 H 1.3125 1.15625 v 0.3125 0.3125 H 1.234375 1.3125 v 0.3125 0.3125 H 1.390625 1.46875 V 7.25 7.40625 H 1.546875 1.625 V 7.640625 7.8750002 H 1.703125 1.78125 V 8.03125 8.1874997 H 1.859375 1.9375 v 0.078125 0.078125 z M 4.125,8.5 H 3.34375 V 8.1874997 7.8750002 H 3.578125 3.8125 V 7.09375 6.3125 H 3.578125 3.34375 V 6 5.6875 H 4.125 4.9062501 V 6 6.3125 h -0.234375 -0.234375 v 0.78125 0.7812502 h 0.234375 0.234375 V 8.1874997 8.5 Z m 0,-0.1562498 H 4.75 V 8.1874997 8.03125 H 4.515625 4.28125 V 7.09375 6.15625 H 4.515625 4.75 V 6 5.84375 H 4.125 3.5 V 6 6.15625 H 3.734375 3.96875 v 0.9375 0.9375 H 3.734375 3.5 V 8.1874997 8.3437502 Z M 5.53125,8.5 H 5.21875 V 7.09375 5.6875 H 5.921875 6.625 V 5.765625 5.84375 H 6.703125 6.78125 V 5.921875 6 H 6.859375 6.9375 V 6.546875 7.09375 H 6.859375 6.78125 V 7.171875 7.25 H 6.703125 6.625 V 7.328125 7.40625 H 6.546875 6.46875 V 7.484375 7.5625 H 6.546875 6.625 V 7.640625 7.71875 H 6.78125 6.9375 V 7.796875 7.875 H 7.015625 7.09375 V 8.1874997 8.5 H 6.703125 6.3125 V 8.4218748 8.3437502 H 6.234375 6.15625 V 8.265625 8.1874997 H 6.078125 6 V 8.1093752 8.03125 H 5.921875 5.84375 V 8.265625 8.5 Z m 0,-0.1562498 H 5.6875 V 7.9531247 7.5625 H 5.765625 5.84375 V 7.640625 7.71875 H 5.921875 6 V 7.796875 7.875 H 6.078125 6.15625 V 7.9531247 8.03125 H 6.234375 6.3125 V 8.109375 8.187499 H 6.390625 6.46875 V 8.265624 8.343749 H 6.703125 6.9375 V 8.1874997 8.03125 H 6.859375 6.78125 V 7.9531247 7.8750002 H 6.625 6.46875 V 7.796875 7.71875 H 6.390625 6.3125 V 7.640625 7.5625 H 6.234375 6.15625 V 7.484375 7.40625 H 6.078125 6 V 7.328125 7.25 H 6.234375 6.46875 V 7.171875 7.09375 H 6.546875 6.625 V 7.015625 6.9375 H 6.703125 6.78125 V 6.546875 6.15625 H 6.703125 6.625 V 6.078125 6 H 6.546875 6.46875 V 5.921875 5.84375 H 5.921875 5.3750001 v 1.25 1.2500002 z M 6,6.9375 H 5.6875 V 6.546875 6.15625 H 6 6.3125 V 6.234375 6.3125 H 6.390625 6.46875 V 6.546875 6.78125 H 6.390625 6.3125 V 6.859375 6.9375 Z M 6,6.78125 H 6.15625 V 6.703125 6.625 H 6.234375 6.3125 V 6.546875 6.46875 H 6.234375 6.15625 V 6.390625 6.3125 H 6 5.84375 V 6.546875 6.78125 Z M 8.4218748,8.5 H 8.03125 V 7.40625 6.3125 H 7.640625 7.25 V 6 5.6875 h 1.1718748 1.171875 V 6 6.3125 H 9.203125 8.8125002 V 7.40625 8.5 Z m 0,-0.1562498 h 0.234375 V 7.25 6.15625 H 9.0468752 9.4375 V 6 5.84375 H 8.4218748 7.40625 V 6 6.15625 H 7.796875 8.1874997 V 7.25 8.3437502 Z M 10.921875,8.5 H 10.375 V 8.4218748 8.3437502 H 10.21875 10.0625 V 8.265625 8.1874997 H 9.9843752 9.90625 V 6.9375 5.6875 h 0.3125 0.3125 V 6.625 7.5625 h 0.07813 0.07813 V 7.640625 7.71875 h 0.234375 0.234375 V 7.640625 7.5625 h 0.07813 0.07813 V 6.625 5.6875 h 0.3125 0.3125 V 6.859375 8.03125 H 11.85939 11.78126 V 8.1874997 8.3437502 H 11.625 11.46875 V 8.4218748 8.5 Z m 0,-0.1562498 H 11.3125 V 8.265625 8.1874997 H 11.46875 11.625 V 8.03125 7.8750002 h 0.07813 0.07813 V 6.859375 5.84375 H 11.625 11.46875 v 0.9375 0.9375 H 11.39062 11.31249 V 7.796875 7.875 H 10.921875 10.53125 V 7.796875 7.71875 H 10.453125 10.375 V 6.78125 5.84375 H 10.21875 10.0625 V 6.9375 8.03125 h 0.07813 0.07813 v 0.078125 0.078124 h 0.15625 0.15625 V 8.265624 8.343749 Z M 12.5625,8.5 H 12.25 V 7.328125 6.15625 h 0.07813 0.07813 V 6.078125 6 h 0.07813 0.07813 V 5.921875 5.84375 h 0.07813 0.07813 V 5.765625 5.6875 h 0.46875 0.46875 V 5.765625 5.84375 h 0.07813 0.07813 V 5.921875 6 h 0.07813 0.07813 V 6.078125 6.15625 h 0.07813 0.07813 V 7.328125 8.5 H 13.8125 13.5 V 8.03125 7.5625 H 13.1875 12.875 V 8.03125 8.5 Z m 0,-0.1562498 h 0.15625 V 7.8750002 7.40625 h 0.46875 0.46875 v 0.4687502 0.46875 h 0.15625 0.15625 V 7.328125 6.3125 H 13.890625 13.8125 V 6.234375 6.15625 H 13.73437 13.65624 V 6.078125 6 H 13.578125 13.5 V 5.921875 5.84375 H 13.1875 12.875 V 5.921875 6 H 12.79687 12.71874 V 6.078125 6.15625 H 12.640625 12.5625 V 6.234375 6.3125 H 12.48437 12.40624 V 7.328125 8.3437502 Z M 13.1875,7.09375 H 12.71875 V 6.703125 6.3125 h 0.07813 0.07813 V 6.234375 6.15625 H 13.1875 13.5 V 6.234375 6.3125 h 0.07813 0.07813 V 6.703125 7.09375 Z m 0,-0.15625 H 13.5 V 6.703125 6.46875 H 13.42187 13.34374 V 6.390625 6.3125 H 13.1875 13.03125 V 6.390625 6.46875 H 12.953125 12.875 V 6.703125 6.9375 Z M 15.296875,8.5 H 14.4375 V 7.09375 5.6875 h 0.390625 0.390625 v 1.09375 1.0937502 h 0.46875 0.46875 V 8.1874997 8.5 Z m 0,-0.1562498 H 16 V 8.1874997 8.03125 H 15.53125 15.0625 V 6.9375 5.84375 H 14.828125 14.59375 v 1.25 1.2500002 z"
       style="display:inline;fill:#400080;fill-opacity:1;stroke-width:0.015625" />
    <path
       d="m 1.1562309,5.8437775 v 0.4687215 0.15624 h 0.1562405 v 0.6250425 h 0.1562404 v 0.312481 h 0.1563213 v 0.4687212 h 0.1562404 v 0.3124816 h 0.1562404 v 0.156321 H 2.0937545 V 8.1874653 H 2.2499949 V 7.8749837 H 2.4062354 V 7.4062625 H 2.5624758 V 7.0937815 H 2.7187163 V 6.468739 H 2.8750375 V 5.8437775 H 2.5624758 V 6.312499 H 2.4062354 V 6.9374605 H 2.2499949 v 0.468802 H 2.0937545 V 7.8749837 H 1.937514 V 7.4062625 H 1.7812735 V 6.9374605 H 1.6250331 V 6.468739 6.312499 H 1.4687118 V 5.8437775 Z m 2.3437685,0 v 0.312481 H 3.9687207 V 8.0312237 H 3.4999994 V 8.3437863 H 4.7500037 V 8.0312237 H 4.2812824 V 6.1562585 h 0.4687213 v -0.312481 z m 1.8749662,0 v 0.312481 2.1875278 H 5.6875275 V 7.562503 H 5.843768 v 0.1562405 h 0.15624 v 0.1562402 h 0.156241 v 0.1562401 h 0.15624 v 0.1562415 h 0.1562405 v 0.156321 h 0.468802 V 8.0312238 H 6.7812105 V 7.8749837 H 6.4687295 V 7.7187435 H 6.312489 V 7.562503 H 6.156249 V 7.4062625 H 6.000008 v -0.15624 H 6.4687295 V 7.0937815 H 6.62497 V 6.9374605 H 6.7812105 V 6.78122 6.1562585 H 6.62497 V 6.0000175 H 6.4687295 v -0.15624 H 6.312489 Z m 2.0312874,0 v 0.312481 H 8.1875358 V 8.3437863 H 8.6562573 V 6.1562585 h 0.781203 v -0.312481 z m 2.65625,0 v 1.874966 0.3124802 h 0.15624 v 0.1562416 h 0.312481 v 0.156321 h 0.781283 v -0.156321 h 0.312481 V 7.8749837 h 0.15624 V 7.7187435 5.8437775 h -0.312481 v 1.874966 h -0.15624 V 7.8749837 H 10.531224 V 7.7187435 h -0.156241 v -1.874966 z m 2.812489,0 v 0.15624 h -0.15624 v 0.156241 H 12.562511 V 6.312499 h -0.15624 v 2.0312873 h 0.312481 V 7.4062625 h 0.937524 v 0.9375238 h 0.31248 V 6.312499 h -0.15624 V 6.1562585 h -0.15624 v -0.156241 h -0.156241 v -0.15624 z m 1.718726,0 v 2.1874462 0.3125626 h 1.406245 V 8.0312237 H 15.06252 V 5.8437775 Z M 5.6875275,6.1562585 H 6.312489 V 6.312499 H 6.4687295 V 6.78122 H 6.312489 V 6.9374605 H 5.6875275 Z m 7.1874645,0 h 0.625043 V 6.312499 h 0.156241 V 7.0937815 H 12.718752 V 6.312499 h 0.15624 z"
       style="fill:#a000ff;fill-opacity:1;stroke:#000000;stroke-width:0;stroke-miterlimit:4;stroke-dasharray:none;stroke-opacity:1"
       id="rect1163" />
  </g>
  <g
     style="display:inline"
     inkscape:label="STUDIOS"
     id="layer7"
     inkscape:groupmode="layer">
    <path
       id="path1332"
       d="M 17.796875,8.5 H 16.9375 V 8.1874997 7.8750002 h 0.703125 0.703125 V 7.71875 7.5625 H 18.265625 18.1875 V 7.484375 7.40625 H 17.875 17.5625 V 7.328125 7.25 H 17.48437 17.40624 V 7.171875 7.09375 H 17.328125 17.25 V 7.015625 6.9375 H 17.17187 17.09374 V 6.859375 6.78125 h -0.07813 -0.07813 v -0.3125 -0.3125 h 0.07813 0.07813 V 6.078125 6 H 17.171875 17.25 V 5.921875 5.84375 h 0.07813 0.07813 V 5.765625 5.6875 H 18.265625 19.125 V 6 6.3125 H 18.421875 17.71875 V 6.46875 6.625 h 0.07813 0.07813 V 6.703125 6.78125 H 18.1875 18.5 V 6.859375 6.9375 h 0.07813 0.07813 V 7.015625 7.09375 h 0.07813 0.07813 V 7.171875 7.25 h 0.07813 0.07813 V 7.328125 7.40625 h 0.07813 0.07813 v 0.3125 0.3125 H 19.04691 18.96878 V 8.109375 8.187499 H 18.89065 18.81252 V 8.265624 8.343749 H 18.73439 18.65626 V 8.4218748 8.5 Z m 0,-0.1562498 H 18.5 V 8.265625 8.1874997 h 0.07813 0.07813 V 8.1093752 8.03125 h 0.07813 0.07813 V 7.953125 7.875 h 0.07813 0.07813 V 7.71875 7.5625 H 18.890625 18.8125 V 7.484375 7.40625 H 18.73437 18.65624 V 7.328125 7.25 H 18.578125 18.5 V 7.09375 6.9375 H 18.109375 17.71875 V 6.859375 6.78125 H 17.640625 17.5625 V 6.703125 6.625 H 17.48437 17.40624 V 6.46875 6.3125 h 0.07813 0.07813 V 6.234375 6.15625 h 0.703125 0.703125 V 6 5.84375 H 18.265625 17.5625 V 5.921875 6 H 17.48437 17.40624 V 6.078125 6.15625 H 17.328125 17.25 V 6.234375 6.3125 H 17.17187 17.09374 V 6.46875 6.625 H 17.171875 17.25 V 6.703125 6.78125 h 0.07813 0.07813 V 6.859375 6.9375 h 0.07813 0.07813 V 7.015625 7.09375 h 0.07813 0.07813 V 7.171875 7.25 h 0.3125 0.3125 V 7.328125 7.40625 H 18.42188 18.5 V 7.484375 7.5625 h 0.07813 0.07813 V 7.71875 7.8750002 H 18.578125 18.5 V 7.9531247 8.03125 H 17.796875 17.09375 V 8.1874997 8.3437502 Z M 20.609375,8.5 H 20.21875 V 7.40625 6.3125 H 19.828125 19.4375 V 6 5.6875 h 1.171875 1.171875 V 6 6.3125 H 21.390625 21 V 7.40625 8.5 Z m 0,-0.1562498 H 20.84375 V 7.25 6.15625 H 21.234375 21.625 V 6 5.84375 H 20.609375 19.59375 V 6 6.15625 H 19.984375 20.375 V 7.25 8.3437502 Z M 23.109375,8.5 H 22.5625 V 8.4218748 8.3437502 H 22.40625 22.25 V 8.265625 8.1874997 H 22.17187 22.09374 V 6.9375 5.6875 h 0.3125 0.3125 V 6.625 7.5625 H 22.79687 22.875 V 7.640625 7.71875 h 0.234375 0.234375 V 7.640625 7.5625 H 23.421875 23.5 V 6.625 5.6875 h 0.3125 0.3125 V 6.859375 8.03125 H 24.04687 23.96874 V 8.1874997 8.3437502 H 23.8125 23.65625 V 8.4218748 8.5 Z m 0,-0.1562498 H 23.5 V 8.265625 8.1874997 h 0.15625 0.15625 V 8.03125 7.8750002 h 0.07813 0.07813 V 6.859375 5.84375 H 23.8125 23.65625 v 0.9375 0.9375 H 23.578125 23.5 V 7.796875 7.875 H 23.109375 22.71875 V 7.796875 7.71875 H 22.640625 22.5625 V 6.78125 5.84375 H 22.40625 22.25 V 6.9375 8.03125 h 0.07813 0.07813 v 0.078125 0.078124 h 0.15625 0.15625 V 8.265624 8.343749 Z M 24.984375,8.5 H 24.4375 V 7.09375 5.6875 h 0.546875 0.546875 V 5.765625 5.84375 h 0.07813 0.07813 V 5.921875 6 h 0.07813 0.07813 V 6.078125 6.15625 H 25.921875 26 v 0.9375 0.9375 H 25.92187 25.84374 V 8.109375 8.187499 H 25.76561 25.68748 V 8.265624 8.343749 H 25.60935 25.53122 V 8.4218748 8.5 Z m 0,-0.1562498 H 25.375 V 8.265625 8.1874997 h 0.07813 0.07813 V 8.1093752 8.03125 h 0.07813 0.07813 V 7.953125 7.875 h 0.07813 0.07813 V 7.09375 6.3125 H 25.765625 25.6875 V 6.234375 6.15625 H 25.60937 25.53124 V 6.078125 6 H 25.453125 25.375 V 5.921875 5.84375 H 24.984375 24.59375 v 1.25 1.2500002 z m 0.15625,-0.46875 H 24.90625 V 7.09375 6.3125 H 25.140625 25.375 V 6.390625 6.46875 h 0.07813 0.07813 v 0.625 0.625 H 25.453125 25.375 V 7.796875 7.875 Z m 0,-0.1562502 h 0.07813 V 7.640625 7.5625 h 0.07813 0.07813 V 7.09375 6.625 h -0.07813 -0.07813 V 6.546875 6.46875 h -0.07813 -0.07813 v 0.625 0.625 z M 27.09375,8.5 H 26.3125 V 8.1874997 7.8750002 h 0.234375 0.234375 V 7.09375 6.3125 H 26.546875 26.3125 V 6 5.6875 H 27.09375 27.875 V 6 6.3125 H 27.640625 27.40625 V 7.09375 7.8750002 H 27.640625 27.875 V 8.1874997 8.5 Z m 0,-0.1562498 h 0.625 V 8.1874997 8.03125 H 27.484375 27.25 v -0.9375 -0.9375 h 0.234375 0.234375 V 6 5.84375 h -0.625 -0.625 V 6 6.15625 h 0.234375 0.234375 v 0.9375 0.9375 H 26.703125 26.46875 V 8.1874997 8.3437502 Z M 29.359375,8.5 H 28.96875 V 8.4218748 8.3437502 H 28.8125 28.65625 V 8.265625 8.1874997 H 28.578125 28.5 V 8.1093752 8.03125 H 28.42187 28.34374 V 7.796875 7.5625 H 28.265625 28.1875 V 7.09375 6.625 h 0.07813 0.07813 V 6.390625 6.15625 H 28.421875 28.5 V 6.078125 6 h 0.07813 0.07813 V 5.921875 5.84375 h 0.15625 0.15625 V 5.765625 5.6875 H 29.359375 29.75 V 5.765625 5.84375 h 0.15625 0.15625 V 5.921875 6 h 0.07813 0.07813 V 6.078125 6.15625 h 0.07813 0.07813 V 6.390625 6.625 h 0.07813 0.07813 V 7.09375 7.5625 H 30.453125 30.375 V 7.796875 8.03125 H 30.29687 30.21874 V 8.109375 8.187499 H 30.14061 30.06248 V 8.265624 8.343749 H 29.90625 29.75 V 8.4218748 8.5 Z m 0,-0.1562498 H 29.59375 V 8.265625 8.1874997 H 29.75 29.90625 V 8.1093752 8.03125 h 0.07813 0.07813 V 7.953125 7.875 h 0.07813 0.07813 V 7.640625 7.40625 h 0.07813 0.07813 V 7.09375 6.78125 H 30.2969 30.21877 V 6.546875 6.3125 H 30.140625 30.0625 V 6.234375 6.15625 H 29.98437 29.90624 V 6.078125 6 H 29.75 29.59375 V 5.921875 5.84375 H 29.359375 29.125 V 5.921875 6 H 28.96875 28.8125 V 6.078125 6.15625 H 28.73437 28.65624 V 6.234375 6.3125 H 28.578125 28.5 V 6.546875 6.78125 h -0.07813 -0.07813 v 0.3125 0.3125 H 28.421875 28.5 v 0.234375 0.2343752 h 0.07813 0.07813 v 0.078125 0.078125 h 0.07813 0.07813 v 0.078125 0.078124 h 0.15625 0.15625 v 0.078125 0.078125 z m 0,-0.3125002 H 29.125 V 7.953125 7.875 H 29.04687 28.96874 V 7.796875 7.71875 H 28.890625 28.8125 V 7.5625 7.40625 h -0.07813 -0.07813 v -0.3125 -0.3125 h 0.07813 0.07813 V 6.625 6.46875 h 0.07813 0.07813 V 6.390625 6.3125 h 0.07813 0.07813 V 6.234375 6.15625 h 0.234375 0.234375 V 6.234375 6.3125 H 29.671875 29.75 V 6.390625 6.46875 h 0.07813 0.07813 V 6.625 6.78125 h 0.07813 0.07813 v 0.3125 0.3125 H 29.98439 29.90626 V 7.5625 7.71875 H 29.828125 29.75 V 7.796875 7.875 H 29.67187 29.59374 V 7.953125 8.03125 Z m 0,-0.1562498 H 29.4375 V 7.796875 7.71875 h 0.07813 0.07813 V 7.640625 7.5625 H 29.671875 29.75 V 7.40625 7.25 h 0.07813 0.07813 V 7.09375 6.9375 H 29.828125 29.75 V 6.78125 6.625 H 29.67187 29.59374 V 6.546875 6.46875 H 29.515625 29.4375 V 6.390625 6.3125 H 29.35937 29.28124 V 6.390625 6.46875 H 29.203125 29.125 V 6.546875 6.625 H 29.04687 28.96874 V 6.78125 6.9375 H 28.890625 28.8125 V 7.09375 7.25 h 0.07813 0.07813 V 7.40625 7.5625 h 0.07813 0.07813 V 7.640625 7.71875 h 0.07813 0.07813 V 7.796875 7.875 Z M 31.703125,8.5 H 30.84375 V 8.1874997 7.8750002 H 31.546875 32.25 V 7.71875 7.5625 H 32.17187 32.09374 V 7.484375 7.40625 h -0.3125 -0.3125 V 7.328125 7.25 H 31.390625 31.3125 V 7.171875 7.09375 H 31.23437 31.15624 V 7.015625 6.9375 H 31.078125 31 V 6.859375 6.78125 H 30.92187 30.84374 V 6.46875 6.15625 H 30.921875 31 V 6.078125 6 h 0.07813 0.07813 V 5.921875 5.84375 h 0.07813 0.07813 V 5.765625 5.6875 h 0.859375 0.859375 V 6 6.3125 H 32.328125 31.625 V 6.46875 6.625 h 0.07813 0.07813 V 6.703125 6.78125 h 0.3125 0.3125 V 6.859375 6.9375 h 0.07813 0.07813 V 7.015625 7.09375 h 0.07813 0.07813 V 7.171875 7.25 h 0.07813 0.07813 V 7.328125 7.40625 h 0.07813 0.07813 v 0.3125 0.3125 H 32.953125 32.875 V 8.109375 8.187499 H 32.79687 32.71874 V 8.265624 8.343749 H 32.640625 32.5625 V 8.4218748 8.5 Z m 0,-0.1562498 H 32.40625 V 8.265625 8.1874997 h 0.07813 0.07813 V 8.1093752 8.03125 h 0.07813 0.07813 V 7.953125 7.875 h 0.07813 0.07813 V 7.71875 7.5625 H 32.7969 32.71877 V 7.484375 7.40625 H 32.640625 32.5625 V 7.328125 7.25 H 32.48437 32.40624 V 7.09375 6.9375 H 32.015625 31.625 V 6.859375 6.78125 H 31.54687 31.46874 V 6.703125 6.625 H 31.390625 31.3125 V 6.46875 6.3125 h 0.07813 0.07813 V 6.234375 6.15625 H 32.171875 32.875 V 6 5.84375 H 32.171875 31.46875 V 5.921875 6 H 31.390625 31.3125 V 6.078125 6.15625 H 31.23437 31.15624 V 6.234375 6.3125 H 31.078125 31 V 6.46875 6.625 h 0.07813 0.07813 V 6.703125 6.78125 h 0.07813 0.07813 V 6.859375 6.9375 h 0.07813 0.07813 V 7.015625 7.09375 h 0.07813 0.07813 V 7.171875 7.25 H 31.9375 32.25 V 7.328125 7.40625 h 0.07813 0.07813 V 7.484375 7.5625 h 0.07813 0.07813 V 7.71875 7.8750002 H 32.48439 32.40626 V 7.9531247 8.03125 H 31.703125 31 v 0.1562497 0.1562505 z"
       style="display:inline;fill:#408000;fill-opacity:1;stroke-width:0.015625" />
    <path
       d="m 17.56253,5.8437775 v 0.15624 h -0.156242 v 0.156241 H 17.249967 V 6.312499 h -0.15624 V 6.62498 h 0.15624 v 0.15624 h 0.156321 v 0.1562405 h 0.156242 v 0.156321 h 0.15624 v 0.156241 h 0.624961 v 0.15624 h 0.156241 V 7.562503 h 0.15624 v 0.3124807 h -0.15624 v 0.1562401 h -1.406245 v 0.3125625 h 1.406245 v -0.156321 h 0.15624 V 8.0312238 h 0.156322 V 7.8749837 h 0.15624 V 7.562503 h -0.15624 V 7.4062625 h -0.156322 v -0.15624 h -0.15624 V 6.9374605 H 17.71877 V 6.78122 H 17.56253 V 6.62498 H 17.406288 V 6.312499 H 17.56253 V 6.1562585 h 1.406244 v -0.312481 z m 2.031206,0 v 0.312481 h 0.781283 v 2.1875278 h 0.468722 V 6.1562585 h 0.781282 v -0.312481 z m 2.656249,0 v 1.874966 0.3124802 h 0.156241 v 0.1562416 h 0.312561 v 0.156321 h 0.781203 v -0.156321 h 0.31248 V 7.8749837 h 0.156241 V 5.8437775 H 23.65623 v 1.874966 H 23.499989 V 7.8749837 H 22.718787 V 7.7187435 h -0.156321 v -1.874966 z m 2.343769,0 V 6.312499 8.3437863 h 0.31248 0.468803 v -0.156321 h 0.15624 V 8.0312237 h 0.156241 v -0.15624 h 0.15624 V 7.7187435 6.312499 h -0.15624 V 6.1562585 h -0.156241 v -0.156241 h -0.15624 v -0.15624 z m 1.874966,0 v 0.312481 h 0.468802 V 8.0312237 H 26.46872 v 0.3125626 h 1.250004 V 8.0312237 H 27.250002 V 6.1562585 h 0.468722 v -0.312481 z m 2.656249,0 v 0.15624 h -0.312481 v 0.156241 h -0.15624 V 6.312499 H 28.500007 V 6.78122 h -0.15624 v 0.6250425 h 0.15624 v 0.4687212 h 0.156241 v 0.1562401 h 0.15624 v 0.1562415 h 0.312481 v 0.156321 h 0.468802 v -0.156321 h 0.312481 V 8.0312238 h 0.15624 V 7.8749837 h 0.156241 V 7.4062625 h 0.15624 V 6.78122 h -0.15624 V 6.312499 H 30.062492 V 6.1562585 h -0.15624 v -0.156241 h -0.312481 v -0.15624 z m 2.343768,0 v 0.15624 h -0.15624 v 0.156241 h -0.15624 V 6.312499 H 31.000016 V 6.62498 h 0.156241 v 0.15624 h 0.15624 v 0.1562405 h 0.15624 v 0.156321 h 0.156241 v 0.156241 h 0.625043 v 0.15624 h 0.15624 V 7.562503 h 0.15624 v 0.3124807 h -0.15624 v 0.1562401 h -1.406245 v 0.3125625 h 1.406245 v -0.156321 h 0.15624 V 8.0312238 h 0.156241 V 7.8749837 h 0.156241 V 7.562503 H 32.718742 V 7.4062625 h -0.156241 v -0.15624 h -0.15624 V 6.9374605 H 31.624978 V 6.78122 H 31.468737 V 6.62498 h -0.15624 V 6.312499 h 0.15624 V 6.1562585 h 1.406246 v -0.312481 z m -2.343768,0.312481 h 0.468802 V 6.312499 h 0.156241 v 0.15624 h 0.15624 V 6.78122 h 0.156241 v 0.6250425 h -0.156241 v 0.312481 h -0.15624 V 7.8749837 H 29.593771 V 8.0312238 H 29.124969 V 7.8749837 H 28.968728 V 7.7187435 h -0.15624 v -0.312481 h -0.15624 V 6.78122 h 0.15624 V 6.468739 h 0.15624 v -0.15624 h 0.156241 z M 24.906234,6.312499 h 0.468803 v 0.15624 h 0.15624 v 1.2500045 h -0.156321 v 0.1562402 h -0.468722 z"
       style="fill:#a0ff00;fill-opacity:1;stroke:#000000;stroke-width:0;stroke-miterlimit:4;stroke-dasharray:none;stroke-opacity:1"
       id="rect1335" />
  </g>
</svg>
