<?xml version="1.0" encoding="UTF-8" standalone="no"?>
<svg
   width="10mm"
   height="4.598mm"
   viewBox="0 0 10 4.5980002"
   version="1.1"
   id="svg359"
   sodipodi:docname="Icon-Holes.svg"
   inkscape:version="1.2.2 (732a01da63, 2022-12-09)"
   xmlns:inkscape="http://www.inkscape.org/namespaces/inkscape"
   xmlns:sodipodi="http://sodipodi.sourceforge.net/DTD/sodipodi-0.dtd"
   xmlns="http://www.w3.org/2000/svg"
   xmlns:svg="http://www.w3.org/2000/svg">
  <defs
     id="defs363" />
  <sodipodi:namedview
     id="namedview361"
     pagecolor="#ffffff"
     bordercolor="#666666"
     borderopacity="1.0"
     inkscape:showpageshadow="2"
     inkscape:pageopacity="0.0"
     inkscape:pagecheckerboard="0"
     inkscape:deskcolor="#d1d1d1"
     inkscape:document-units="mm"
     showgrid="false"
     inkscape:zoom="25.109477"
     inkscape:cx="20.151754"
     inkscape:cy="9.5979697"
     inkscape:window-width="1920"
     inkscape:window-height="1017"
     inkscape:window-x="-8"
     inkscape:window-y="-8"
     inkscape:window-maximized="1"
     inkscape:current-layer="svg359" />
  <g
     id="Pocket004"
     transform="matrix(1,0,0,-1,0.5,23.3)">
    <path
       id="Clone_f0005"
       d="m 1.3421486,18.98577 a 0.74146164,0.74146164 0 0 1 -0.59306833,0.2965 H 0.31250501 a 2.2872095,2.2872095 0 0 0 4e-7,3.437372 h 0.43657426 a 0.74146164,0.74146164 0 0 1 0.59274033,0.296001 0.42862955,0.42862955 0 0 0 0.3894453,0.2496 h 5.5374574 a 0.42862955,0.42862955 0 0 0 0.3894493,-0.2496 0.74146164,0.74146164 0 0 1 0.5927523,-0.296001 h 0.4365673 a 2.2872095,2.2872095 0 0 0 7.6e-6,-3.437372 H 8.2509169 A 0.74146164,0.74146164 0 0 1 7.6578546,18.98577 0.42843095,0.42843095 0 0 0 7.2687313,18.73657 H 1.7312739 a 0.42843095,0.42843095 0 0 0 -0.3891253,0.2492 z"
       stroke="#000000"
       stroke-width="0.35 px"
       style="fill:#a8bf1f;fill-opacity:1;fill-rule:evenodd;stroke-width:0.0695182;stroke-linecap:square;stroke-miterlimit:4;stroke-dasharray:none" />
    <circle
       cx="0.68058366"
       cy="20.537123"
       r="0.44471809"
       stroke="#000000"
       stroke-width="0.35 px"
       style="fill:#a8bf1f;stroke-width:0.0695182;stroke-linecap:square;stroke-miterlimit:4;stroke-dasharray:none"
       id="circle334" />
    <circle
       cx="8.3200417"
       cy="20.537123"
       r="0.44471809"
       stroke="#000000"
       stroke-width="0.35 px"
       style="fill:#a8bf1f;stroke-width:0.0695182;stroke-linecap:square;stroke-miterlimit:4;stroke-dasharray:none"
       id="circle336" />
    <title
       id="title356">b'Pocket004'</title>
    <path
       id="Pocket004_f0024"
       d="m 7.5015143,22.883473 h -6.002403 v -3.437782 h 6.002403 z"
       stroke="#000000"
       stroke-width="0.35 px"
       style="fill:#a8bf1f;fill-opacity:1;fill-rule:evenodd;stroke-width:0.0695182;stroke-linecap:square;stroke-miterlimit:4;stroke-dasharray:none" />
  </g>
</svg>
