<?xml version="1.0" encoding="UTF-8" standalone="no"?>
<svg
   inkscape:version="1.2.2 (732a01da63, 2022-12-09)"
   sodipodi:docname="16 Bit Virtual Studios 6mm.svg"
   id="svg8"
   version="1.1"
   viewBox="0 0 27.625001 8"
   height="8mm"
   width="27.625mm"
   xmlns:inkscape="http://www.inkscape.org/namespaces/inkscape"
   xmlns:sodipodi="http://sodipodi.sourceforge.net/DTD/sodipodi-0.dtd"
   xmlns="http://www.w3.org/2000/svg"
   xmlns:svg="http://www.w3.org/2000/svg"
   xmlns:rdf="http://www.w3.org/1999/02/22-rdf-syntax-ns#"
   xmlns:cc="http://creativecommons.org/ns#"
   xmlns:dc="http://purl.org/dc/elements/1.1/">
  <defs
     id="defs2" />
  <sodipodi:namedview
     showguides="false"
     inkscape:window-maximized="1"
     inkscape:window-y="-8"
     inkscape:window-x="-8"
     inkscape:window-height="1017"
     inkscape:window-width="1920"
     showgrid="false"
     inkscape:document-rotation="0"
     inkscape:current-layer="layer3"
     inkscape:document-units="mm"
     inkscape:cy="48.249999"
     inkscape:cx="100.25"
     inkscape:zoom="4.0000001"
     inkscape:pageshadow="2"
     inkscape:pageopacity="0.0"
     borderopacity="1.0"
     bordercolor="#666666"
     pagecolor="#ffffff"
     id="base"
     inkscape:showpageshadow="2"
     inkscape:pagecheckerboard="0"
     inkscape:deskcolor="#d1d1d1" />
  <metadata
     id="metadata5">
    <rdf:RDF>
      <cc:Work
         rdf:about="">
        <dc:format>image/svg+xml</dc:format>
        <dc:type
           rdf:resource="http://purl.org/dc/dcmitype/StillImage" />
      </cc:Work>
    </rdf:RDF>
  </metadata>
  <g
     style="display:inline"
     inkscape:label="1"
     id="layer3"
     inkscape:groupmode="layer">
    <path
       id="path882"
       d="M 9.5625,4.375 H 8.625 V 4.0624999 3.7500001 H 9 9.375 V 2.8125 1.875 H 9 8.625 V 1.75 1.625 H 8.687504 8.750008 V 1.5625 1.5 H 8.812512 8.875016 V 1.4375 1.375 H 8.9375 9 V 1.3125 1.25 H 9.062504 9.125008 V 1.1875 1.125 H 9.187512 9.250016 V 1.0625 1 H 9.625 10 v 1.375 1.3750001 h 0.25 0.25 V 4.0624999 4.375 Z m 0,-0.1250001 h 0.8125 v -0.1875 -0.1875 h -0.25 -0.25 V 2.5 1.125 H 9.625 9.375 V 1.1875 1.25 H 9.3125 9.25 V 1.3125 1.375 H 9.187496 9.124992 V 1.4375 1.5 H 9.0625 9 V 1.5625 1.625 H 8.937496 8.874992 V 1.6875 1.75 H 9.1875 9.5 V 2.8125 3.8749999 H 9.125 8.75 v 0.1875 0.1875 z"
       style="fill:#008000;fill-opacity:1;stroke-width:0.0125" />
    <path
       id="rect913"
       style="fill:#00ff00;fill-opacity:1;stroke:#000000;stroke-width:0;stroke-miterlimit:4;stroke-dasharray:none;stroke-opacity:1"
       d="M 9.3749976,1.1249923 V 1.2499848 H 9.2500056 V 1.3749771 H 9.1250136 V 1.4999695 H 9.0000208 V 1.6250264 H 8.875028 V 1.7500188 H 9.4999904 V 3.8750182 H 8.7499712 V 4.2499954 H 10.375002 V 3.8750182 H 9.8750312 V 1.7500188 1.6250264 1.4999695 1.3749771 1.2499848 1.1249923 Z" />
  </g>
  <g
     style="display:inline"
     inkscape:label="6"
     id="layer4"
     inkscape:groupmode="layer">
    <path
       id="path953"
       d="M 11.8125,4.375 H 11.25 V 4.3125 4.25 H 11.1875 11.125 V 4.1875 4.125 H 11.0625 11 V 4.0624999 4 H 10.9375 10.875 V 3.9375 3.875 H 10.8125 10.75 V 2.6875 1.5 h 0.0625 0.0625 V 1.4375 1.375 H 10.9375 11 V 1.3125 1.25 h 0.0625 0.0625 V 1.1875 1.125 H 11.1875 11.25 V 1.0625 1 h 0.5 0.5 V 1.0625 1.125 h 0.0625 0.0625 V 1.1875 1.25 H 12.4375 12.5 V 1.3125 1.375 h 0.0625 0.0625 V 1.4375 1.5 H 12.6875 12.75 V 1.8125 2.125 H 12.4375 12.125 V 2 1.875 H 12.0625 12 V 1.8125 1.75 H 11.8125 11.625 V 1.8125 1.875 H 11.5625 11.5 V 1.9375 2 H 11.4375 11.375 V 2.25 2.5 H 11.4375 11.5 V 2.4375 2.375 h 0.375 0.375 V 2.4375 2.5 h 0.0625 0.0625 V 2.5625 2.625 H 12.4375 12.5 V 2.6875 2.75 h 0.0625 0.0625 V 2.8125 2.875 H 12.6875 12.75 V 3.4375 4 H 12.6875 12.625 V 4.0625 4.125 H 12.5625 12.5 V 4.1875 4.25 H 12.4375 12.375 V 4.3125 4.375 Z m 0,-0.1250001 H 12.25 v -0.0625 -0.0625 h 0.0625 0.0625 V 4.0624999 4 H 12.4375 12.5 V 3.9375 3.875 h 0.0625 0.0625 V 3.4375 3 H 12.5625 12.5 V 2.9375 2.875 H 12.4375 12.375 V 2.8125 2.75 H 12.3125 12.25 V 2.6875 2.625 H 12.1875 12.125 V 2.5625 2.5 h -0.25 -0.25 V 2.5625 2.625 H 11.5625 11.5 V 2.6875 2.75 H 11.375 11.25 V 2.3125 1.875 h 0.0625 0.0625 V 1.8125 1.75 H 11.4375 11.5 V 1.6875 1.625 h 0.3125 0.3125 V 1.6875 1.75 H 12.1875 12.25 V 1.875 2 h 0.1875 0.1875 V 1.8125 1.625 H 12.5625 12.5 V 1.5625 1.5 H 12.4375 12.375 V 1.4375 1.375 H 12.3125 12.25 V 1.3125 1.25 H 12.1875 12.125 V 1.1875 1.125 H 11.75 11.375 V 1.1875 1.25 H 11.3125 11.25 V 1.3125 1.375 H 11.1875 11.125 V 1.4375 1.5 H 11.0625 11 V 1.5625 1.625 H 10.9375 10.875 V 2.6875 3.7500001 H 10.9375 11 v 0.0625 0.0625 h 0.0625 0.0625 v 0.0625 V 4 H 11.1875 11.25 V 4.0625 4.125 h 0.0625 0.0625 V 4.1875 4.25 Z M 11.75,4 H 11.5 V 3.9375 3.875 H 11.4375 11.375 V 3.8125 3.75 H 11.3125 11.25 V 3.4375 3.125 h 0.0625 0.0625 V 3.0625 3 H 11.4375 11.5 V 2.9375 2.875 H 11.75 12 V 2.9375 3 h 0.0625 0.0625 V 3.0625 3.125 H 12.1875 12.25 V 3.4375 3.7500001 H 12.1875 12.125 v 0.0625 0.0625 H 12.0625 12 v 0.0625 V 4 Z m 0,-0.1250001 h 0.125 v -0.0625 -0.0625 H 11.9375 12 V 3.6875 3.625 h 0.0625 0.0625 V 3.4375 3.25 H 12.0625 12 V 3.1875 3.125 H 11.9375 11.875 V 3.0625 3 H 11.75 11.625 V 3.0625 3.125 H 11.5625 11.5 V 3.1875 3.25 H 11.4375 11.375 V 3.4375 3.625 H 11.4375 11.5 V 3.6875 3.75 h 0.0625 0.0625 V 3.8125 3.875 Z"
       style="display:inline;fill:#000080;fill-opacity:1;stroke-width:0.0125" />
    <path
       d="M 11.374974,1.1249777 V 1.24997 H 11.249981 V 1.3749624 H 11.124989 V 1.4999547 H 10.999997 V 1.6250118 H 10.87494 v 2.1249994 h 0.125057 v 0.1249923 h 0.124992 v 0.1249923 h 0.124992 v 0.1249926 h 0.124993 v 0.1249923 h 0.875011 V 4.1249884 h 0.124992 V 3.9999958 h 0.124992 V 3.8750035 h 0.124993 V 2.9999924 H 12.499969 V 2.875 H 12.374977 V 2.7500077 H 12.249985 V 2.6250152 H 12.124992 V 2.4999584 H 12 11.624958 V 2.6250152 H 11.499966 V 2.7500076 H 11.374974 11.249981 V 1.8749965 h 0.124993 V 1.7500041 h 0.124992 V 1.6250118 h 0.625026 v 0.1249923 h 0.124993 v 0.2499848 h 0.374977 V 1.6250118 H 12.499969 V 1.4999547 H 12.374977 V 1.3749624 H 12.249985 V 1.24997 H 12.124992 V 1.1249777 H 11.499966 Z M 11.499966,2.875 H 12 v 0.1249924 h 0.124992 v 0.1249924 h 0.124993 V 3.7500112 H 12.124992 V 3.8750035 H 12 V 3.9999958 H 11.499966 V 3.8750035 H 11.374974 V 3.7500112 H 11.249981 V 3.1249848 h 0.124993 V 2.9999924 h 0.124992 z"
       style="fill:#0000ff;fill-opacity:1;stroke:#000000;stroke-width:0;stroke-miterlimit:4;stroke-dasharray:none;stroke-opacity:1"
       id="rect982" />
  </g>
  <g
     style="display:inline"
     inkscape:label="BIT"
     id="layer5"
     inkscape:groupmode="layer">
    <path
       id="path1083"
       d="M 14.0625,4.375 H 13.5 V 2.6875 1 h 0.5625 0.5625 V 1.0625 1.125 H 14.6875 14.75 V 1.1875 1.25 h 0.0625 0.0625 V 1.3125 1.375 H 14.9375 15 V 1.9375 2.5 H 14.9375 14.875 V 2.5625 2.625 H 14.8125 14.75 V 2.6875 2.75 h 0.0625 0.0625 V 2.8125 2.875 H 14.9375 15 V 3.4375 4 H 14.9375 14.875 V 4.0625 4.125 H 14.8125 14.75 V 4.1875 4.25 H 14.6875 14.625 V 4.3125 4.375 Z m 0,-0.1250001 H 14.5 v -0.0625 -0.0625 h 0.0625 0.0625 V 4.0624999 4 H 14.6875 14.75 V 3.9375 3.875 h 0.0625 0.0625 V 3.4375 3 H 14.8125 14.75 V 2.9375 2.875 H 14.6875 14.625 V 2.8125 2.75 H 14.5625 14.5 V 2.6875 2.625 H 14.4375 14.375 V 2.5625 2.5 H 14.5625 14.75 V 2.4375 2.375 h 0.0625 0.0625 V 1.9375 1.5 H 14.8125 14.75 V 1.4375 1.375 H 14.6875 14.625 V 1.3125 1.25 H 14.5625 14.5 V 1.1875 1.125 H 14.0625 13.625 v 1.5625 1.5624999 z m 0.0625,-0.375 h -0.25 V 3.375 2.875 h 0.25 0.25 V 2.9375 3 H 14.4375 14.5 V 3.375 3.7500001 H 14.4375 14.375 v 0.0625 0.0625 z m 0,-0.1249998 H 14.25 V 3.6875 3.625 h 0.0625 0.0625 V 3.375 3.125 H 14.3125 14.25 V 3.0625 3 H 14.125 14 V 3.375 3.7500001 Z M 14.125,2.25 h -0.25 V 1.8125 1.375 h 0.25 0.25 V 1.4375 1.5 H 14.4375 14.5 V 1.8125 2.125 H 14.4375 14.375 V 2.1875 2.25 Z m 0,-0.125 H 14.25 V 2.0625 2 h 0.0625 0.0625 V 1.8125 1.625 H 14.3125 14.25 V 1.5625 1.5 H 14.125 14 V 1.8125 2.125 Z m 2,2.25 H 15.25 V 4.0624999 3.7500001 h 0.25 0.25 V 2.6875 1.625 H 15.5 15.25 V 1.3125 1 H 16.125 17 V 1.3125 1.625 H 16.75 16.5 V 2.6875 3.7500001 H 16.75 17 V 4.0624999 4.375 Z m 0,-0.1250001 h 0.75 v -0.1875 -0.1875 h -0.25 -0.25 V 2.6875 1.5 h 0.25 0.25 V 1.3125 1.125 h -0.75 -0.75 V 1.3125 1.5 h 0.25 0.25 v 1.1875 1.1874999 h -0.25 -0.25 v 0.1875 0.1875 z m 2,0.1250001 H 17.75 V 3 1.625 H 17.5 17.25 V 1.3125 1 H 18.125 19 V 1.3125 1.625 H 18.75 18.5 V 3 4.375 Z m 0,-0.1250001 h 0.25 V 2.875 1.5 h 0.25 0.25 V 1.3125 1.125 h -0.75 -0.75 V 1.3125 1.5 h 0.25 0.25 v 1.375 1.3749999 z"
       style="display:inline;fill:#800080;fill-opacity:1;stroke-width:0.0125" />
    <path
       d="m 13.624997,1.1249923 v 2.7500259 0.3749772 h 0.875011 V 4.1250031 h 0.124993 V 4.0000105 h 0.124992 V 3.8750182 h 0.124992 V 3.000007 H 14.749993 V 2.8750147 H 14.625 V 2.7500223 H 14.500008 V 2.62503 H 14.375016 V 2.499973 h 0.374977 V 2.3749807 h 0.124992 V 1.4999695 H 14.749993 V 1.3749771 H 14.625 V 1.2499848 H 14.500008 V 1.1249923 h -0.625026 z m 1.750022,0 v 0.3749772 h 0.49997 v 2.3750487 h -0.49997 v 0.3749772 h 1.499974 V 3.8750182 H 16.375022 V 1.4999695 h 0.499971 V 1.1249923 Z m 2.000007,0 v 0.3749772 h 0.49997 V 4.2499954 H 18.37503 V 1.4999695 h 0.499969 V 1.1249923 Z m -3.500044,0.2499848 h 0.500034 v 0.1249924 h 0.124992 v 0.6250264 h -0.124992 v 0.1249924 h -0.500034 z m 0,1.5000376 h 0.500034 V 3.000007 h 0.124992 v 0.7500189 h -0.124992 v 0.1249923 h -0.500034 z"
       style="fill:#ff00ff;fill-opacity:1;stroke:#000000;stroke-width:0;stroke-miterlimit:4;stroke-dasharray:none;stroke-opacity:1"
       id="rect1087" />
  </g>
  <g
     style="display:inline"
     inkscape:label="VIRTUAL"
     id="layer6"
     inkscape:groupmode="layer">
    <path
       id="path1159"
       d="M 1.8125,7 H 1.625 V 6.9375 6.875 H 1.5625 1.5 V 6.7499998 6.625 H 1.4375 1.375 V 6.4375 6.25 H 1.3125 1.25 V 6.125 6 H 1.1875 1.125 V 5.75 5.5 H 1.0625 1 V 5.125 4.75 H 1.25 1.5 V 4.9375 5.125 H 1.5625 1.625 v 0.25 0.25 H 1.6875 1.75 V 5.8125 6 H 1.8125 1.875 V 5.8125 5.625 H 1.9375 2 V 5.375 5.125 H 2.0625 2.125 V 4.9375 4.75 h 0.25 0.25 V 5.125 5.5 H 2.5625 2.5 V 5.75 6 H 2.4375 2.375 V 6.125 6.25 H 2.3125 2.25 V 6.4375 6.625 H 2.1875 2.125 V 6.7499998 6.8750002 H 2.0625 2 v 0.0625 V 7 Z m 0,-0.1249998 H 1.875 v -0.0625 -0.0625 H 1.9375 2 V 6.625 6.5000002 H 2.0625 2.125 V 6.3125 6.125 H 2.1875 2.25 V 6 5.875 H 2.3125 2.375 V 5.625 5.375 H 2.4375 2.5 V 5.125 4.875 H 2.375 2.25 V 5.0625 5.25 H 2.1875 2.125 V 5.5 5.75 H 2.0625 2 V 5.9375 6.125 H 1.9375 1.875 V 6.3125 6.5000002 H 1.8125 1.75 V 6.3125 6.125 H 1.6875 1.625 V 5.9375 5.75 H 1.5625 1.5 V 5.5 5.25 H 1.4375 1.375 V 5.0625 4.875 H 1.25 1.125 v 0.25 0.25 H 1.1875 1.25 v 0.25 0.25 H 1.3125 1.375 V 6 6.125 H 1.4375 1.5 V 6.3125 6.5000002 H 1.5625 1.625 V 6.625 6.7499998 H 1.6875 1.75 v 0.0625 0.0625 z M 3.5,7 H 2.875 V 6.7499998 6.5000002 H 3.0625 3.25 V 5.875 5.25 H 3.0625 2.875 V 5 4.75 H 3.5 4.1250001 V 5 5.25 h -0.1875 -0.1875 v 0.625 0.6250002 h 0.1875 0.1875 V 6.7499998 7 Z m 0,-0.1249998 H 4 V 6.7499998 6.625 H 3.8125 3.625 V 5.875 5.125 H 3.8125 4 V 5 4.875 H 3.5 3 V 5 5.125 H 3.1875 3.375 v 0.75 0.75 H 3.1875 3 V 6.7499998 6.8750002 Z M 4.625,7 H 4.375 V 5.875 4.75 H 4.9375 5.5 V 4.8125 4.875 H 5.5625 5.625 V 4.9375 5 H 5.6875 5.75 V 5.4375 5.875 H 5.6875 5.625 V 5.9375 6 H 5.5625 5.5 V 6.0625 6.125 H 5.4375 5.375 V 6.1875 6.25 H 5.4375 5.5 V 6.3125 6.375 H 5.625 5.75 V 6.4375 6.5 H 5.8125 5.875 V 6.7499998 7 H 5.5625 5.25 V 6.9375 6.875 H 5.1875 5.125 V 6.8125 6.75 H 5.0625 5 V 6.6875002 6.625 H 4.9375 4.875 V 6.8125 7 Z m 0,-0.1249998 H 4.75 V 6.5624998 6.25 H 4.8125 4.875 V 6.3125 6.375 H 4.9375 5 V 6.4375 6.5 H 5.0625 5.125 V 6.5625 6.625 H 5.1875 5.25 V 6.6875 6.749999 H 5.3125 5.375 v 0.0625 0.0625 H 5.5625 5.75 V 6.7499998 6.625 H 5.6875 5.625 V 6.5625 6.5 H 5.5 5.375 V 6.4375 6.375 H 5.3125 5.25 V 6.3125 6.25 H 5.1875 5.125 V 6.1875 6.125 H 5.0625 5 V 6.0625 6 H 5.1875 5.375 V 5.9375 5.875 H 5.4375 5.5 V 5.8125 5.75 H 5.5625 5.625 V 5.4375 5.125 H 5.5625 5.5 V 5.0625 5 H 5.4375 5.375 V 4.9375 4.875 H 4.9375 4.5000001 v 1 1.0000002 z M 5,5.75 H 4.75 V 5.4375 5.125 H 5 5.25 V 5.1875 5.25 H 5.3125 5.375 V 5.4375 5.625 H 5.3125 5.25 V 5.6875 5.75 Z M 5,5.625 H 5.125 V 5.5625 5.5 H 5.1875 5.25 V 5.4375 5.375 H 5.1875 5.125 V 5.3125 5.25 H 5 4.875 V 5.4375 5.625 Z M 6.9374998,7 H 6.625 V 6.125 5.25 H 6.3125 6 V 5 4.75 h 0.9374998 0.9375 V 5 5.25 H 7.5625 7.2500002 V 6.125 7 Z m 0,-0.1249998 h 0.1875 V 6 5.125 H 7.4375002 7.75 V 5 4.875 H 6.9374998 6.125 V 5 5.125 H 6.4375 6.7499998 V 6 6.8750002 Z M 8.9375,7 H 8.5 V 6.9375 6.875 H 8.375 8.25 V 6.8125 6.75 H 8.1875 8.125 v -1 -1 h 0.25 0.25 V 5.5 6.25 H 8.687504 8.750008 V 6.3125 6.375 h 0.1875 0.1875 V 6.3125 6.25 H 9.187512 9.250016 V 5.5 4.75 h 0.25 0.25 V 5.6875 6.625 H 9.687512 9.625008 V 6.7499998 6.8750002 H 9.5 9.375 v 0.0625 V 7 Z m 0,-0.1249998 H 9.25 v -0.0625 -0.0625 H 9.375 9.5 V 6.625 6.5000002 H 9.562504 9.625008 V 5.6875 4.875 H 9.5 9.375 v 0.75 0.75 H 9.312496 9.249992 V 6.4375 6.5 H 8.9375 8.625 V 6.4375 6.375 H 8.5625 8.5 V 5.625 4.875 H 8.375 8.25 V 5.75 6.625 h 0.062504 0.062504 v 0.0625 0.062499 h 0.125 0.125 v 0.0625 0.0625 z M 10.25,7 H 10 V 6.0625 5.125 h 0.0625 0.0625 V 5.0625 5 H 10.1875 10.25 V 4.9375 4.875 h 0.0625 0.0625 V 4.8125 4.75 h 0.375 0.375 V 4.8125 4.875 H 11.1875 11.25 V 4.9375 5 h 0.0625 0.0625 V 5.0625 5.125 H 11.4375 11.5 V 6.0625 7 H 11.25 11 V 6.625 6.25 H 10.75 10.5 V 6.625 7 Z m 0,-0.1249998 h 0.125 v -0.375 V 6.125 h 0.375 0.375 v 0.3750002 0.375 h 0.125 0.125 V 6.0625 5.25 H 11.3125 11.25 V 5.1875 5.125 H 11.1875 11.125 V 5.0625 5 H 11.0625 11 V 4.9375 4.875 H 10.75 10.5 V 4.9375 5 H 10.4375 10.375 V 5.0625 5.125 H 10.3125 10.25 V 5.1875 5.25 H 10.1875 10.125 V 6.0625 6.8750002 Z M 10.75,5.875 H 10.375 V 5.5625 5.25 H 10.4375 10.5 V 5.1875 5.125 H 10.75 11 V 5.1875 5.25 h 0.0625 0.0625 V 5.5625 5.875 Z m 0,-0.125 H 11 V 5.5625 5.375 H 10.9375 10.875 V 5.3125 5.25 H 10.75 10.625 V 5.3125 5.375 H 10.5625 10.5 V 5.5625 5.75 Z M 12.4375,7 H 11.75 V 5.875 4.75 h 0.3125 0.3125 v 0.875 0.8750002 h 0.375 0.375 V 6.7499998 7 Z m 0,-0.1249998 H 13 V 6.7499998 6.625 H 12.625 12.25 V 5.75 4.875 H 12.0625 11.875 v 1 1.0000002 z"
       style="display:inline;fill:#400080;fill-opacity:1;stroke-width:0.0125" />
    <path
       d="m 1.1249847,4.875022 v 0.3749772 0.124992 h 0.1249924 v 0.500034 H 1.3749694 V 6.12501 H 1.5000265 V 6.499987 H 1.6250188 V 6.7499722 H 1.7500111 V 6.875029 H 1.8750036 V 6.7499722 H 1.9999959 V 6.499987 H 2.1249883 V 6.12501 H 2.2499806 V 5.8750252 H 2.374973 V 5.3749912 H 2.50003 V 4.875022 H 2.2499806 V 5.2499992 H 2.1249883 V 5.7499684 H 1.9999959 V 6.12501 H 1.8750036 V 6.499987 H 1.7500112 V 6.12501 H 1.6250188 V 5.7499684 H 1.5000265 V 5.3749912 5.2499992 H 1.3749694 V 4.875022 Z m 1.8750148,0 V 5.1250068 H 3.3749766 V 6.624979 H 2.9999995 v 0.25005 H 4.000003 V 6.624979 H 3.6250259 V 5.1250068 H 4.000003 V 4.875022 Z m 1.499973,0 V 5.1250068 6.875029 H 4.750022 V 6.2500024 h 0.1249924 v 0.1249924 h 0.124992 V 6.499987 h 0.1249928 v 0.124992 h 0.124992 V 6.7499722 H 5.3749836 V 6.875029 H 5.7500252 V 6.624979 H 5.6249684 V 6.499987 H 5.3749836 V 6.3749948 H 5.2499912 V 6.2500024 H 5.1249992 V 6.12501 H 5.0000064 V 6.000018 H 5.3749836 V 5.8750252 H 5.499976 V 5.7499684 H 5.6249684 V 5.624976 5.1250068 H 5.499976 V 5.000014 H 5.3749836 V 4.875022 H 5.2499912 Z m 1.6250299,0 V 5.1250068 H 6.7500286 V 6.875029 H 7.1250058 V 5.1250068 H 7.7499682 V 4.875022 Z m 2.125,0 V 6.3749948 6.624979 h 0.124992 V 6.7499722 H 8.6249792 V 6.875029 H 9.2500056 V 6.7499722 H 9.4999904 V 6.499987 h 0.124992 V 6.3749948 4.875022 H 9.3749976 V 6.3749948 H 9.2500056 V 6.499987 H 8.6249792 V 6.3749948 H 8.4999864 V 4.875022 Z m 2.2499916,0 V 5.000014 H 10.375002 V 5.1250068 H 10.250009 V 5.2499992 H 10.125017 V 6.875029 h 0.249985 V 6.12501 h 0.750019 v 0.750019 h 0.249984 V 5.2499992 H 11.250013 V 5.1250068 H 11.125021 V 5.000014 H 11.000028 V 4.875022 Z m 1.37498,0 v 1.749957 0.25005 H 12.99997 V 6.624979 H 12.250016 V 4.875022 Z M 4.750022,5.1250068 H 5.2499912 V 5.2499992 H 5.3749836 V 5.624976 H 5.2499912 V 5.7499684 H 4.750022 Z m 5.749972,0 h 0.500034 v 0.1249924 h 0.124993 v 0.625026 h -0.750019 v -0.625026 h 0.124992 z"
       style="fill:#a000ff;fill-opacity:1;stroke:#000000;stroke-width:0;stroke-miterlimit:4;stroke-dasharray:none;stroke-opacity:1"
       id="rect1163" />
  </g>
  <g
     style="display:inline"
     inkscape:label="STUDIOS"
     id="layer7"
     inkscape:groupmode="layer">
    <path
       id="path1332"
       d="M 14.4375,7 H 13.75 V 6.7499998 6.5000002 h 0.5625 0.5625 V 6.375 6.25 H 14.8125 14.75 V 6.1875 6.125 H 14.5 14.25 V 6.0625 6 H 14.1875 14.125 V 5.9375 5.875 H 14.0625 14 V 5.8125 5.75 H 13.9375 13.875 V 5.6875 5.625 H 13.8125 13.75 v -0.25 -0.25 h 0.0625 0.0625 V 5.0625 5 H 13.9375 14 V 4.9375 4.875 h 0.0625 0.0625 V 4.8125 4.75 H 14.8125 15.5 V 5 5.25 H 14.9375 14.375 V 5.375 5.5 H 14.4375 14.5 V 5.5625 5.625 H 14.75 15 V 5.6875 5.75 h 0.0625 0.0625 V 5.8125 5.875 H 15.1875 15.25 V 5.9375 6 h 0.0625 0.0625 V 6.0625 6.125 H 15.4375 15.5 v 0.25 0.25 H 15.4375 15.375 V 6.6875 6.749999 H 15.3125 15.25 v 0.0625 0.0625 H 15.1875 15.125 V 6.9374998 7 Z m 0,-0.1249998 H 15 v -0.0625 -0.0625 h 0.0625 0.0625 v -0.0625 -0.0625 H 15.1875 15.25 V 6.5625 6.5 h 0.0625 0.0625 V 6.375 6.25 H 15.3125 15.25 V 6.1875 6.125 H 15.1875 15.125 V 6.0625 6 H 15.0625 15 V 5.875 5.75 H 14.6875 14.375 V 5.6875 5.625 H 14.3125 14.25 V 5.5625 5.5 H 14.1875 14.125 V 5.375 5.25 H 14.1875 14.25 V 5.1875 5.125 h 0.5625 0.5625 V 5 4.875 H 14.8125 14.25 V 4.9375 5 H 14.1875 14.125 V 5.0625 5.125 H 14.0625 14 V 5.1875 5.25 H 13.9375 13.875 V 5.375 5.5 H 13.9375 14 V 5.5625 5.625 h 0.0625 0.0625 V 5.6875 5.75 H 14.1875 14.25 V 5.8125 5.875 h 0.0625 0.0625 V 5.9375 6 h 0.25 0.25 V 6.0625 6.125 H 14.9375 15 V 6.1875 6.25 h 0.0625 0.0625 V 6.375 6.5000002 H 15.0625 15 v 0.0625 0.0625 H 14.4375 13.875 V 6.7499998 6.8750002 Z M 16.6875,7 H 16.375 V 6.125 5.25 H 16.0625 15.75 V 5 4.75 h 0.9375 0.9375 V 5 5.25 H 17.3125 17 V 6.125 7 Z m 0,-0.1249998 H 16.875 V 6 5.125 H 17.1875 17.5 V 5 4.875 H 16.6875 15.875 V 5 5.125 H 16.1875 16.5 V 6 6.8750002 Z M 18.6875,7 H 18.25 V 6.9375 6.875 H 18.125 18 V 6.8125 6.75 H 17.9375 17.875 v -1 -1 h 0.25 0.25 V 5.5 6.25 H 18.4375 18.5 V 6.3125 6.375 h 0.1875 0.1875 V 6.3125 6.25 H 18.9375 19 V 5.5 4.75 h 0.25 0.25 V 5.6875 6.625 H 19.4375 19.375 V 6.7499998 6.8750002 H 19.25 19.125 v 0.0625 V 7 Z m 0,-0.1249998 H 19 v -0.0625 -0.0625 h 0.125 0.125 V 6.625 6.5000002 h 0.0625 0.0625 V 5.6875 4.875 H 19.25 19.125 v 0.75 0.75 H 19.0625 19 V 6.4375 6.5 H 18.6875 18.375 V 6.4375 6.375 H 18.3125 18.25 V 5.625 4.875 H 18.125 18 V 5.75 6.625 h 0.0625 0.0625 v 0.0625 0.062499 h 0.125 0.125 v 0.0625 0.0625 z M 20.1875,7 H 19.75 V 5.875 4.75 h 0.4375 0.4375 V 4.8125 4.875 H 20.6875 20.75 V 4.9375 5 h 0.0625 0.0625 V 5.0625 5.125 H 20.9375 21 v 0.75 0.75 H 20.9375 20.875 V 6.6875 6.749999 H 20.8125 20.75 v 0.0625 0.0625 H 20.6875 20.625 V 6.9374998 7 Z m 0,-0.1249998 H 20.5 v -0.0625 -0.0625 h 0.0625 0.0625 v -0.0625 -0.0625 H 20.6875 20.75 V 6.5625 6.5 h 0.0625 0.0625 V 5.875 5.25 H 20.8125 20.75 V 5.1875 5.125 H 20.6875 20.625 V 5.0625 5 H 20.5625 20.5 V 4.9375 4.875 H 20.1875 19.875 v 1 1.0000002 z m 0.125,-0.375 H 20.125 V 5.875 5.25 H 20.3125 20.5 V 5.3125 5.375 h 0.0625 0.0625 v 0.5 0.5 H 20.5625 20.5 V 6.4375 6.5 Z m 0,-0.1250002 H 20.375 V 6.3125 6.25 H 20.4375 20.5 V 5.875 5.5 H 20.4375 20.375 V 5.4375 5.375 H 20.3125 20.25 v 0.5 0.5 z M 21.875,7 H 21.25 V 6.7499998 6.5000002 h 0.1875 0.1875 V 5.875 5.25 H 21.4375 21.25 V 5 4.75 H 21.875 22.5 V 5 5.25 H 22.3125 22.125 V 5.875 6.5000002 H 22.3125 22.5 V 6.7499998 7 Z m 0,-0.1249998 h 0.5 V 6.7499998 6.625 H 22.1875 22 v -0.75 -0.75 h 0.1875 0.1875 V 5 4.875 h -0.5 -0.5 V 5 5.125 h 0.1875 0.1875 v 0.75 0.75 H 21.5625 21.375 V 6.7499998 6.8750002 Z M 23.6875,7 H 23.375 V 6.9375 6.875 H 23.25 23.125 V 6.8125 6.75 H 23.0625 23 V 6.6875 6.625 H 22.9375 22.875 V 6.4375 6.25 H 22.8125 22.75 V 5.875 5.5 h 0.0625 0.0625 V 5.3125 5.125 H 22.9375 23 V 5.0625 5 h 0.0625 0.0625 V 4.9375 4.875 h 0.125 0.125 V 4.8125 4.75 H 23.6875 24 V 4.8125 4.875 h 0.125 0.125 V 4.9375 5 h 0.0625 0.0625 V 5.0625 5.125 H 24.4375 24.5 V 5.3125 5.5 h 0.0625 0.0625 V 5.875 6.25 H 24.5625 24.5 V 6.4375 6.625 H 24.4375 24.375 V 6.6875 6.749999 H 24.3125 24.25 v 0.0625 0.0625 H 24.125 24 V 6.9374998 7 Z m 0,-0.1249998 h 0.1875 v -0.0625 -0.0625 H 24 24.125 v -0.0625 -0.0625 H 24.1875 24.25 V 6.5625 6.5 h 0.0625 0.0625 V 6.3125 6.125 H 24.4375 24.5 V 5.875 5.625 H 24.4375 24.375 V 5.4375 5.25 H 24.3125 24.25 V 5.1875 5.125 H 24.1875 24.125 V 5.0625 5 H 24 23.875 V 4.9375 4.875 H 23.6875 23.5 V 4.9375 5 H 23.375 23.25 V 5.0625 5.125 H 23.1875 23.125 V 5.1875 5.25 H 23.0625 23 V 5.4375 5.625 H 22.9375 22.875 v 0.25 0.25 H 22.9375 23 v 0.1875 0.1875002 h 0.0625 0.0625 v 0.0625 0.0625 h 0.0625 0.0625 v 0.0625 0.062499 h 0.125 0.125 v 0.0625 0.0625 z m 0,-0.2500002 H 23.5 V 6.5625 6.5 H 23.4375 23.375 V 6.4375 6.375 H 23.3125 23.25 V 6.25 6.125 H 23.1875 23.125 V 5.875 5.625 H 23.1875 23.25 V 5.5 5.375 h 0.0625 0.0625 V 5.3125 5.25 H 23.4375 23.5 V 5.1875 5.125 h 0.1875 0.1875 V 5.1875 5.25 H 23.9375 24 V 5.3125 5.375 h 0.0625 0.0625 V 5.5 5.625 h 0.0625 0.0625 v 0.25 0.25 H 24.1875 24.125 V 6.25 6.375 H 24.0625 24 V 6.4375 6.5 H 23.9375 23.875 V 6.5625 6.625 Z m 0,-0.1249998 H 23.75 V 6.4375 6.375 h 0.0625 0.0625 V 6.3125 6.25 H 23.9375 24 V 6.125 6 h 0.0625 0.0625 V 5.875 5.75 H 24.0625 24 V 5.625 5.5 H 23.9375 23.875 V 5.4375 5.375 H 23.8125 23.75 V 5.3125 5.25 H 23.6875 23.625 V 5.3125 5.375 H 23.5625 23.5 V 5.4375 5.5 H 23.4375 23.375 V 5.625 5.75 H 23.3125 23.25 V 5.875 6 h 0.0625 0.0625 V 6.125 6.25 H 23.4375 23.5 V 6.3125 6.375 h 0.0625 0.0625 V 6.4375 6.5 Z M 25.5625,7 H 24.875 V 6.7499998 6.5000002 H 25.4375 26 V 6.375 6.25 H 25.9375 25.875 V 6.1875 6.125 h -0.25 -0.25 V 6.0625 6 H 25.3125 25.25 V 5.9375 5.875 H 25.1875 25.125 V 5.8125 5.75 H 25.0625 25 V 5.6875 5.625 H 24.9375 24.875 V 5.375 5.125 H 24.9375 25 V 5.0625 5 h 0.0625 0.0625 V 4.9375 4.875 H 25.1875 25.25 V 4.8125 4.75 h 0.6875 0.6875 V 5 5.25 H 26.0625 25.5 V 5.375 5.5 h 0.0625 0.0625 V 5.5625 5.625 h 0.25 0.25 V 5.6875 5.75 H 26.1875 26.25 V 5.8125 5.875 h 0.0625 0.0625 V 5.9375 6 H 26.4375 26.5 V 6.0625 6.125 h 0.0625 0.0625 v 0.25 0.25 H 26.5625 26.5 V 6.6875 6.749999 H 26.4375 26.375 v 0.0625 0.0625 H 26.3125 26.25 V 6.9374998 7 Z m 0,-0.1249998 h 0.5625 v -0.0625 -0.0625 h 0.0625 0.0625 v -0.0625 -0.0625 h 0.0625 0.0625 V 6.5625 6.5 H 26.4375 26.5 V 6.375 6.25 H 26.4375 26.375 V 6.1875 6.125 H 26.3125 26.25 V 6.0625 6 H 26.1875 26.125 V 5.875 5.75 H 25.8125 25.5 V 5.6875 5.625 H 25.4375 25.375 V 5.5625 5.5 H 25.3125 25.25 V 5.375 5.25 h 0.0625 0.0625 V 5.1875 5.125 H 25.9375 26.5 V 5 4.875 H 25.9375 25.375 V 4.9375 5 H 25.3125 25.25 V 5.0625 5.125 H 25.1875 25.125 V 5.1875 5.25 H 25.0625 25 V 5.375 5.5 h 0.0625 0.0625 V 5.5625 5.625 H 25.1875 25.25 V 5.6875 5.75 h 0.0625 0.0625 V 5.8125 5.875 H 25.4375 25.5 V 5.9375 6 H 25.75 26 V 6.0625 6.125 h 0.0625 0.0625 V 6.1875 6.25 H 26.1875 26.25 V 6.375 6.5000002 H 26.1875 26.125 v 0.0625 0.0625 H 25.5625 25 V 6.75 6.8750004 Z"
       style="display:inline;fill:#408000;fill-opacity:1;stroke-width:0.0125" />
    <path
       d="M 14.250024,4.875022 V 5.000014 H 14.12503 V 5.1250068 H 13.999974 V 5.2499992 H 13.874982 V 5.499984 h 0.124992 v 0.124992 h 0.125056 v 0.1249924 h 0.124994 v 0.1250568 h 0.124992 V 6.000018 h 0.499969 V 6.12501 h 0.124993 V 6.2500024 H 15.12497 V 6.499987 h -0.124992 v 0.124992 h -1.124996 v 0.25005 h 1.124996 V 6.7499722 H 15.12497 V 6.624979 h 0.125057 V 6.499987 h 0.124992 V 6.2500024 H 15.250027 V 6.12501 H 15.12497 V 6.000018 H 14.999978 V 5.7499684 H 14.375016 V 5.624976 H 14.250024 V 5.499984 H 14.12503 V 5.2499992 h 0.124994 V 5.1250068 h 1.124995 V 4.875022 Z m 1.624965,0 v 0.2499848 h 0.625026 V 6.875029 h 0.374978 V 5.1250068 h 0.625025 V 4.875022 Z m 2.124999,0 V 6.3749948 6.624979 h 0.124993 V 6.7499722 H 18.37503 V 6.875029 h 0.624962 V 6.7499722 h 0.249984 V 6.499987 h 0.124993 V 4.875022 H 19.124984 V 6.3749948 H 18.999991 V 6.499987 H 18.37503 V 6.3749948 H 18.249973 V 4.875022 Z m 1.875015,0 V 5.2499992 6.875029 h 0.249984 0.375043 V 6.7499722 h 0.124992 V 6.624979 h 0.124992 V 6.499987 h 0.124992 V 6.3749948 5.2499992 H 20.750014 V 5.1250068 H 20.625022 V 5.000014 H 20.50003 V 4.875022 Z m 1.499973,0 v 0.2499848 h 0.375042 V 6.624979 h -0.375042 v 0.25005 h 1.000003 V 6.624979 H 22.000002 V 5.1250068 h 0.374977 V 4.875022 Z m 2.124999,0 V 5.000014 H 23.24999 V 5.1250068 H 23.124998 V 5.2499992 H 23.000006 V 5.624976 H 22.875014 V 6.12501 h 0.124992 v 0.374977 h 0.124992 v 0.124992 h 0.124992 v 0.1249932 h 0.249985 V 6.875029 h 0.375042 V 6.7499722 h 0.249985 V 6.624979 h 0.124992 V 6.499987 h 0.124992 V 6.12501 h 0.124992 V 5.624976 H 24.374986 V 5.2499992 H 24.249994 V 5.1250068 H 24.125002 V 5.000014 H 23.875017 V 4.875022 Z m 1.875015,0 V 5.000014 H 25.249998 V 5.1250068 H 25.125006 V 5.2499992 H 25.000013 V 5.499984 h 0.124993 v 0.124992 h 0.124992 v 0.1249924 h 0.124992 v 0.1250568 h 0.124992 V 6.000018 h 0.500035 V 6.12501 h 0.124992 v 0.1249924 h 0.124992 V 6.499987 h -0.124992 v 0.124992 h -1.124996 v 0.25005 h 1.124996 V 6.7499722 h 0.124992 V 6.624979 h 0.124993 V 6.499987 h 0.124992 V 6.2500024 H 26.374994 V 6.12501 H 26.250001 V 6.000018 H 26.125009 V 5.7499684 H 25.499982 V 5.624976 H 25.37499 V 5.499984 H 25.249998 V 5.2499992 H 25.37499 V 5.1250068 h 1.124996 V 4.875022 Z m -1.875015,0.2499848 h 0.375042 v 0.1249924 h 0.124993 v 0.124992 h 0.124992 V 5.624976 h 0.124992 V 6.12501 H 24.125002 V 6.3749948 H 24.00001 V 6.499987 H 23.875017 V 6.624979 H 23.499975 V 6.499987 H 23.374982 V 6.3749948 H 23.24999 V 6.12501 H 23.124998 V 5.624976 H 23.24999 V 5.3749912 h 0.124992 v -0.124992 h 0.124993 z m -3.374988,0.1249924 h 0.375043 v 0.124992 h 0.124992 V 6.3749948 H 20.499965 V 6.499987 h -0.374978 z"
       style="fill:#a0ff00;fill-opacity:1;stroke:#000000;stroke-width:0;stroke-miterlimit:4;stroke-dasharray:none;stroke-opacity:1"
       id="rect1335" />
  </g>
</svg>
