<?xml version="1.0" encoding="UTF-8" standalone="no"?>
<svg
   xmlns:dc="http://purl.org/dc/elements/1.1/"
   xmlns:cc="http://creativecommons.org/ns#"
   xmlns:rdf="http://www.w3.org/1999/02/22-rdf-syntax-ns#"
   xmlns:svg="http://www.w3.org/2000/svg"
   xmlns="http://www.w3.org/2000/svg"
   xmlns:sodipodi="http://sodipodi.sourceforge.net/DTD/sodipodi-0.dtd"
   xmlns:inkscape="http://www.inkscape.org/namespaces/inkscape"
   inkscape:version="1.0 (4035a4fb49, 2020-05-01)"
   sodipodi:docname="16 Bit Virtual Studios 20mm.svg"
   id="svg8"
   version="1.1"
   viewBox="0 0 87.417 22"
   height="22mm"
   width="87.417mm">
  <defs
     id="defs2" />
  <sodipodi:namedview
     showguides="false"
     inkscape:window-maximized="1"
     inkscape:window-y="-8"
     inkscape:window-x="-8"
     inkscape:window-height="1017"
     inkscape:window-width="1920"
     showgrid="false"
     inkscape:document-rotation="0"
     inkscape:current-layer="layer3"
     inkscape:document-units="mm"
     inkscape:cy="51.802483"
     inkscape:cx="164.67846"
     inkscape:zoom="4.0000001"
     inkscape:pageshadow="2"
     inkscape:pageopacity="0.0"
     borderopacity="1.0"
     bordercolor="#666666"
     pagecolor="#ffffff"
     id="base" />
  <metadata
     id="metadata5">
    <rdf:RDF>
      <cc:Work
         rdf:about="">
        <dc:format>image/svg+xml</dc:format>
        <dc:type
           rdf:resource="http://purl.org/dc/dcmitype/StillImage" />
        <dc:title></dc:title>
      </cc:Work>
    </rdf:RDF>
  </metadata>
  <g
     style="display:inline"
     inkscape:label="1"
     id="layer3"
     inkscape:groupmode="layer">
    <path
       id="path882"
       d="m 29.541667,12.25 h -3.125 v -1.041667 -1.041666 h 1.25 1.25 v -3.1250003 -3.125 h -1.25 -1.25 V 3.5 3.0833333 H 26.625 26.833333 V 2.875 2.6666667 H 27.041667 27.25 V 2.4583333 2.25 h 0.208333 0.208334 V 2.0416667 1.8333333 H 27.875 28.083333 V 1.625 1.4166667 H 28.291667 28.5 V 1.2083333 1 H 29.75 31 v 4.5833333 4.5833337 h 0.833333 0.833334 V 11.208333 12.25 Z m 0,-0.416667 H 32.25 v -0.625 -0.625 H 31.416667 30.583333 V 6 1.4166667 H 29.75 28.916667 V 1.625 1.8333333 H 28.708333 28.5 V 2.0416667 2.25 H 28.291667 28.083333 V 2.4583333 2.6666667 H 27.875 27.666667 V 2.875 3.0833333 H 27.458333 27.25 V 3.2916667 3.5 h 1.041667 1.041666 v 3.5416667 3.5416663 h -1.25 -1.25 v 0.625 0.625 z"
       style="fill:#008000;fill-opacity:1;stroke-width:0.0416667" />
    <path
       id="rect913"
       style="fill:#00ff00;fill-opacity:1;stroke:#000000;stroke-width:0;stroke-miterlimit:4;stroke-dasharray:none;stroke-opacity:1"
       d="m 28.916659,1.4166412 v 0.4166413 h -0.41664 V 2.2499237 H 28.083377 V 2.666565 h -0.416641 v 0.4168565 h -0.416642 v 0.4166412 h 2.083207 v 7.0833313 h -2.500062 v 1.249924 h 5.416766 V 10.583394 H 30.583439 V 3.5000627 3.0834215 2.666565 2.2499237 1.8332825 1.4166412 Z" />
  </g>
  <g
     style="display:inline"
     inkscape:label="6"
     id="layer4"
     inkscape:groupmode="layer">
    <path
       id="path953"
       d="m 37.041667,12.25 h -1.875 V 12.041667 11.833333 H 34.958333 34.75 V 11.625 11.416667 H 34.541667 34.333333 V 11.208333 11 H 34.125 33.916667 V 10.791667 10.583333 H 33.708333 33.5 V 6.625 2.6666667 h 0.208333 0.208334 V 2.4583333 2.25 H 34.125 34.333333 V 2.0416667 1.8333333 H 34.541667 34.75 V 1.625 1.4166667 h 0.208333 0.208334 V 1.2083333 1 H 36.833333 38.5 v 0.2083333 0.2083334 h 0.208333 0.208334 V 1.625 1.8333333 H 39.125 39.333333 V 2.0416667 2.25 H 39.541667 39.75 v 0.2083333 0.2083334 h 0.208333 0.208334 V 3.7083333 4.75 H 39.125 38.083333 V 4.3333333 3.9166667 H 37.875 37.666667 V 3.7083333 3.5 h -0.625 -0.625 V 3.7083333 3.9166667 H 36.208333 36 V 4.125 4.3333333 H 35.791667 35.583333 V 5.1666667 6 H 35.791667 36 V 5.7916667 5.5833333 h 1.25 1.25 V 5.7916667 6 h 0.208333 0.208334 V 6.2083333 6.4166667 H 39.125 39.333333 V 6.625 6.8333333 H 39.541667 39.75 V 7.0416667 7.25 h 0.208333 0.208334 V 9.125 11 H 39.958333 39.75 v 0.208333 0.208334 H 39.541667 39.333333 V 11.625 11.833333 H 39.125 38.916667 V 12.041667 12.25 Z m 0,-0.416667 H 38.5 V 11.625 11.416667 h 0.208333 0.208334 V 11.208333 11 H 39.125 39.333333 V 10.791667 10.583333 H 39.541667 39.75 V 9.125 7.6666667 H 39.541667 39.333333 V 7.4583333 7.25 H 39.125 38.916667 V 7.0416667 6.8333333 H 38.708333 38.5 V 6.625 6.4166667 H 38.291667 38.083333 V 6.2083333 6 H 37.25 36.416667 V 6.2083333 6.4166667 H 36.208333 36 V 6.625 6.8333333 H 35.583333 35.166667 V 5.375 3.9166667 H 35.375 35.583333 V 3.7083333 3.5 H 35.791667 36 V 3.2916667 3.0833333 h 1.041667 1.041666 V 3.2916667 3.5 H 38.291667 38.5 v 0.4166667 0.4166666 h 0.625 0.625 v -0.625 -0.625 H 39.541667 39.333333 V 2.875 2.6666667 H 39.125 38.916667 V 2.4583333 2.25 H 38.708333 38.5 V 2.0416667 1.8333333 H 38.291667 38.083333 V 1.625 1.4166667 h -1.25 -1.25 V 1.625 1.8333333 H 35.375 35.166667 V 2.0416667 2.25 H 34.958333 34.75 V 2.4583333 2.6666667 H 34.541667 34.333333 V 2.875 3.0833333 H 34.125 33.916667 V 6.625 10.166667 H 34.125 34.333333 V 10.375 10.583333 H 34.541667 34.75 V 10.791667 11 h 0.208333 0.208334 v 0.208333 0.208334 H 35.375 35.583333 V 11.625 11.833333 Z M 36.833333,11 H 36 V 10.791667 10.583333 H 35.791667 35.583333 V 10.375 10.166667 H 35.375 35.166667 V 9.125 8.0833333 H 35.375 35.583333 V 7.875 7.6666667 H 35.791667 36 V 7.4583333 7.25 h 0.833333 0.833334 V 7.4583333 7.6666667 H 37.875 38.083333 V 7.875 8.0833333 H 38.291667 38.5 V 9.125 10.166667 H 38.291667 38.083333 V 10.375 10.583333 H 37.875 37.666667 V 10.791667 11 Z m 0,-0.416667 H 37.25 V 10.375 10.166667 h 0.208333 0.208334 V 9.9583333 9.75 H 37.875 38.083333 V 9.125 8.5 H 37.875 37.666667 V 8.2916667 8.0833333 H 37.458333 37.25 V 7.875 7.6666667 H 36.833333 36.416667 V 7.875 8.0833333 H 36.208333 36 V 8.2916667 8.5 H 35.791667 35.583333 V 9.125 9.75 H 35.791667 36 v 0.2083333 0.2083337 h 0.208333 0.208334 V 10.375 10.583333 Z"
       style="display:inline;fill:#000080;fill-opacity:1;stroke-width:0.0416667" />
    <path
       d="m 35.583245,1.4165922 v 0.4166412 h -0.416642 v 0.4166413 h -0.41664 v 0.4166412 h -0.416642 v 0.4168566 h -0.416856 v 7.0833315 h 0.416856 v 0.416641 h 0.416642 v 0.416641 h 0.41664 v 0.416642 h 0.416642 v 0.416641 h 2.916704 v -0.416641 h 0.416641 v -0.416642 h 0.416641 v -0.416641 h 0.416642 V 7.6666413 H 39.333231 V 7.25 H 38.91659 V 6.8333588 H 38.499949 V 6.4167175 H 38.083307 V 5.9998613 h -0.41664 -1.25014 v 0.4168562 h -0.41664 V 6.8333588 H 35.583245 35.166603 V 3.9166549 h 0.416642 V 3.5000136 h 0.416642 V 3.0833725 h 2.08342 v 0.4166411 h 0.416642 v 0.8332825 h 1.249923 V 3.0833725 H 39.333231 V 2.6665159 H 38.91659 V 2.2498747 H 38.499949 V 1.8332334 H 38.083307 V 1.4165922 h -2.08342 z M 35.999887,7.25 h 1.66678 v 0.4166412 h 0.41664 v 0.4166413 h 0.416642 v 2.0834215 h -0.416642 v 0.416641 h -0.41664 v 0.416641 h -1.66678 V 10.583345 H 35.583245 V 10.166704 H 35.166603 V 8.0832825 h 0.416642 V 7.6666412 h 0.416642 z"
       style="fill:#0000ff;fill-opacity:1;stroke:#000000;stroke-width:0;stroke-miterlimit:4;stroke-dasharray:none;stroke-opacity:1"
       id="rect982" />
  </g>
  <g
     style="display:inline"
     inkscape:label="BIT"
     id="layer5"
     inkscape:groupmode="layer">
    <path
       id="path1083"
       d="m 44.541667,12.25 h -1.875 V 6.625 1 h 1.875 1.875 V 1.2083333 1.4166667 H 46.625 46.833333 V 1.625 1.8333333 H 47.041667 47.25 V 2.0416667 2.25 h 0.208333 0.208334 V 4.125 6 H 47.458333 47.25 V 6.2083333 6.4166667 H 47.041667 46.833333 V 6.625 6.8333333 H 47.041667 47.25 V 7.0416667 7.25 h 0.208333 0.208334 V 9.125 11 H 47.458333 47.25 v 0.208333 0.208334 H 47.041667 46.833333 V 11.625 11.833333 H 46.625 46.416667 V 12.041667 12.25 Z m 0,-0.416667 H 46 V 11.625 11.416667 h 0.208333 0.208334 V 11.208333 11 H 46.625 46.833333 V 10.791667 10.583333 H 47.041667 47.25 V 9.125 7.6666667 H 47.041667 46.833333 V 7.4583333 7.25 H 46.625 46.416667 V 7.0416667 6.8333333 H 46.208333 46 V 6.625 6.4166667 H 45.791667 45.583333 V 6.2083333 6 h 0.625 0.625 V 5.7916667 5.5833333 H 47.041667 47.25 V 4.125 2.6666667 H 47.041667 46.833333 V 2.4583333 2.25 H 46.625 46.416667 V 2.0416667 1.8333333 H 46.208333 46 V 1.625 1.4166667 H 44.541667 43.083333 V 6.625 11.833333 Z m 0.208333,-1.25 H 43.916667 V 8.9166667 7.25 H 44.75 45.583333 V 7.4583333 7.6666667 H 45.791667 46 v 1.25 1.2500003 H 45.791667 45.583333 V 10.375 10.583333 Z m 0,-0.416666 h 0.416667 V 9.9583333 9.75 H 45.375 45.583333 V 8.9166667 8.0833333 H 45.375 45.166667 V 7.875 7.6666667 H 44.75 44.333333 v 1.25 1.2500003 z m 0,-5.0000003 H 43.916667 V 3.7083333 2.25 H 44.75 45.583333 V 2.4583333 2.6666667 H 45.791667 46 V 3.7083333 4.75 H 45.791667 45.583333 V 4.9583333 5.1666667 Z M 44.75,4.75 h 0.416667 V 4.5416667 4.3333333 H 45.375 45.583333 v -0.625 -0.625 H 45.375 45.166667 V 2.875 2.6666667 H 44.75 44.333333 V 3.7083333 4.75 Z m 6.666667,7.5 H 48.5 v -1.041667 -1.041666 h 0.833333 0.833334 V 6.625 3.0833333 H 49.333333 48.5 V 2.0416667 1 h 2.916667 2.916666 V 2.0416667 3.0833333 H 53.5 52.666667 V 6.625 10.166667 H 53.5 54.333333 V 11.208333 12.25 Z m 0,-0.416667 h 2.5 v -0.625 -0.625 H 53.083333 52.25 V 6.625 2.6666667 h 0.833333 0.833334 v -0.625 -0.625 h -2.5 -2.5 v 0.625 0.625 H 49.75 50.583333 V 6.625 10.583333 H 49.75 48.916667 v 0.625 0.625 z M 58.083333,12.25 h -1.25 V 7.6666667 3.0833333 H 56 55.166667 V 2.0416667 1 H 58.083333 61 V 2.0416667 3.0833333 H 60.166667 59.333333 V 7.6666667 12.25 Z m 0,-0.416667 h 0.833334 V 7.25 2.6666667 H 59.75 60.583333 v -0.625 -0.625 h -2.5 -2.5 v 0.625 0.625 H 56.416667 57.25 V 7.25 11.833333 Z"
       style="display:inline;fill:#800080;fill-opacity:1;stroke-width:0.0416667" />
    <path
       d="m 43.083323,1.4166412 v 9.1667528 1.249924 h 2.916704 v -0.416641 h 0.416641 v -0.416642 h 0.416641 V 10.583394 H 47.24995 V 7.6666903 H 46.833309 V 7.250049 H 46.416668 V 6.8334078 H 46.000027 V 6.4167667 H 45.583385 V 5.9999101 h 1.249924 V 5.5832689 H 47.24995 V 2.666565 H 46.833309 V 2.2499237 H 46.416668 V 1.8332825 H 46.000027 V 1.4166412 h -2.083422 z m 5.833407,0 V 2.666565 h 1.666566 v 7.916829 H 48.91673 v 1.249924 h 4.999911 V 10.583394 H 52.250076 V 2.666565 h 1.666565 V 1.4166412 Z m 6.666691,0 V 2.666565 h 1.666564 v 9.166753 h 1.666781 V 2.666565 h 1.666565 V 1.4166412 Z M 43.916605,2.2499237 h 1.66678 V 2.666565 h 0.416642 v 2.0834214 h -0.416642 v 0.4166412 h -1.66678 z m 0,5.0001253 h 1.66678 v 0.4166413 h 0.416642 v 2.5000627 h -0.416642 v 0.416641 h -1.66678 z"
       style="fill:#ff00ff;fill-opacity:1;stroke:#000000;stroke-width:0;stroke-miterlimit:4;stroke-dasharray:none;stroke-opacity:1"
       id="rect1087" />
  </g>
  <g
     style="display:inline"
     inkscape:label="VIRTUAL"
     id="layer6"
     inkscape:groupmode="layer">
    <path
       id="path1159"
       d="m 3.7083333,21 h -0.625 V 20.791667 20.583333 H 2.875 2.6666667 V 20.166667 19.75 H 2.4583333 2.25 V 19.125 18.5 H 2.0416667 1.8333333 V 18.083333 17.666667 H 1.625 1.4166667 V 16.833333 16 H 1.2083333 1 V 14.75 13.5 h 0.8333333 0.8333334 v 0.625 0.625 H 2.875 3.0833333 v 0.833333 0.833334 H 3.2916667 3.5 v 0.625 0.625 h 0.2083333 0.2083334 v -0.625 -0.625 H 4.125 4.3333333 V 15.583333 14.75 H 4.5416667 4.75 V 14.125 13.5 H 5.5833333 6.4166667 V 14.75 16 H 6.2083333 6 v 0.833333 0.833334 H 5.7916667 5.5833333 V 18.083333 18.5 H 5.375 5.1666667 v 0.625 0.625 H 4.9583333 4.75 v 0.416667 0.416666 H 4.5416667 4.3333333 V 20.791667 21 Z m 0,-0.416667 H 3.9166667 V 20.375 20.166667 H 4.125 4.3333333 V 19.75 19.333333 H 4.5416667 4.75 v -0.625 -0.625 H 4.9583333 5.1666667 V 17.666667 17.25 H 5.375 5.5833333 V 16.416667 15.583333 H 5.7916667 6 V 14.75 13.916667 H 5.5833333 5.1666667 v 0.625 0.625 H 4.9583333 4.75 V 16 16.833333 H 4.5416667 4.3333333 v 0.625 0.625 H 4.125 3.9166667 v 0.625 0.625 H 3.7083333 3.5 v -0.625 -0.625 H 3.2916667 3.0833333 v -0.625 -0.625 H 2.875 2.6666667 V 16 15.166667 H 2.4583333 2.25 v -0.625 -0.625 H 1.8333333 1.4166667 V 14.75 15.583333 H 1.625 1.8333333 V 16.416667 17.25 H 2.0416667 2.25 v 0.416667 0.416666 h 0.2083333 0.2083334 v 0.625 0.625 H 2.875 3.0833333 V 19.75 20.166667 H 3.2916667 3.5 V 20.375 20.583333 Z M 9.3333333,21 H 7.25 V 20.166667 19.333333 H 7.875 8.5 V 17.25 15.166667 H 7.875 7.25 V 14.333333 13.5 h 2.0833333 2.0833337 v 0.833333 0.833334 h -0.625 -0.625 V 17.25 19.333333 h 0.625 0.625 V 20.166667 21 Z m 0,-0.416667 H 11 V 20.166667 19.75 H 10.375 9.75 v -2.5 -2.5 H 10.375 11 V 14.333333 13.916667 H 9.3333333 7.6666667 V 14.333333 14.75 h 0.625 0.625 v 2.5 2.5 h -0.625 -0.625 v 0.416667 0.416666 z M 13.083333,21 H 12.25 V 17.25 13.5 H 14.125 16 v 0.208333 0.208334 h 0.208333 0.208334 V 14.125 14.333333 H 16.625 16.833333 V 15.791667 17.25 H 16.625 16.416667 v 0.208333 0.208334 H 16.208333 16 V 17.875 18.083333 H 15.791667 15.583333 V 18.291667 18.5 H 15.791667 16 v 0.208333 0.208334 h 0.416667 0.416666 V 19.125 19.333333 H 17.041667 17.25 V 20.166667 21 H 16.208333 15.166667 V 20.791667 20.583333 H 14.958333 14.75 V 20.375 20.166667 H 14.541667 14.333333 V 19.958333 19.75 H 14.125 13.916667 V 20.375 21 Z m 0,-0.416667 H 13.5 V 19.541667 18.5 h 0.208333 0.208334 v 0.208333 0.208334 H 14.125 14.333333 V 19.125 19.333333 H 14.541667 14.75 V 19.541667 19.75 h 0.208333 0.208334 v 0.208333 0.208334 H 15.375 15.583333 V 20.375 20.583333 h 0.625 0.625 V 20.166667 19.75 H 16.625 16.416667 V 19.541667 19.333333 H 16 15.583333 V 19.125 18.916667 H 15.375 15.166667 V 18.708333 18.5 H 14.958333 14.75 V 18.291667 18.083333 H 14.541667 14.333333 V 17.875 17.666667 h 0.625 0.625 V 17.458333 17.25 H 15.791667 16 v -0.208333 -0.208334 h 0.208333 0.208334 V 15.791667 14.75 H 16.208333 16 V 14.541667 14.333333 H 15.791667 15.583333 V 14.125 13.916667 H 14.125 12.666667 V 17.25 20.583333 Z m 1.25,-3.75 H 13.5 V 15.791667 14.75 h 0.833333 0.833334 v 0.208333 0.208334 H 15.375 15.583333 v 0.625 0.625 H 15.375 15.166667 V 16.625 16.833333 Z m 0,-0.416666 H 14.75 V 16.208333 16 h 0.208333 0.208334 V 15.791667 15.583333 H 14.958333 14.75 V 15.375 15.166667 h -0.416667 -0.416666 v 0.625 0.625 z M 20.791667,21 H 19.75 V 18.083333 15.166667 H 18.708333 17.666667 V 14.333333 13.5 h 3.125 3.125 v 0.833333 0.833334 H 22.875 21.833333 V 18.083333 21 Z m 0,-0.416667 h 0.625 V 17.666667 14.75 H 22.458333 23.5 V 14.333333 13.916667 H 20.791667 18.083333 V 14.333333 14.75 H 19.125 20.166667 v 2.916667 2.916666 z M 27.458333,21 H 26 V 20.791667 20.583333 H 25.583333 25.166667 V 20.375 20.166667 H 24.958333 24.75 V 16.833333 13.5 h 0.833333 0.833334 V 16 18.5 H 26.625 26.833333 v 0.208333 0.208334 h 0.625 0.625 V 18.708333 18.5 H 28.291667 28.5 V 16 13.5 h 0.833333 0.833334 v 3.125 3.125 H 29.958333 29.75 v 0.416667 0.416666 H 29.333333 28.916667 V 20.791667 21 Z m 0,-0.416667 H 28.5 V 20.375 20.166667 h 0.416667 0.416666 V 19.75 19.333333 H 29.541667 29.75 V 16.625 13.916667 h -0.416667 -0.416666 v 2.5 2.5 H 28.708333 28.5 V 19.125 19.333333 H 27.458333 26.416667 V 19.125 18.916667 H 26.208333 26 v -2.5 -2.5 H 25.583333 25.166667 V 16.833333 19.75 H 25.375 25.583333 v 0.208333 0.208334 H 26 26.416667 V 20.375 20.583333 Z M 31.833333,21 H 31 V 17.875 14.75 h 0.208333 0.208334 V 14.541667 14.333333 H 31.625 31.833333 V 14.125 13.916667 H 32.041667 32.25 V 13.708333 13.5 h 1.25 1.25 v 0.208333 0.208334 h 0.208333 0.208334 V 14.125 14.333333 H 35.375 35.583333 V 14.541667 14.75 H 35.791667 36 V 17.875 21 H 35.166667 34.333333 V 19.75 18.5 H 33.5 32.666667 V 19.75 21 Z m 0,-0.416667 H 32.25 v -1.25 -1.25 h 1.25 1.25 v 1.25 1.25 h 0.416667 0.416666 V 17.875 15.166667 H 35.375 35.166667 V 14.958333 14.75 H 34.958333 34.75 V 14.541667 14.333333 H 34.541667 34.333333 V 14.125 13.916667 H 33.5 32.666667 V 14.125 14.333333 H 32.458333 32.25 V 14.541667 14.75 h -0.208333 -0.208334 v 0.208333 0.208334 H 31.625 31.416667 V 17.875 20.583333 Z M 33.5,17.25 h -1.25 v -1.041667 -1.041666 h 0.208333 0.208334 V 14.958333 14.75 H 33.5 34.333333 v 0.208333 0.208334 H 34.541667 34.75 V 16.208333 17.25 Z m 0,-0.416667 h 0.833333 v -0.625 -0.625 H 34.125 33.916667 V 15.375 15.166667 H 33.5 33.083333 V 15.375 15.583333 H 32.875 32.666667 v 0.625 0.625 z M 39.125,21 H 36.833333 V 17.25 13.5 H 37.875 38.916667 v 2.916667 2.916666 h 1.25 1.25 V 20.166667 21 Z m 0,-0.416667 H 41 V 20.166667 19.75 H 39.75 38.5 V 16.833333 13.916667 H 37.875 37.25 V 17.25 20.583333 Z"
       style="display:inline;fill:#400080;fill-opacity:1;stroke-width:0.0416667" />
    <path
       d="m 1.4166158,13.91674 v 1.249924 0.41664 h 0.4166413 v 1.66678 h 0.4166412 v 0.833283 h 0.4168566 v 1.249924 H 3.083396 v 0.833282 H 3.5000372 V 20.58343 H 3.9166785 V 20.166573 H 4.3333197 V 19.333291 H 4.749961 v -1.249924 h 0.4166412 v -0.833283 h 0.4166413 v -1.66678 H 6.0001 V 13.91674 H 5.1666022 v 1.249924 H 4.749961 v 1.666564 H 4.3333197 v 1.250139 H 3.9166785 v 1.249924 H 3.5000372 V 18.083367 H 3.083396 V 16.833228 H 2.6667549 v -1.249924 -0.41664 H 2.2498983 V 13.91674 Z m 6.2500491,0 v 0.833282 h 1.2499237 v 4.999909 H 7.6666649 V 20.58343 H 11.00001 V 19.749931 H 9.7500864 V 14.750022 H 11.00001 V 13.91674 Z m 4.9999101,0 v 0.833282 5.833408 h 0.833498 v -2.083422 h 0.416641 v 0.416641 h 0.416641 v 0.416642 h 0.416642 v 0.41664 h 0.41664 v 0.416642 h 0.416642 v 0.416857 h 1.250138 v -0.833499 h -0.416856 v -0.41664 h -0.833282 v -0.416642 h -0.416642 v -0.416641 h -0.41664 v -0.416641 h -0.416642 v -0.416641 h 1.249924 v -0.416642 h 0.416641 v -0.416856 h 0.416641 V 16.416587 14.750022 H 15.99992 V 14.33338 h -0.416641 v -0.41664 h -0.416642 z m 5.416766,0 v 0.833282 h 2.083422 v 5.833408 h 1.249923 v -5.833408 h 2.083207 V 13.91674 Z m 7.083332,0 v 4.999909 0.833282 h 0.416641 v 0.416642 h 0.833283 v 0.416857 h 2.083422 v -0.416857 h 0.833282 v -0.833282 h 0.416641 V 18.916649 13.91674 h -0.833283 v 4.999909 h -0.41664 v 0.416642 H 26.416597 V 18.916649 H 25.999955 V 13.91674 Z m 7.499973,0 v 0.41664 h -0.416641 v 0.416642 h -0.416642 v 0.416642 h -0.41664 v 5.416766 h 0.833282 v -2.500063 h 2.500063 v 2.500063 h 0.833282 v -5.416766 h -0.416642 v -0.416642 h -0.41664 V 14.33338 h -0.416642 v -0.41664 z m 4.583269,0 v 5.833191 0.833499 h 3.749986 V 19.749931 H 38.500054 V 13.91674 Z m -23.749842,0.833282 h 1.666564 v 0.416642 h 0.416642 v 1.249923 h -0.416642 v 0.416641 h -1.666564 z m 19.166573,0 h 1.66678 v 0.416642 h 0.416642 v 2.08342 h -2.500063 v -2.08342 h 0.416641 z"
       style="fill:#a000ff;fill-opacity:1;stroke:#000000;stroke-width:0;stroke-miterlimit:4;stroke-dasharray:none;stroke-opacity:1"
       id="rect1163" />
  </g>
  <g
     style="display:inline"
     inkscape:label="STUDIOS"
     id="layer7"
     inkscape:groupmode="layer">
    <path
       id="path1332"
       d="M 45.791667,21 H 43.5 v -0.833333 -0.833334 h 1.875 1.875 V 18.916667 18.5 H 47.041667 46.833333 V 18.291667 18.083333 H 46 45.166667 V 17.875 17.666667 H 44.958333 44.75 V 17.458333 17.25 H 44.541667 44.333333 V 17.041667 16.833333 H 44.125 43.916667 V 16.625 16.416667 H 43.708333 43.5 V 15.583333 14.75 h 0.208333 0.208334 V 14.541667 14.333333 H 44.125 44.333333 V 14.125 13.916667 H 44.541667 44.75 V 13.708333 13.5 h 2.291667 2.291666 v 0.833333 0.833334 h -1.875 -1.875 V 15.583333 16 H 45.791667 46 v 0.208333 0.208334 h 0.833333 0.833334 V 16.625 16.833333 H 47.875 48.083333 V 17.041667 17.25 H 48.291667 48.5 v 0.208333 0.208334 h 0.208333 0.208334 V 17.875 18.083333 H 49.125 49.333333 V 18.916667 19.75 H 49.125 48.916667 v 0.208333 0.208334 H 48.708333 48.5 V 20.375 20.583333 H 48.291667 48.083333 V 20.791667 21 Z m 0,-0.416667 h 1.875 V 20.375 20.166667 H 47.875 48.083333 V 19.958333 19.75 H 48.291667 48.5 v -0.208333 -0.208334 h 0.208333 0.208334 V 18.916667 18.5 H 48.708333 48.5 V 18.291667 18.083333 H 48.291667 48.083333 V 17.875 17.666667 H 47.875 47.666667 V 17.25 16.833333 H 46.625 45.583333 V 16.625 16.416667 H 45.375 45.166667 V 16.208333 16 H 44.958333 44.75 v -0.416667 -0.416666 h 0.208333 0.208334 V 14.958333 14.75 h 1.875 1.875 v -0.416667 -0.416666 h -1.875 -1.875 V 14.125 14.333333 H 44.958333 44.75 V 14.541667 14.75 h -0.208333 -0.208334 v 0.208333 0.208334 H 44.125 43.916667 V 15.583333 16 H 44.125 44.333333 v 0.208333 0.208334 H 44.541667 44.75 V 16.625 16.833333 h 0.208333 0.208334 V 17.041667 17.25 H 45.375 45.583333 v 0.208333 0.208334 H 46.416667 47.25 V 17.875 18.083333 h 0.208333 0.208334 V 18.291667 18.5 H 47.875 48.083333 v 0.416667 0.416666 H 47.875 47.666667 V 19.541667 19.75 h -1.875 -1.875 v 0.416667 0.416666 z M 53.291667,21 H 52.25 V 18.083333 15.166667 H 51.208333 50.166667 V 14.333333 13.5 h 3.125 3.125 v 0.833333 0.833334 H 55.375 54.333333 V 18.083333 21 Z m 0,-0.416667 h 0.625 V 17.666667 14.75 H 54.958333 56 V 14.333333 13.916667 H 53.291667 50.583333 V 14.333333 14.75 H 51.625 52.666667 v 2.916667 2.916666 z M 59.958333,21 H 58.5 V 20.791667 20.583333 H 58.083333 57.666667 V 20.375 20.166667 H 57.458333 57.25 V 16.833333 13.5 h 0.833333 0.833334 V 16 18.5 H 59.125 59.333333 v 0.208333 0.208334 h 0.625 0.625 V 18.708333 18.5 H 60.791667 61 V 16 13.5 h 0.833333 0.833334 v 3.125 3.125 H 62.458333 62.25 v 0.416667 0.416666 H 61.833333 61.416667 V 20.791667 21 Z m 0,-0.416667 H 61 V 20.375 20.166667 h 0.416667 0.416666 V 19.75 19.333333 H 62.041667 62.25 V 16.625 13.916667 h -0.416667 -0.416666 v 2.5 2.5 H 61.208333 61 V 19.125 19.333333 H 59.958333 58.916667 V 19.125 18.916667 H 58.708333 58.5 v -2.5 -2.5 H 58.083333 57.666667 V 16.833333 19.75 H 57.875 58.083333 v 0.208333 0.208334 H 58.5 58.916667 V 20.375 20.583333 Z m 5,0.416667 H 63.5 V 17.25 13.5 h 1.458333 1.458334 v 0.208333 0.208334 H 66.625 66.833333 V 14.125 14.333333 H 67.041667 67.25 V 14.541667 14.75 h 0.208333 0.208334 v 2.5 2.5 H 67.458333 67.25 v 0.208333 0.208334 H 67.041667 66.833333 V 20.375 20.583333 H 66.625 66.416667 V 20.791667 21 Z m 0,-0.416667 H 66 V 20.375 20.166667 h 0.208333 0.208334 V 19.958333 19.75 H 66.625 66.833333 V 19.541667 19.333333 H 67.041667 67.25 V 17.25 15.166667 H 67.041667 66.833333 V 14.958333 14.75 H 66.625 66.416667 V 14.541667 14.333333 H 66.208333 66 V 14.125 13.916667 H 64.958333 63.916667 V 17.25 20.583333 Z m 0.416667,-1.25 H 64.75 V 17.25 15.166667 H 65.375 66 V 15.375 15.583333 h 0.208333 0.208334 V 17.25 18.916667 H 66.208333 66 V 19.125 19.333333 Z m 0,-0.416666 h 0.208333 V 18.708333 18.5 H 65.791667 66 V 17.25 16 H 65.791667 65.583333 V 15.791667 15.583333 H 65.375 65.166667 V 17.25 18.916667 Z M 70.583333,21 H 68.5 v -0.833333 -0.833334 h 0.625 0.625 V 17.25 15.166667 H 69.125 68.5 V 14.333333 13.5 h 2.083333 2.083334 v 0.833333 0.833334 h -0.625 -0.625 V 17.25 19.333333 h 0.625 0.625 V 20.166667 21 Z m 0,-0.416667 H 72.25 V 20.166667 19.75 H 71.625 71 v -2.5 -2.5 h 0.625 0.625 V 14.333333 13.916667 H 70.583333 68.916667 V 14.333333 14.75 h 0.625 0.625 v 2.5 2.5 h -0.625 -0.625 v 0.416667 0.416666 z M 76.625,21 H 75.583333 V 20.791667 20.583333 H 75.166667 74.75 V 20.375 20.166667 H 74.541667 74.333333 V 19.958333 19.75 H 74.125 73.916667 V 19.125 18.5 H 73.708333 73.5 V 17.25 16 h 0.208333 0.208334 V 15.375 14.75 H 74.125 74.333333 V 14.541667 14.333333 H 74.541667 74.75 V 14.125 13.916667 h 0.416667 0.416666 V 13.708333 13.5 H 76.625 77.666667 v 0.208333 0.208334 H 78.083333 78.5 V 14.125 14.333333 h 0.208333 0.208334 V 14.541667 14.75 H 79.125 79.333333 V 15.375 16 H 79.541667 79.75 v 1.25 1.25 h -0.208333 -0.208334 v 0.625 0.625 H 79.125 78.916667 v 0.208333 0.208334 H 78.708333 78.5 V 20.375 20.583333 H 78.083333 77.666667 V 20.791667 21 Z m 0,-0.416667 H 77.25 V 20.375 20.166667 h 0.416667 0.416666 V 19.958333 19.75 H 78.291667 78.5 v -0.208333 -0.208334 h 0.208333 0.208334 v -0.625 -0.625 H 79.125 79.333333 V 17.25 16.416667 H 79.125 78.916667 v -0.625 -0.625 H 78.708333 78.5 V 14.958333 14.75 H 78.291667 78.083333 V 14.541667 14.333333 H 77.666667 77.25 V 14.125 13.916667 H 76.625 76 V 14.125 14.333333 H 75.583333 75.166667 V 14.541667 14.75 H 74.958333 74.75 v 0.208333 0.208334 h -0.208333 -0.208334 v 0.625 0.625 H 74.125 73.916667 V 17.25 18.083333 H 74.125 74.333333 v 0.625 0.625 H 74.541667 74.75 V 19.541667 19.75 h 0.208333 0.208334 v 0.208333 0.208334 H 75.583333 76 V 20.375 20.583333 Z m 0,-0.833333 H 76 V 19.541667 19.333333 H 75.791667 75.583333 V 19.125 18.916667 H 75.375 75.166667 V 18.5 18.083333 H 74.958333 74.75 V 17.25 16.416667 h 0.208333 0.208334 V 16 15.583333 H 75.375 75.583333 V 15.375 15.166667 H 75.791667 76 V 14.958333 14.75 h 0.625 0.625 v 0.208333 0.208334 h 0.208333 0.208334 V 15.375 15.583333 H 77.875 78.083333 V 16 16.416667 H 78.291667 78.5 V 17.25 18.083333 H 78.291667 78.083333 V 18.5 18.916667 H 77.875 77.666667 V 19.125 19.333333 H 77.458333 77.25 V 19.541667 19.75 Z m 0,-0.416667 h 0.208333 V 19.125 18.916667 H 77.041667 77.25 V 18.708333 18.5 h 0.208333 0.208334 V 18.083333 17.666667 H 77.875 78.083333 V 17.25 16.833333 H 77.875 77.666667 V 16.416667 16 H 77.458333 77.25 V 15.791667 15.583333 H 77.041667 76.833333 V 15.375 15.166667 H 76.625 76.416667 V 15.375 15.583333 H 76.208333 76 V 15.791667 16 h -0.208333 -0.208334 v 0.416667 0.416666 H 75.375 75.166667 V 17.25 17.666667 H 75.375 75.583333 V 18.083333 18.5 H 75.791667 76 v 0.208333 0.208334 h 0.208333 0.208334 V 19.125 19.333333 Z M 82.875,21 h -2.291667 v -0.833333 -0.833334 h 1.875 1.875 V 18.916667 18.5 H 84.125 83.916667 V 18.291667 18.083333 H 83.083333 82.25 V 17.875 17.666667 H 82.041667 81.833333 V 17.458333 17.25 H 81.625 81.416667 V 17.041667 16.833333 H 81.208333 81 V 16.625 16.416667 H 80.791667 80.583333 V 15.583333 14.75 H 80.791667 81 v -0.208333 -0.208334 h 0.208333 0.208334 V 14.125 13.916667 H 81.625 81.833333 V 13.708333 13.5 H 84.125 86.416667 v 0.833333 0.833334 h -1.875 -1.875 V 15.583333 16 H 82.875 83.083333 v 0.208333 0.208334 H 83.916667 84.75 V 16.625 16.833333 h 0.208333 0.208334 V 17.041667 17.25 H 85.375 85.583333 v 0.208333 0.208334 H 85.791667 86 V 17.875 18.083333 h 0.208333 0.208334 V 18.916667 19.75 H 86.208333 86 v 0.208333 0.208334 H 85.791667 85.583333 V 20.375 20.583333 H 85.375 85.166667 V 20.791667 21 Z m 0,-0.416667 H 84.75 V 20.375 20.166667 h 0.208333 0.208334 V 19.958333 19.75 H 85.375 85.583333 V 19.541667 19.333333 H 85.791667 86 V 18.916667 18.5 H 85.791667 85.583333 V 18.291667 18.083333 H 85.375 85.166667 V 17.875 17.666667 H 84.958333 84.75 V 17.25 16.833333 H 83.708333 82.666667 V 16.625 16.416667 H 82.458333 82.25 V 16.208333 16 H 82.041667 81.833333 V 15.583333 15.166667 H 82.041667 82.25 V 14.958333 14.75 H 84.125 86 V 14.333333 13.916667 H 84.125 82.25 V 14.125 14.333333 H 82.041667 81.833333 V 14.541667 14.75 H 81.625 81.416667 v 0.208333 0.208334 H 81.208333 81 V 15.583333 16 h 0.208333 0.208334 v 0.208333 0.208334 H 81.625 81.833333 V 16.625 16.833333 H 82.041667 82.25 V 17.041667 17.25 h 0.208333 0.208334 v 0.208333 0.208334 H 83.5 84.333333 V 17.875 18.083333 H 84.541667 84.75 V 18.291667 18.5 h 0.208333 0.208334 v 0.416667 0.416666 H 84.958333 84.75 V 19.541667 19.75 H 82.875 81 v 0.416667 0.416666 z"
       style="display:inline;fill:#408000;fill-opacity:1;stroke-width:0.0416667" />
    <path
       d="m 45.166745,13.91674 v 0.41664 h -0.416642 v 0.416642 h -0.416857 v 0.416642 h -0.416641 v 0.833282 h 0.416641 v 0.416641 h 0.416857 v 0.416641 h 0.416642 v 0.416856 h 0.41664 v 0.416642 h 1.666565 v 0.416641 h 0.416642 v 0.416641 h 0.41664 v 0.833283 h -0.41664 v 0.41664 h -3.749987 v 0.833499 h 3.749987 v -0.416857 h 0.41664 v -0.416642 h 0.416857 v -0.41664 h 0.416641 v -0.833283 h -0.416641 v -0.416641 h -0.416857 v -0.416641 h -0.41664 v -0.833498 h -2.083207 v -0.416641 h -0.41664 v -0.416641 h -0.416642 v -0.833282 h 0.416642 V 14.750022 H 48.91673 V 13.91674 Z m 5.416551,0 v 0.833282 h 2.083421 v 5.833408 h 1.249924 v -5.833408 h 2.083421 V 13.91674 Z m 7.083331,0 v 4.999909 0.833282 h 0.416641 v 0.416642 h 0.833498 v 0.416857 h 2.083206 v -0.416857 h 0.833282 v -0.833282 h 0.416642 V 13.91674 h -0.833282 v 4.999909 h -0.416642 v 0.416642 H 58.916766 V 18.916649 H 58.49991 V 13.91674 Z m 6.250049,0 v 1.249924 5.416766 h 0.833283 1.250139 v -0.416857 h 0.416641 v -0.416642 h 0.416641 v -0.41664 h 0.416641 V 18.916649 15.166664 H 66.83338 V 14.750022 H 66.416739 V 14.33338 h -0.416641 v -0.41664 z m 4.99991,0 v 0.833282 h 1.250139 v 4.999909 h -1.250139 v 0.833499 h 3.333345 v -0.833499 h -1.249924 v -4.999909 h 1.249924 V 13.91674 Z m 7.083332,0 v 0.41664 h -0.833282 v 0.416642 h -0.416642 v 0.416642 h -0.416642 v 1.249923 h -0.41664 v 1.66678 h 0.41664 v 1.249924 h 0.416642 v 0.41664 h 0.416642 v 0.416642 h 0.833282 v 0.416857 h 1.250138 v -0.416857 h 0.833283 v -0.416642 h 0.416641 v -0.41664 h 0.416641 v -1.249924 h 0.416642 v -1.66678 H 78.916621 V 15.166664 H 78.49998 V 14.750022 H 78.083339 V 14.33338 h -0.833283 v -0.41664 z m 6.250049,0 v 0.41664 h -0.416642 v 0.416642 h -0.41664 v 0.416642 h -0.416642 v 0.833282 h 0.416642 v 0.416641 h 0.41664 v 0.416641 h 0.416642 v 0.416856 h 0.416641 v 0.416642 h 1.666781 v 0.416641 h 0.41664 v 0.416641 h 0.416642 v 0.833283 h -0.416642 v 0.41664 h -3.749986 v 0.833499 h 3.749986 v -0.416857 h 0.416642 v -0.416642 h 0.416641 v -0.41664 h 0.416641 v -0.833283 h -0.416641 v -0.416641 h -0.416641 v -0.416641 h -0.416642 v -0.833498 h -2.083421 v -0.416641 h -0.416641 v -0.416641 h -0.416642 v -0.833282 h 0.416642 v -0.416642 h 3.749986 V 13.91674 Z m -6.250049,0.833282 h 1.250138 v 0.416642 h 0.416642 v 0.41664 h 0.416641 v 0.833283 h 0.416641 v 1.66678 h -0.416641 v 0.833282 h -0.416641 v 0.416642 h -0.416642 v 0.41664 h -1.250138 v -0.41664 h -0.416642 v -0.416642 h -0.41664 v -0.833282 h -0.416642 v -1.66678 h 0.416642 v -0.833283 h 0.41664 v -0.41664 h 0.416642 z m -11.249959,0.416642 h 1.250139 v 0.41664 h 0.416641 v 3.333345 h -0.416856 v 0.416642 h -1.249924 z"
       style="fill:#a0ff00;fill-opacity:1;stroke:#000000;stroke-width:0;stroke-miterlimit:4;stroke-dasharray:none;stroke-opacity:1"
       id="rect1335" />
  </g>
</svg>
