<?xml version="1.0" encoding="UTF-8" standalone="no"?>
<svg
   inkscape:version="1.2.2 (732a01da63, 2022-12-09)"
   sodipodi:docname="16 Bit Virtual Studios 10mm.svg"
   id="svg8"
   version="1.1"
   viewBox="0 0 42.708001 12"
   height="12mm"
   width="42.708mm"
   xmlns:inkscape="http://www.inkscape.org/namespaces/inkscape"
   xmlns:sodipodi="http://sodipodi.sourceforge.net/DTD/sodipodi-0.dtd"
   xmlns="http://www.w3.org/2000/svg"
   xmlns:svg="http://www.w3.org/2000/svg"
   xmlns:rdf="http://www.w3.org/1999/02/22-rdf-syntax-ns#"
   xmlns:cc="http://creativecommons.org/ns#"
   xmlns:dc="http://purl.org/dc/elements/1.1/">
  <defs
     id="defs2" />
  <sodipodi:namedview
     showguides="false"
     inkscape:window-maximized="1"
     inkscape:window-y="-8"
     inkscape:window-x="-8"
     inkscape:window-height="1017"
     inkscape:window-width="1920"
     showgrid="false"
     inkscape:document-rotation="0"
     inkscape:current-layer="layer3"
     inkscape:document-units="mm"
     inkscape:cy="47.749999"
     inkscape:cx="100.25"
     inkscape:zoom="4.0000001"
     inkscape:pageshadow="2"
     inkscape:pageopacity="0.0"
     borderopacity="1.0"
     bordercolor="#666666"
     pagecolor="#ffffff"
     id="base"
     inkscape:showpageshadow="2"
     inkscape:pagecheckerboard="0"
     inkscape:deskcolor="#d1d1d1" />
  <metadata
     id="metadata5">
    <rdf:RDF>
      <cc:Work
         rdf:about="">
        <dc:format>image/svg+xml</dc:format>
        <dc:type
           rdf:resource="http://purl.org/dc/dcmitype/StillImage" />
      </cc:Work>
    </rdf:RDF>
  </metadata>
  <g
     style="display:inline"
     inkscape:label="1"
     id="layer3"
     inkscape:groupmode="layer">
    <path
       id="path882"
       d="m 15.270833,6.625 h -1.5625 V 6.1041665 5.5833335 h 0.625 0.625 v -1.5625002 -1.5625 h -0.625 -0.625 V 2.25 2.0416667 H 13.8125 13.916667 V 1.9375 1.8333333 H 14.020833 14.125 V 1.7291667 1.625 h 0.104167 0.104166 V 1.5208333 1.4166667 H 14.4375 14.541667 V 1.3125 1.2083333 H 14.645833 14.75 V 1.1041667 1 H 15.375 16 v 2.2916667 2.2916668 h 0.416667 0.416666 V 6.1041665 6.625 Z m 0,-0.2083335 H 16.625 v -0.3125 -0.3125 H 16.208333 15.791667 V 3.5 1.2083333 H 15.375 14.958333 V 1.3125 1.4166667 H 14.854167 14.75 V 1.5208333 1.625 H 14.645833 14.541667 V 1.7291667 1.8333333 H 14.4375 14.333333 V 1.9375 2.0416667 H 14.229167 14.125 V 2.1458333 2.25 h 0.520833 0.520834 v 1.7708333 1.7708332 h -0.625 -0.625 v 0.3125 0.3125 z"
       style="fill:#008000;fill-opacity:1;stroke-width:0.0208333" />
    <path
       id="rect913"
       style="fill:#00ff00;fill-opacity:1;stroke:#000000;stroke-width:0;stroke-miterlimit:4;stroke-dasharray:none;stroke-opacity:1"
       d="m 14.958329,1.2083206 v 0.2083207 h -0.20832 v 0.2083206 h -0.20832 v 0.2083206 h -0.208321 v 0.2084282 h -0.208321 v 0.2083206 h 1.041604 V 5.791697 h -1.250032 v 0.624962 h 2.708384 V 5.791697 H 15.791719 V 2.2500313 2.0417107 1.8332825 1.6249619 1.4166413 1.2083206 Z" />
  </g>
  <g
     style="display:inline"
     inkscape:label="6"
     id="layer4"
     inkscape:groupmode="layer">
    <path
       id="path953"
       d="m 19.020833,6.625 h -0.9375 V 6.5208335 6.4166665 H 17.979167 17.875 V 6.3125 6.2083335 H 17.770833 17.666667 V 6.1041665 6 H 17.5625 17.458333 V 5.8958335 5.7916665 H 17.354167 17.25 V 3.8125 1.8333333 h 0.104167 0.104166 V 1.7291667 1.625 H 17.5625 17.666667 V 1.5208333 1.4166667 H 17.770833 17.875 V 1.3125 1.2083333 h 0.104167 0.104166 V 1.1041667 1 H 18.916667 19.75 v 0.1041667 0.1041666 h 0.104167 0.104166 V 1.3125 1.4166667 H 20.0625 20.166667 V 1.5208333 1.625 H 20.270833 20.375 v 0.1041667 0.1041666 h 0.104167 0.104166 V 2.3541667 2.875 H 20.0625 19.541667 V 2.6666667 2.4583333 H 19.4375 19.333333 V 2.3541667 2.25 h -0.3125 -0.3125 V 2.3541667 2.4583333 H 18.604167 18.5 V 2.5625 2.6666667 H 18.395833 18.291667 V 3.0833333 3.5 H 18.395833 18.5 V 3.3958333 3.2916667 h 0.625 0.625 V 3.3958333 3.5 h 0.104167 0.104166 V 3.6041667 3.7083333 H 20.0625 20.166667 V 3.8125 3.9166667 H 20.270833 20.375 V 4.0208333 4.125 h 0.104167 0.104166 V 5.0625 6 H 20.479167 20.375 v 0.1041665 0.104167 H 20.270833 20.166667 V 6.3125 6.4166665 H 20.0625 19.958333 V 6.5208335 6.625 Z m 0,-0.2083335 H 19.75 V 6.3125 6.2083335 h 0.104167 0.104166 V 6.1041665 6 H 20.0625 20.166667 V 5.8958335 5.7916665 H 20.270833 20.375 V 5.0625 4.3333333 H 20.270833 20.166667 V 4.2291667 4.125 H 20.0625 19.958333 V 4.0208333 3.9166667 H 19.854167 19.75 V 3.8125 3.7083333 H 19.645833 19.541667 V 3.6041667 3.5 H 19.125 18.708333 V 3.6041667 3.7083333 H 18.604167 18.5 V 3.8125 3.9166667 H 18.291667 18.083333 V 3.1875 2.4583333 H 18.1875 18.291667 V 2.3541667 2.25 H 18.395833 18.5 V 2.1458333 2.0416667 h 0.520833 0.520834 V 2.1458333 2.25 H 19.645833 19.75 v 0.2083333 0.2083334 h 0.3125 0.3125 v -0.3125 -0.3125 H 20.270833 20.166667 V 1.9375 1.8333333 H 20.0625 19.958333 V 1.7291667 1.625 H 19.854167 19.75 V 1.5208333 1.4166667 H 19.645833 19.541667 V 1.3125 1.2083333 h -0.625 -0.625 V 1.3125 1.4166667 H 18.1875 18.083333 V 1.5208333 1.625 H 17.979167 17.875 V 1.7291667 1.8333333 H 17.770833 17.666667 V 1.9375 2.0416667 H 17.5625 17.458333 V 3.8125 5.5833335 H 17.5625 17.666667 V 5.6875 5.7916665 H 17.770833 17.875 V 5.8958335 6 h 0.104167 0.104166 v 0.1041665 0.104167 H 18.1875 18.291667 V 6.3125 6.4166665 Z M 18.916667,6 H 18.5 V 5.8958335 5.7916665 H 18.395833 18.291667 V 5.6875 5.5833335 H 18.1875 18.083333 V 5.0625 4.5416667 H 18.1875 18.291667 V 4.4375 4.3333333 H 18.395833 18.5 V 4.2291667 4.125 h 0.416667 0.416666 V 4.2291667 4.3333333 H 19.4375 19.541667 V 4.4375 4.5416667 H 19.645833 19.75 V 5.0625 5.5833335 H 19.645833 19.541667 V 5.6875 5.7916665 H 19.4375 19.333333 V 5.8958335 6 Z m 0,-0.2083335 H 19.125 V 5.6875 5.5833335 h 0.104167 0.104166 V 5.4791667 5.375 H 19.4375 19.541667 V 5.0625 4.75 H 19.4375 19.333333 V 4.6458333 4.5416667 H 19.229167 19.125 V 4.4375 4.3333333 H 18.916667 18.708333 V 4.4375 4.5416667 H 18.604167 18.5 V 4.6458333 4.75 H 18.395833 18.291667 V 5.0625 5.375 H 18.395833 18.5 v 0.1041667 0.1041668 h 0.104167 0.104166 V 5.6875 5.7916665 Z"
       style="display:inline;fill:#000080;fill-opacity:1;stroke-width:0.0208333" />
    <path
       d="m 18.291623,1.2082961 v 0.2083206 h -0.208322 v 0.2083206 h -0.20832 v 0.2083206 h -0.20832 V 2.0416863 H 17.458233 V 5.583352 h 0.208428 v 0.2083205 h 0.20832 V 5.999993 h 0.20832 v 0.208321 h 0.208322 v 0.2083205 h 1.458352 V 6.208314 h 0.20832 V 5.999993 h 0.20832 V 5.7916725 h 0.208322 V 4.3333207 H 20.166615 V 4.125 h -0.20832 V 3.9166794 h -0.20832 V 3.7083587 h -0.208322 v -0.208428 h -0.20832 -0.62507 v 0.208428 h -0.20832 v 0.2083207 h -0.20832 -0.208322 V 2.4583275 h 0.208322 V 2.2500068 h 0.20832 V 2.0416863 h 1.04171 v 0.2083205 h 0.208322 v 0.4166413 h 0.624961 V 2.0416863 H 20.166615 V 1.8332579 h -0.20832 V 1.6249373 h -0.20832 V 1.4166167 H 19.541653 V 1.2082961 h -1.04171 z M 18.499943,4.125 h 0.83339 v 0.2083206 h 0.20832 v 0.2083207 h 0.208322 V 5.583352 h -0.208322 v 0.2083205 h -0.20832 V 5.999993 h -0.83339 V 5.7916725 h -0.20832 V 5.583352 H 18.083301 V 4.5416413 h 0.208322 V 4.3333206 h 0.20832 z"
       style="fill:#0000ff;fill-opacity:1;stroke:#000000;stroke-width:0;stroke-miterlimit:4;stroke-dasharray:none;stroke-opacity:1"
       id="rect982" />
  </g>
  <g
     style="display:inline"
     inkscape:label="BIT"
     id="layer5"
     inkscape:groupmode="layer">
    <path
       id="path1083"
       d="m 22.770833,6.625 h -0.9375 V 3.8125 1 h 0.9375 0.9375 V 1.1041667 1.2083333 H 23.8125 23.916667 V 1.3125 1.4166667 H 24.020833 24.125 V 1.5208333 1.625 h 0.104167 0.104166 V 2.5625 3.5 H 24.229167 24.125 V 3.6041667 3.7083333 H 24.020833 23.916667 V 3.8125 3.9166667 H 24.020833 24.125 V 4.0208333 4.125 h 0.104167 0.104166 V 5.0625 6 H 24.229167 24.125 v 0.1041665 0.104167 H 24.020833 23.916667 V 6.3125 6.4166665 H 23.8125 23.708333 V 6.5208335 6.625 Z m 0,-0.2083335 H 23.5 V 6.3125 6.2083335 h 0.104167 0.104166 V 6.1041665 6 H 23.8125 23.916667 V 5.8958335 5.7916665 H 24.020833 24.125 V 5.0625 4.3333333 H 24.020833 23.916667 V 4.2291667 4.125 H 23.8125 23.708333 V 4.0208333 3.9166667 H 23.604167 23.5 V 3.8125 3.7083333 H 23.395833 23.291667 V 3.6041667 3.5 h 0.3125 0.3125 V 3.3958333 3.2916667 H 24.020833 24.125 V 2.5625 1.8333333 H 24.020833 23.916667 V 1.7291667 1.625 H 23.8125 23.708333 V 1.5208333 1.4166667 H 23.604167 23.5 V 1.3125 1.2083333 H 22.770833 22.041667 V 3.8125 6.4166665 Z m 0.104167,-0.625 H 22.458333 V 4.9583333 4.125 H 22.875 23.291667 V 4.2291667 4.3333333 H 23.395833 23.5 v 0.625 0.6250002 H 23.395833 23.291667 V 5.6875 5.7916665 Z m 0,-0.208333 h 0.208333 V 5.4791667 5.375 H 23.1875 23.291667 V 4.9583333 4.5416667 H 23.1875 23.083333 V 4.4375 4.3333333 H 22.875 22.666667 v 0.625 0.6250002 z m 0,-2.5000002 H 22.458333 V 2.3541667 1.625 H 22.875 23.291667 V 1.7291667 1.8333333 H 23.395833 23.5 V 2.3541667 2.875 h -0.104167 -0.104166 v 0.1041667 0.1041666 z m 0,-0.2083333 h 0.208333 V 2.7708333 2.6666667 h 0.104167 0.104167 v -0.3125 -0.3125 H 23.1875 23.083333 V 1.9375 1.8333333 H 22.875 22.666667 V 2.3541667 2.875 Z m 3.333333,3.75 H 24.75 V 6.1041665 5.5833335 h 0.416667 0.416666 V 3.8125 2.0416667 H 25.166667 24.75 V 1.5208333 1 h 1.458333 1.458334 V 1.5208333 2.0416667 H 27.25 26.833333 V 3.8125 5.5833335 H 27.25 27.666667 V 6.1041665 6.625 Z m 0,-0.2083335 h 1.25 v -0.3125 -0.3125 H 27.041667 26.625 V 3.8125 1.8333333 h 0.416667 0.416666 v -0.3125 -0.3125 h -1.25 -1.25 v 0.3125 0.3125 H 25.375 25.791667 V 3.8125 5.7916665 H 25.375 24.958333 v 0.3125 0.3125 z M 29.541667,6.625 h -0.625 V 4.3333333 2.0416667 H 28.5 28.083333 V 1.5208333 1 H 29.541667 31 V 1.5208333 2.0416667 H 30.583333 30.166667 V 4.3333333 6.625 Z m 0,-0.2083335 h 0.416666 V 4.125 1.8333333 H 30.375 30.791667 v -0.3125 -0.3125 h -1.25 -1.25 v 0.3125 0.3125 H 28.708333 29.125 V 4.125 6.4166665 Z"
       style="display:inline;fill:#800080;fill-opacity:1;stroke-width:0.0208333" />
    <path
       d="M 22.041661,1.2083206 V 5.791697 6.416659 h 1.458352 V 6.2083385 h 0.208321 v -0.208321 h 0.208321 V 5.791697 h 0.20832 V 4.3333451 h -0.20832 V 4.1250245 H 23.708334 V 3.9167039 H 23.500013 V 3.7083833 h -0.20832 V 3.4999551 h 0.624962 V 3.2916345 h 0.20832 v -1.458352 h -0.20832 V 1.6249619 H 23.708334 V 1.4166413 H 23.500013 V 1.2083206 h -1.04171 z m 2.916704,0 v 0.6249619 h 0.833283 V 5.791697 h -0.833283 v 0.624962 h 2.499956 V 5.791697 H 26.625038 V 1.8332825 h 0.833283 V 1.2083206 Z m 3.333346,0 v 0.6249619 h 0.833282 V 6.416659 h 0.83339 V 1.8332825 h 0.833282 V 1.2083206 Z m -5.833408,0.4166413 h 0.83339 v 0.2083206 h 0.20832 v 1.0417107 h -0.20832 v 0.2083206 h -0.83339 z m 0,2.5000626 h 0.83339 v 0.2083206 h 0.20832 v 1.2500314 h -0.20832 V 5.791697 h -0.83339 z"
       style="fill:#ff00ff;fill-opacity:1;stroke:#000000;stroke-width:0;stroke-miterlimit:4;stroke-dasharray:none;stroke-opacity:1"
       id="rect1087" />
  </g>
  <g
     style="display:inline"
     inkscape:label="VIRTUAL"
     id="layer6"
     inkscape:groupmode="layer">
    <path
       id="path1159"
       d="m 2.3541667,11 h -0.3125 V 10.895833 10.791667 H 1.9375 1.8333333 V 10.583333 10.375 H 1.7291667 1.625 V 10.0625 9.75 H 1.5208333 1.4166667 V 9.5416667 9.3333333 H 1.3125 1.2083333 V 8.9166667 8.5 H 1.1041667 1 V 7.875 7.25 H 1.4166667 1.8333333 V 7.5625 7.875 H 1.9375 2.0416667 V 8.2916667 8.7083333 H 2.1458333 2.25 v 0.3125 0.3125 h 0.1041667 0.1041666 v -0.3125 -0.3125 H 2.5625 2.6666667 V 8.2916667 7.875 H 2.7708333 2.875 V 7.5625 7.25 H 3.2916667 3.7083333 V 7.875 8.5 H 3.6041667 3.5 V 8.9166667 9.3333333 H 3.3958333 3.2916667 V 9.5416667 9.75 H 3.1875 3.0833333 v 0.3125 0.3125 H 2.9791667 2.875 v 0.208333 0.208334 H 2.7708333 2.6666667 V 10.895833 11 Z m 0,-0.208333 H 2.4583333 V 10.6875 10.583333 H 2.5625 2.6666667 V 10.375 10.166667 H 2.7708333 2.875 v -0.3125003 -0.3125 H 2.9791667 3.0833333 V 9.3333333 9.125 H 3.1875 3.2916667 V 8.7083333 8.2916667 H 3.3958333 3.5 V 7.875 7.4583333 H 3.2916667 3.0833333 v 0.3125 0.3125 H 2.9791667 2.875 V 8.5 8.9166667 H 2.7708333 2.6666667 v 0.3125 0.3125 H 2.5625 2.4583333 v 0.3125 0.3125003 H 2.3541667 2.25 v -0.3125003 -0.3125 H 2.1458333 2.0416667 v -0.3125 -0.3125 H 1.9375 1.8333333 V 8.5 8.0833333 H 1.7291667 1.625 v -0.3125 -0.3125 H 1.4166667 1.2083333 V 7.875 8.2916667 H 1.3125 1.4166667 V 8.7083333 9.125 H 1.5208333 1.625 v 0.2083333 0.2083334 h 0.1041667 0.1041666 v 0.3125 0.3125003 H 1.9375 2.0416667 V 10.375 10.583333 H 2.1458333 2.25 V 10.6875 10.791667 Z M 5.1666667,11 H 4.125 V 10.583333 10.166667 H 4.4375 4.75 V 9.125 8.0833333 H 4.4375 4.125 V 7.6666667 7.25 h 1.0416667 1.0416668 v 0.4166667 0.4166666 h -0.3125 -0.3125 V 9.125 10.166667 h 0.3125 0.3125 V 10.583333 11 Z m 0,-0.208333 H 6 V 10.583333 10.375 H 5.6875 5.375 V 9.125 7.875 H 5.6875 6 V 7.6666667 7.4583333 H 5.1666667 4.3333333 V 7.6666667 7.875 h 0.3125 0.3125 v 1.25 1.25 h -0.3125 -0.3125 v 0.208333 0.208334 z M 7.0416667,11 H 6.625 V 9.125 7.25 H 7.5625 8.5 V 7.3541667 7.4583333 H 8.6041667 8.7083333 V 7.5625 7.6666667 H 8.8125 8.9166667 V 8.3958333 9.125 H 8.8125 8.7083333 V 9.2291667 9.3333333 H 8.6041667 8.5 V 9.4375 9.5416667 H 8.3958333 8.2916667 V 9.6458333 9.75 H 8.3958333 8.5 V 9.8541667 9.9583333 H 8.7083333 8.9166667 V 10.0625 10.166667 H 9.0208333 9.125 V 10.583333 11 H 8.6041667 8.0833333 V 10.895833 10.791667 H 7.9791667 7.875 V 10.6875 10.583333 H 7.7708333 7.6666667 V 10.479167 10.375 H 7.5625 7.4583333 V 10.6875 11 Z m 0,-0.208333 H 7.25 V 10.270833 9.75 H 7.3541667 7.4583333 V 9.8541667 9.9583333 H 7.5625 7.6666667 V 10.0625 10.166667 H 7.7708333 7.875 V 10.270833 10.375 h 0.1041667 0.1041666 v 0.104167 0.104166 H 8.1875 8.2916667 v 0.104167 0.104167 h 0.3125 0.3125 V 10.583333 10.375 H 8.8125 8.7083333 V 10.270833 10.166667 H 8.5 8.2916667 V 10.0625 9.9583333 H 8.1875 8.0833333 V 9.8541667 9.75 H 7.9791667 7.875 V 9.6458333 9.5416667 H 7.7708333 7.6666667 V 9.4375 9.3333333 h 0.3125 0.3125 V 9.2291667 9.125 H 8.3958333 8.5 V 9.0208333 8.9166667 H 8.6041667 8.7083333 V 8.3958333 7.875 H 8.6041667 8.5 V 7.7708333 7.6666667 H 8.3958333 8.2916667 V 7.5625 7.4583333 H 7.5625 6.8333335 V 9.125 10.791667 Z m 0.625,-1.8750003 H 7.25 V 8.3958333 7.875 H 7.6666667 8.0833333 V 7.9791667 8.0833333 H 8.1875 8.2916667 v 0.3125 0.3125 H 8.1875 8.0833333 V 8.8125 8.9166667 Z m 0,-0.2083334 H 7.875 V 8.6041667 8.5 H 7.9791667 8.0833333 V 8.3958333 8.2916667 H 7.9791667 7.875 V 8.1875 8.0833333 H 7.6666667 7.4583333 v 0.3125 0.3125 z M 10.895833,11 H 10.375 V 9.5416667 8.0833333 H 9.8541667 9.3333333 V 7.6666667 7.25 h 1.5624997 1.5625 V 7.6666667 8.0833333 H 11.9375 11.416667 V 9.5416667 11 Z m 0,-0.208333 h 0.3125 V 9.3333333 7.875 H 11.729167 12.25 V 7.6666667 7.4583333 H 10.895833 9.5416667 V 7.6666667 7.875 H 10.0625 10.583333 V 9.3333333 10.791667 Z M 14.229167,11 H 13.5 V 10.895833 10.791667 H 13.291667 13.083333 V 10.6875 10.583333 H 12.979167 12.875 V 8.9166667 7.25 h 0.416667 0.416666 V 8.5 9.75 h 0.104167 0.104167 v 0.1041667 0.1041666 h 0.3125 0.3125 V 9.8541667 9.75 H 14.645833 14.75 V 8.5 7.25 h 0.416667 0.416666 V 8.8125 10.375 H 15.479167 15.375 v 0.208333 0.208334 H 15.166667 14.958333 V 10.895833 11 Z m 0,-0.208333 H 14.75 V 10.6875 10.583333 h 0.208333 0.208334 V 10.375 10.166667 H 15.270833 15.375 V 8.8125 7.4583333 h -0.208333 -0.208334 v 1.25 1.25 H 14.854167 14.75 V 10.0625 10.166667 H 14.229167 13.708333 V 10.0625 9.9583333 H 13.604167 13.5 v -1.25 -1.25 H 13.291667 13.083333 V 8.9166667 10.375 h 0.104167 0.104167 v 0.104167 0.104166 H 13.5 13.708333 V 10.6875 10.791667 Z M 16.416667,11 H 16 V 9.4375 7.875 h 0.104167 0.104166 V 7.7708333 7.6666667 H 16.3125 16.416667 V 7.5625 7.4583333 H 16.520833 16.625 V 7.3541667 7.25 h 0.625 0.625 v 0.1041667 0.1041666 h 0.104167 0.104166 V 7.5625 7.6666667 H 18.1875 18.291667 V 7.7708333 7.875 H 18.395833 18.5 V 9.4375 11 H 18.083333 17.666667 V 10.375 9.75 H 17.25 16.833333 V 10.375 11 Z m 0,-0.208333 H 16.625 v -0.625 -0.6250003 h 0.625 0.625 v 0.6250003 0.625 h 0.208333 0.208334 V 9.4375 8.0833333 H 18.1875 18.083333 V 7.9791667 7.875 H 17.979167 17.875 V 7.7708333 7.6666667 H 17.770833 17.666667 V 7.5625 7.4583333 H 17.25 16.833333 V 7.5625 7.6666667 H 16.729167 16.625 V 7.7708333 7.875 H 16.520833 16.416667 V 7.9791667 8.0833333 H 16.3125 16.208333 V 9.4375 10.791667 Z M 17.25,9.125 H 16.625 V 8.6041667 8.0833333 h 0.104167 0.104166 V 7.9791667 7.875 H 17.25 17.666667 V 7.9791667 8.0833333 H 17.770833 17.875 V 8.6041667 9.125 Z m 0,-0.2083333 h 0.416667 v -0.3125 -0.3125 H 17.5625 17.458333 V 8.1875 8.0833333 H 17.25 17.041667 V 8.1875 8.2916667 H 16.9375 16.833333 v 0.3125 0.3125 z M 20.0625,11 H 18.916667 V 9.125 7.25 h 0.520833 0.520833 v 1.4583333 1.4583337 h 0.625 0.625 V 10.583333 11 Z m 0,-0.208333 H 21 V 10.583333 10.375 H 20.375 19.75 V 8.9166667 7.4583333 H 19.4375 19.125 V 9.125 10.791667 Z"
       style="display:inline;fill:#400080;fill-opacity:1;stroke-width:0.0208333" />
    <path
       d="m 1.2083079,7.45837 v 0.624962 0.20832 h 0.2083206 v 0.83339 H 1.6249491 V 9.5416833 H 1.8333775 V 10.166645 H 2.041698 v 0.416642 h 0.2083206 v 0.208428 H 2.4583393 V 10.583287 H 2.6666599 V 10.166645 H 2.8749805 V 9.5416833 H 3.0833011 V 9.125042 H 3.2916217 V 8.291652 H 3.50005 V 7.45837 H 3.0833011 V 8.083332 H 2.8749805 V 8.916614 H 2.6666599 V 9.5416833 H 2.4583393 V 10.166645 H 2.2500186 V 9.5416833 H 2.041698 V 8.916614 H 1.8333775 V 8.291652 8.083332 H 1.6249491 V 7.45837 Z m 3.1250246,0 V 7.8750113 H 4.9582943 V 10.374965 H 4.3333325 v 0.41675 H 6.000005 v -0.41675 H 5.3750432 V 7.8750113 H 6.000005 V 7.45837 Z m 2.499955,0 V 7.8750113 10.791715 H 7.2500367 V 9.750004 h 0.2083206 v 0.2083207 h 0.20832 v 0.2083203 h 0.2083214 v 0.20832 h 0.20832 v 0.208322 h 0.2083206 v 0.208428 h 0.6250694 v -0.41675 h -0.208428 v -0.20832 H 8.2916393 V 9.9583247 H 8.0833187 V 9.750004 h -0.20832 V 9.5416833 H 7.6666773 v -0.20832 h 0.624962 V 9.125042 H 8.49996 V 8.916614 H 8.7082807 V 8.7082933 7.8750113 H 8.49996 V 7.66669 H 8.2916393 V 7.45837 H 8.0833187 Z m 2.7083832,0 v 0.4166413 h 1.0417103 v 2.9167037 h 0.624962 V 7.8750113 h 1.041604 V 7.45837 Z m 3.5416663,0 v 2.4999547 0.4166403 h 0.20832 v 0.208322 h 0.416642 v 0.208428 h 1.04171 v -0.208428 h 0.416642 v -0.416642 h 0.20832 V 9.9583247 7.45837 h -0.416642 v 2.4999547 h -0.20832 v 0.2083203 h -1.04171 V 9.9583247 H 13.499977 V 7.45837 Z m 3.749986,0 v 0.20832 h -0.20832 V 7.8750113 H 16.416681 V 8.083332 h -0.20832 v 2.708383 h 0.416642 V 9.5416833 h 1.250031 v 1.2500317 h 0.416641 V 8.083332 H 18.083354 V 7.8750113 h -0.20832 V 7.66669 H 17.666713 V 7.45837 Z m 2.291634,0 v 2.916595 0.41675 h 1.874994 v -0.41675 H 19.750027 V 7.45837 Z M 7.2500367,7.8750113 h 0.833282 V 8.083332 H 8.2916393 V 8.7082933 H 8.0833187 V 8.916614 h -0.833282 z m 9.5832863,0 h 0.83339 V 8.083332 h 0.208321 v 1.04171 h -1.250031 v -1.04171 h 0.20832 z"
       style="fill:#a000ff;fill-opacity:1;stroke:#000000;stroke-width:0;stroke-miterlimit:4;stroke-dasharray:none;stroke-opacity:1"
       id="rect1163" />
  </g>
  <g
     style="display:inline"
     inkscape:label="STUDIOS"
     id="layer7"
     inkscape:groupmode="layer">
    <path
       id="path1332"
       d="M 23.395833,11 H 22.25 v -0.416667 -0.416666 h 0.9375 0.9375 V 9.9583333 9.75 H 24.020833 23.916667 V 9.6458333 9.5416667 H 23.5 23.083333 V 9.4375 9.3333333 H 22.979167 22.875 V 9.2291667 9.125 H 22.770833 22.666667 V 9.0208333 8.9166667 H 22.5625 22.458333 V 8.8125 8.7083333 H 22.354167 22.25 V 8.2916667 7.875 h 0.104167 0.104166 V 7.7708333 7.6666667 H 22.5625 22.666667 V 7.5625 7.4583333 H 22.770833 22.875 V 7.3541667 7.25 h 1.145833 1.145834 v 0.4166667 0.4166666 h -0.9375 -0.9375 V 8.2916667 8.5 H 23.395833 23.5 v 0.1041667 0.1041666 h 0.416667 0.416666 V 8.8125 8.9166667 H 24.4375 24.541667 V 9.0208333 9.125 H 24.645833 24.75 v 0.1041667 0.1041666 h 0.104167 0.104166 V 9.4375 9.5416667 H 25.0625 25.166667 V 9.9583333 10.375 H 25.0625 24.958333 v 0.104167 0.104166 H 24.854167 24.75 V 10.6875 10.791667 H 24.645833 24.541667 V 10.895833 11 Z m 0,-0.208333 h 0.9375 V 10.6875 10.583333 H 24.4375 24.541667 V 10.479167 10.375 H 24.645833 24.75 v -0.104167 -0.104166 h 0.104167 0.104166 V 9.9583333 9.75 H 24.854167 24.75 V 9.6458333 9.5416667 H 24.645833 24.541667 V 9.4375 9.3333333 H 24.4375 24.333333 V 9.125 8.9166667 H 23.8125 23.291667 V 8.8125 8.7083333 H 23.1875 23.083333 V 8.6041667 8.5 H 22.979167 22.875 V 8.2916667 8.0833333 h 0.104167 0.104166 V 7.9791667 7.875 h 0.9375 0.9375 V 7.6666667 7.4583333 h -0.9375 -0.9375 V 7.5625 7.6666667 H 22.979167 22.875 V 7.7708333 7.875 H 22.770833 22.666667 V 7.9791667 8.0833333 H 22.5625 22.458333 V 8.2916667 8.5 H 22.5625 22.666667 V 8.6041667 8.7083333 H 22.770833 22.875 V 8.8125 8.9166667 h 0.104167 0.104166 V 9.0208333 9.125 H 23.1875 23.291667 V 9.2291667 9.3333333 H 23.708333 24.125 V 9.4375 9.5416667 h 0.104167 0.104166 V 9.6458333 9.75 H 24.4375 24.541667 V 9.9583333 10.166667 H 24.4375 24.333333 V 10.270833 10.375 h -0.9375 -0.9375 v 0.208333 0.208334 z M 27.145833,11 H 26.625 V 9.5416667 8.0833333 H 26.104167 25.583333 V 7.6666667 7.25 h 1.5625 1.5625 V 7.6666667 8.0833333 H 28.1875 27.666667 V 9.5416667 11 Z m 0,-0.208333 h 0.3125 V 9.3333333 7.875 H 27.979167 28.5 V 7.6666667 7.4583333 H 27.145833 25.791667 V 7.6666667 7.875 H 26.3125 26.833333 V 9.3333333 10.791667 Z M 30.479167,11 H 29.75 V 10.895833 10.791667 H 29.541667 29.333333 V 10.6875 10.583333 H 29.229167 29.125 V 8.9166667 7.25 h 0.416667 0.416666 V 8.5 9.75 h 0.104167 0.104167 v 0.1041667 0.1041666 h 0.3125 0.3125 V 9.8541667 9.75 H 30.895833 31 V 8.5 7.25 h 0.416667 0.416666 V 8.8125 10.375 H 31.729167 31.625 v 0.208333 0.208334 H 31.416667 31.208333 V 10.895833 11 Z m 0,-0.208333 H 31 V 10.6875 10.583333 h 0.208333 0.208334 V 10.375 10.166667 H 31.520833 31.625 V 8.8125 7.4583333 h -0.208333 -0.208334 v 1.25 1.25 H 31.104167 31 V 10.0625 10.166667 H 30.479167 29.958333 V 10.0625 9.9583333 H 29.854167 29.75 v -1.25 -1.25 H 29.541667 29.333333 V 8.9166667 10.375 h 0.104167 0.104167 v 0.104167 0.104166 H 29.75 29.958333 V 10.6875 10.791667 Z M 32.979167,11 H 32.25 V 9.125 7.25 h 0.729167 0.729166 V 7.3541667 7.4583333 H 33.8125 33.916667 V 7.5625 7.6666667 H 34.020833 34.125 V 7.7708333 7.875 h 0.104167 0.104166 v 1.25 1.25 H 34.229167 34.125 v 0.104167 0.104166 H 34.020833 33.916667 V 10.6875 10.791667 H 33.8125 33.708333 V 10.895833 11 Z m 0,-0.208333 H 33.5 V 10.6875 10.583333 h 0.104167 0.104166 V 10.479167 10.375 H 33.8125 33.916667 V 10.270833 10.166667 H 34.020833 34.125 V 9.125 8.0833333 H 34.020833 33.916667 V 7.9791667 7.875 H 33.8125 33.708333 V 7.7708333 7.6666667 H 33.604167 33.5 V 7.5625 7.4583333 H 32.979167 32.458333 V 9.125 10.791667 Z m 0.208333,-0.625 H 32.875 V 9.125 8.0833333 H 33.1875 33.5 V 8.1875 8.2916667 h 0.104167 0.104166 V 9.125 9.9583333 H 33.604167 33.5 V 10.0625 10.166667 Z m 0,-0.2083337 h 0.104167 V 9.8541667 9.75 H 33.395833 33.5 V 9.125 8.5 H 33.395833 33.291667 V 8.3958333 8.2916667 H 33.1875 33.083333 V 9.125 9.9583333 Z M 35.791667,11 H 34.75 v -0.416667 -0.416666 h 0.3125 0.3125 V 9.125 8.0833333 H 35.0625 34.75 V 7.6666667 7.25 h 1.041667 1.041666 v 0.4166667 0.4166666 h -0.3125 -0.3125 V 9.125 10.166667 h 0.3125 0.3125 V 10.583333 11 Z m 0,-0.208333 H 36.625 V 10.583333 10.375 H 36.3125 36 v -1.25 -1.25 h 0.3125 0.3125 V 7.6666667 7.4583333 H 35.791667 34.958333 V 7.6666667 7.875 h 0.3125 0.3125 v 1.25 1.25 h -0.3125 -0.3125 v 0.208333 0.208334 z M 38.8125,11 H 38.291667 V 10.895833 10.791667 H 38.083333 37.875 V 10.6875 10.583333 H 37.770833 37.666667 V 10.479167 10.375 H 37.5625 37.458333 V 10.0625 9.75 H 37.354167 37.25 V 9.125 8.5 h 0.104167 0.104166 V 8.1875 7.875 H 37.5625 37.666667 V 7.7708333 7.6666667 H 37.770833 37.875 V 7.5625 7.4583333 h 0.208333 0.208334 V 7.3541667 7.25 H 38.8125 39.333333 V 7.3541667 7.4583333 H 39.541667 39.75 V 7.5625 7.6666667 h 0.104167 0.104166 V 7.7708333 7.875 H 40.0625 40.166667 V 8.1875 8.5 H 40.270833 40.375 V 9.125 9.75 h -0.104167 -0.104166 v 0.3125 0.3125 H 40.0625 39.958333 v 0.104167 0.104166 H 39.854167 39.75 V 10.6875 10.791667 H 39.541667 39.333333 V 10.895833 11 Z m 0,-0.208333 H 39.125 V 10.6875 10.583333 h 0.208333 0.208334 V 10.479167 10.375 H 39.645833 39.75 v -0.104167 -0.104166 h 0.104167 0.104166 v -0.3125003 -0.3125 H 40.0625 40.166667 V 9.125 8.7083333 H 40.0625 39.958333 v -0.3125 -0.3125 H 39.854167 39.75 V 7.9791667 7.875 H 39.645833 39.541667 V 7.7708333 7.6666667 H 39.333333 39.125 V 7.5625 7.4583333 H 38.8125 38.5 V 7.5625 7.6666667 H 38.291667 38.083333 V 7.7708333 7.875 H 37.979167 37.875 v 0.1041667 0.1041666 h -0.104167 -0.104166 v 0.3125 0.3125 H 37.5625 37.458333 V 9.125 9.5416667 h 0.104167 0.104167 v 0.3125 0.3125003 H 37.770833 37.875 V 10.270833 10.375 h 0.104167 0.104166 v 0.104167 0.104166 H 38.291667 38.5 v 0.104167 0.104167 z m 0,-0.416667 H 38.5 V 10.270833 10.166667 H 38.395833 38.291667 V 10.0625 9.9583333 H 38.1875 38.083333 V 9.75 9.5416667 H 37.979167 37.875 V 9.125 8.7083333 h 0.104167 0.104166 V 8.5 8.2916667 H 38.1875 38.291667 V 8.1875 8.0833333 H 38.395833 38.5 V 7.9791667 7.875 h 0.3125 0.3125 v 0.1041667 0.1041666 h 0.104167 0.104166 V 8.1875 8.2916667 H 39.4375 39.541667 V 8.5 8.7083333 H 39.645833 39.75 V 9.125 9.5416667 H 39.645833 39.541667 V 9.75 9.9583333 H 39.4375 39.333333 V 10.0625 10.166667 H 39.229167 39.125 V 10.270833 10.375 Z m 0,-0.208333 h 0.104167 V 10.0625 9.9583333 H 39.020833 39.125 V 9.8541667 9.75 h 0.104167 0.104166 V 9.5416667 9.3333333 H 39.4375 39.541667 V 9.125 8.9166667 H 39.4375 39.333333 V 8.7083333 8.5 H 39.229167 39.125 V 8.3958333 8.2916667 H 39.020833 38.916667 V 8.1875 8.0833333 H 38.8125 38.708333 V 8.1875 8.2916667 H 38.604167 38.5 V 8.3958333 8.5 H 38.395833 38.291667 V 8.7083333 8.9166667 H 38.1875 38.083333 V 9.125 9.3333333 H 38.1875 38.291667 V 9.5416667 9.75 H 38.395833 38.5 v 0.1041667 0.1041666 h 0.104167 0.104166 V 10.0625 10.166667 Z M 41.9375,11 h -1.145833 v -0.416667 -0.416666 h 0.9375 0.9375 V 9.9583333 9.75 H 42.5625 42.458333 V 9.6458333 9.5416667 H 42.041667 41.625 V 9.4375 9.3333333 H 41.520833 41.416667 V 9.2291667 9.125 H 41.3125 41.208333 V 9.0208333 8.9166667 H 41.104167 41 V 8.8125 8.7083333 H 40.895833 40.791667 V 8.2916667 7.875 H 40.895833 41 V 7.7708333 7.6666667 h 0.104167 0.104166 V 7.5625 7.4583333 H 41.3125 41.416667 V 7.3541667 7.25 h 1.145833 1.145833 v 0.4166667 0.4166666 h -0.9375 -0.9375 V 8.2916667 8.5 H 41.9375 42.041667 V 8.6041667 8.7083333 H 42.458333 42.875 V 8.8125 8.9166667 h 0.104167 0.104166 V 9.0208333 9.125 H 43.1875 43.291667 V 9.2291667 9.3333333 H 43.395833 43.5 V 9.4375 9.5416667 h 0.104167 0.104166 V 9.9583333 10.375 H 43.604167 43.5 v 0.104167 0.104166 H 43.395833 43.291667 V 10.6875 10.791667 H 43.1875 43.083333 V 10.895833 11 Z m 0,-0.208333 H 42.875 V 10.6875 10.583333 h 0.104167 0.104166 V 10.479167 10.375 H 43.1875 43.291667 V 10.270833 10.166667 H 43.395833 43.5 V 9.9583333 9.75 H 43.395833 43.291667 V 9.6458333 9.5416667 H 43.1875 43.083333 V 9.4375 9.3333333 H 42.979167 42.875 V 9.125 8.9166667 H 42.354167 41.833333 V 8.8125 8.7083333 H 41.729167 41.625 V 8.6041667 8.5 H 41.520833 41.416667 V 8.2916667 8.0833333 H 41.520833 41.625 V 7.9791667 7.875 H 42.5625 43.5 V 7.6666667 7.4583333 H 42.5625 41.625 V 7.5625 7.6666667 H 41.520833 41.416667 V 7.7708333 7.875 H 41.3125 41.208333 V 7.9791667 8.0833333 H 41.104167 41 V 8.2916667 8.5 h 0.104167 0.104166 V 8.6041667 8.7083333 H 41.3125 41.416667 V 8.8125 8.9166667 H 41.520833 41.625 V 9.0208333 9.125 h 0.104167 0.104166 V 9.2291667 9.3333333 H 42.25 42.666667 V 9.4375 9.5416667 H 42.770833 42.875 V 9.6458333 9.75 h 0.104167 0.104166 V 9.9583333 10.166667 H 42.979167 42.875 V 10.270833 10.375 H 41.9375 41 v 0.208333 0.208334 z"
       style="display:inline;fill:#408000;fill-opacity:1;stroke-width:0.0208333" />
    <path
       d="M 23.083373,7.45837 V 7.66669 H 22.875051 V 7.8750113 H 22.666623 V 8.083332 h -0.20832 v 0.4166413 h 0.20832 v 0.20832 h 0.208428 V 8.916614 h 0.208322 v 0.208428 h 0.20832 v 0.2083213 h 0.833282 v 0.20832 h 0.208321 V 9.750004 h 0.20832 v 0.416641 h -0.20832 v 0.20832 h -1.874993 v 0.41675 h 1.874993 v -0.208428 h 0.20832 v -0.208322 h 0.208429 v -0.20832 h 0.20832 V 9.750004 h -0.20832 V 9.5416833 h -0.208429 v -0.20832 h -0.20832 V 8.916614 H 23.291693 V 8.7082933 h -0.20832 v -0.20832 H 22.875051 V 8.083332 h 0.208322 V 7.8750113 h 1.874992 V 7.45837 Z m 2.708275,0 v 0.4166413 h 1.041711 v 2.9167037 h 0.624962 V 7.8750113 h 1.04171 V 7.45837 Z m 3.541665,0 v 2.4999547 0.4166403 h 0.208321 v 0.208322 h 0.416749 v 0.208428 h 1.041603 v -0.208428 h 0.416641 v -0.416642 h 0.208321 V 7.45837 H 31.208307 V 9.9583247 H 30.999986 V 10.166645 H 29.958383 V 9.9583247 H 29.749955 V 7.45837 Z m 3.125025,0 v 0.624962 2.708383 h 0.416641 0.62507 v -0.208428 h 0.20832 v -0.208322 h 0.208321 v -0.20832 h 0.208321 V 9.9583247 8.083332 H 33.91669 V 7.8750113 H 33.708369 V 7.66669 h -0.20832 V 7.45837 Z m 2.499955,0 v 0.4166413 h 0.62507 v 2.4999537 h -0.62507 v 0.41675 h 1.666672 v -0.41675 H 36.000003 V 7.8750113 h 0.624962 V 7.45837 Z m 3.541666,0 V 7.66669 H 38.083318 V 7.8750113 H 37.874997 V 8.083332 h -0.208321 v 0.6249613 h -0.20832 v 0.83339 h 0.20832 v 0.6249617 h 0.208321 v 0.20832 h 0.208321 v 0.208322 h 0.416641 v 0.208428 h 0.625069 v -0.208428 h 0.416641 v -0.208322 h 0.208321 v -0.20832 h 0.208321 V 9.5416833 h 0.20832 v -0.83339 h -0.20832 V 8.083332 H 39.74999 V 7.8750113 H 39.541669 V 7.66669 H 39.125028 V 7.45837 Z m 3.125024,0 v 0.20832 h -0.20832 v 0.2083213 h -0.20832 V 8.083332 h -0.208322 v 0.4166413 h 0.208322 v 0.20832 h 0.20832 V 8.916614 h 0.20832 v 0.208428 h 0.208321 v 0.2083213 h 0.833391 v 0.20832 h 0.20832 V 9.750004 h 0.20832 v 0.416641 h -0.20832 v 0.20832 h -1.874994 v 0.41675 h 1.874994 v -0.208428 h 0.20832 v -0.208322 h 0.208321 v -0.20832 h 0.208321 V 9.750004 H 43.291656 V 9.5416833 h -0.208321 v -0.20832 h -0.20832 V 8.916614 H 41.833304 V 8.7082933 h -0.208321 v -0.20832 h -0.20832 V 8.083332 h 0.20832 V 7.8750113 h 1.874994 V 7.45837 Z m -3.125024,0.4166413 h 0.625069 V 8.083332 h 0.208321 v 0.20832 h 0.20832 v 0.4166413 h 0.208321 v 0.83339 h -0.208321 v 0.4166414 h -0.20832 v 0.2083203 h -0.208321 v 0.20832 h -0.625069 v -0.20832 H 38.291638 V 9.9583247 h -0.20832 V 9.5416833 h -0.208321 v -0.83339 h 0.208321 V 8.291652 h 0.20832 v -0.20832 h 0.208321 z m -5.62498,0.2083207 h 0.62507 v 0.20832 h 0.20832 v 1.6666727 h -0.208428 v 0.2083203 h -0.624962 z"
       style="fill:#a0ff00;fill-opacity:1;stroke:#000000;stroke-width:0;stroke-miterlimit:4;stroke-dasharray:none;stroke-opacity:1"
       id="rect1335" />
  </g>
</svg>
