<?xml version="1.0" encoding="UTF-8" standalone="no"?>
<svg
   inkscape:version="1.2.2 (732a01da63, 2022-12-09)"
   sodipodi:docname="16 Bit Virtual Studios 15mm.svg"
   id="svg8"
   version="1.1"
   viewBox="0 0 66.061997 17"
   height="17mm"
   width="66.061996mm"
   xmlns:inkscape="http://www.inkscape.org/namespaces/inkscape"
   xmlns:sodipodi="http://sodipodi.sourceforge.net/DTD/sodipodi-0.dtd"
   xmlns="http://www.w3.org/2000/svg"
   xmlns:svg="http://www.w3.org/2000/svg"
   xmlns:rdf="http://www.w3.org/1999/02/22-rdf-syntax-ns#"
   xmlns:cc="http://creativecommons.org/ns#"
   xmlns:dc="http://purl.org/dc/elements/1.1/">
  <defs
     id="defs2" />
  <sodipodi:namedview
     showguides="false"
     inkscape:window-maximized="1"
     inkscape:window-y="-8"
     inkscape:window-x="-8"
     inkscape:window-height="1017"
     inkscape:window-width="1920"
     showgrid="false"
     inkscape:document-rotation="0"
     inkscape:current-layer="layer3"
     inkscape:document-units="mm"
     inkscape:cy="51.749999"
     inkscape:cx="164.75"
     inkscape:zoom="4.0000001"
     inkscape:pageshadow="2"
     inkscape:pageopacity="0.0"
     borderopacity="1.0"
     bordercolor="#666666"
     pagecolor="#ffffff"
     id="base"
     inkscape:showpageshadow="2"
     inkscape:pagecheckerboard="0"
     inkscape:deskcolor="#d1d1d1" />
  <metadata
     id="metadata5">
    <rdf:RDF>
      <cc:Work
         rdf:about="">
        <dc:format>image/svg+xml</dc:format>
        <dc:type
           rdf:resource="http://purl.org/dc/dcmitype/StillImage" />
      </cc:Work>
    </rdf:RDF>
  </metadata>
  <g
     style="display:inline"
     inkscape:label="1"
     id="layer3"
     inkscape:groupmode="layer">
    <path
       id="path882"
       d="M 22.40625,9.4375 H 20.0625 V 8.6562498 7.8750003 H 21 21.9375 V 5.53125 3.1875 H 21 20.0625 V 2.875 2.5625 H 20.21875 20.375 V 2.40625 2.25 h 0.15625 0.15625 V 2.09375 1.9375 H 20.84375 21 V 1.78125 1.625 h 0.15625 0.15625 V 1.46875 1.3125 H 21.46875 21.625 V 1.15625 1 H 22.5625 23.5 v 3.4375 3.4375003 h 0.625 0.625 V 8.6562498 9.4375 Z m 0,-0.3125002 h 2.03125 v -0.46875 -0.46875 h -0.625 -0.625 V 4.75 1.3125 h -0.625 -0.625 V 1.46875 1.625 H 21.78125 21.625 V 1.78125 1.9375 H 21.46875 21.3125 V 2.09375 2.25 H 21.15625 21 V 2.40625 2.5625 H 20.84375 20.6875 V 2.71875 2.875 H 21.46875 22.25 V 5.53125 8.1874998 H 21.3125 20.375 v 0.46875 0.46875 z"
       style="fill:#008000;fill-opacity:1;stroke-width:0.03125" />
    <path
       id="rect913"
       style="fill:#00ff00;fill-opacity:1;stroke:#000000;stroke-width:0;stroke-miterlimit:4;stroke-dasharray:none;stroke-opacity:1"
       d="m 21.937494,1.3124809 v 0.312481 h -0.31248 v 0.3124809 h -0.312481 v 0.312481 H 21.000052 V 2.5625661 H 20.687571 V 2.875047 h 1.562405 v 5.3124985 h -1.875047 v 0.937443 h 4.062575 V 8.1875455 H 23.187579 V 2.875047 2.5625661 2.2499238 1.9374428 1.6249619 1.3124809 Z" />
  </g>
  <g
     style="display:inline"
     inkscape:label="6"
     id="layer4"
     inkscape:groupmode="layer">
    <path
       id="path953"
       d="M 28.03125,9.4375 H 26.625 V 9.2812503 9.1249998 H 26.46875 26.3125 V 8.96875 8.8125003 H 26.15625 26 V 8.6562498 8.5 H 25.84375 25.6875 V 8.3437503 8.1874998 H 25.53125 25.375 V 5.21875 2.25 h 0.15625 0.15625 V 2.09375 1.9375 H 25.84375 26 V 1.78125 1.625 h 0.15625 0.15625 V 1.46875 1.3125 H 26.46875 26.625 V 1.15625 1 h 1.25 1.25 V 1.15625 1.3125 h 0.15625 0.15625 V 1.46875 1.625 H 29.59375 29.75 V 1.78125 1.9375 h 0.15625 0.15625 V 2.09375 2.25 H 30.21875 30.375 V 3.03125 3.8125 H 29.59375 28.8125 V 3.5 3.1875 H 28.65625 28.5 V 3.03125 2.875 H 28.03125 27.5625 V 3.03125 3.1875 H 27.40625 27.25 V 3.34375 3.5 H 27.09375 26.9375 V 4.125 4.75 H 27.09375 27.25 V 4.59375 4.4375 h 0.9375 0.9375 V 4.59375 4.75 h 0.15625 0.15625 V 4.90625 5.0625 H 29.59375 29.75 V 5.21875 5.375 h 0.15625 0.15625 V 5.53125 5.6875 H 30.21875 30.375 V 7.09375 8.5 H 30.21875 30.0625 V 8.6562498 8.8125003 H 29.90625 29.75 V 8.96875 9.1249998 H 29.59375 29.4375 V 9.2812503 9.4375 Z m 0,-0.3125002 H 29.125 V 8.96875 8.8125003 h 0.15625 0.15625 V 8.6562498 8.5 H 29.59375 29.75 V 8.3437503 8.1874998 h 0.15625 0.15625 V 7.09375 6 H 29.90625 29.75 V 5.84375 5.6875 H 29.59375 29.4375 V 5.53125 5.375 H 29.28125 29.125 V 5.21875 5.0625 H 28.96875 28.8125 V 4.90625 4.75 h -0.625 -0.625 V 4.90625 5.0625 H 27.40625 27.25 V 5.21875 5.375 H 26.9375 26.625 V 4.28125 3.1875 h 0.15625 0.15625 V 3.03125 2.875 H 27.09375 27.25 V 2.71875 2.5625 h 0.78125 0.78125 V 2.71875 2.875 H 28.96875 29.125 V 3.1875 3.5 h 0.46875 0.46875 V 3.03125 2.5625 H 29.90625 29.75 V 2.40625 2.25 H 29.59375 29.4375 V 2.09375 1.9375 H 29.28125 29.125 V 1.78125 1.625 H 28.96875 28.8125 V 1.46875 1.3125 H 27.875 26.9375 V 1.46875 1.625 H 26.78125 26.625 V 1.78125 1.9375 H 26.46875 26.3125 V 2.09375 2.25 H 26.15625 26 V 2.40625 2.5625 H 25.84375 25.6875 V 5.21875 7.8750003 H 25.84375 26 V 8.03125 8.1874998 h 0.15625 0.15625 V 8.3437503 8.5 h 0.15625 0.15625 v 0.1562498 0.1562505 h 0.15625 0.15625 V 8.96875 9.1249998 Z M 27.875,8.5 H 27.25 V 8.3437503 8.1874998 H 27.09375 26.9375 V 8.03125 7.8750003 H 26.78125 26.625 V 7.09375 6.3125 h 0.15625 0.15625 V 6.15625 6 H 27.09375 27.25 V 5.84375 5.6875 H 27.875 28.5 V 5.84375 6 h 0.15625 0.15625 V 6.15625 6.3125 H 28.96875 29.125 V 7.09375 7.8750003 H 28.96875 28.8125 V 8.03125 8.1874998 H 28.65625 28.5 V 8.3437503 8.5 Z m 0,-0.3125002 h 0.3125 V 8.03125 7.8750003 H 28.34375 28.5 V 7.71875 7.5625 h 0.15625 0.15625 V 7.09375 6.625 H 28.65625 28.5 V 6.46875 6.3125 H 28.34375 28.1875 V 6.15625 6 H 27.875 27.5625 V 6.15625 6.3125 H 27.40625 27.25 V 6.46875 6.625 H 27.09375 26.9375 V 7.09375 7.5625 H 27.09375 27.25 v 0.15625 0.1562503 h 0.15625 0.15625 V 8.03125 8.1874998 Z"
       style="display:inline;fill:#000080;fill-opacity:1;stroke-width:0.03125" />
    <path
       d="M 26.937434,1.3124441 V 1.624925 h -0.312482 v 0.312481 h -0.31248 V 2.2498869 H 25.999991 V 2.5625294 H 25.687349 V 7.875028 h 0.312642 v 0.3124808 h 0.312481 v 0.3124807 h 0.31248 V 8.812471 h 0.312482 v 0.3124808 h 2.187528 V 8.812471 h 0.312481 V 8.4999895 h 0.31248 V 8.1875088 h 0.312482 V 5.999981 H 29.749923 V 5.6875 h -0.31248 V 5.3750191 H 29.124962 V 5.0625381 H 28.81248 V 4.749896 H 28.5 27.562395 v 0.3126421 h -0.31248 v 0.312481 H 26.937434 26.624952 V 3.1874912 h 0.312482 v -0.312481 h 0.312481 V 2.5625294 h 1.562565 v 0.3124808 h 0.312482 v 0.6249619 h 0.937442 V 2.5625294 H 29.749923 V 2.2498869 h -0.31248 V 1.937406 H 29.124962 V 1.624925 H 28.81248 V 1.3124441 H 27.249915 Z M 27.249915,5.6875 H 28.5 v 0.3124809 h 0.31248 v 0.312481 h 0.312482 V 7.875028 H 28.81248 V 8.1875088 H 28.5 V 8.4999895 H 27.249915 V 8.1875088 H 26.937434 V 7.875028 H 26.624952 V 6.3124619 h 0.312482 v -0.312481 h 0.312481 z"
       style="fill:#0000ff;fill-opacity:1;stroke:#000000;stroke-width:0;stroke-miterlimit:4;stroke-dasharray:none;stroke-opacity:1"
       id="rect982" />
  </g>
  <g
     style="display:inline"
     inkscape:label="BIT"
     id="layer5"
     inkscape:groupmode="layer">
    <path
       id="path1083"
       d="M 33.65625,9.4375 H 32.25 V 5.21875 1 h 1.40625 1.40625 V 1.15625 1.3125 H 35.21875 35.375 V 1.46875 1.625 h 0.15625 0.15625 V 1.78125 1.9375 H 35.84375 36 V 3.34375 4.75 H 35.84375 35.6875 V 4.90625 5.0625 H 35.53125 35.375 V 5.21875 5.375 h 0.15625 0.15625 V 5.53125 5.6875 H 35.84375 36 V 7.09375 8.5 H 35.84375 35.6875 V 8.6562498 8.8125003 H 35.53125 35.375 V 8.96875 9.1249998 H 35.21875 35.0625 V 9.2812503 9.4375 Z m 0,-0.3125002 H 34.75 V 8.96875 8.8125003 h 0.15625 0.15625 V 8.6562498 8.5 H 35.21875 35.375 V 8.3437503 8.1874998 h 0.15625 0.15625 V 7.09375 6 H 35.53125 35.375 V 5.84375 5.6875 H 35.21875 35.0625 V 5.53125 5.375 H 34.90625 34.75 V 5.21875 5.0625 H 34.59375 34.4375 V 4.90625 4.75 H 34.90625 35.375 V 4.59375 4.4375 h 0.15625 0.15625 V 3.34375 2.25 H 35.53125 35.375 V 2.09375 1.9375 H 35.21875 35.0625 V 1.78125 1.625 H 34.90625 34.75 V 1.46875 1.3125 H 33.65625 32.5625 v 3.90625 3.9062498 z m 0.15625,-0.9375 h -0.625 V 6.9375 5.6875 h 0.625 0.625 V 5.84375 6 H 34.59375 34.75 V 6.9375 7.8750003 H 34.59375 34.4375 V 8.03125 8.1874998 Z m 0,-0.3124995 H 34.125 V 7.71875 7.5625 h 0.15625 0.15625 V 6.9375 6.3125 H 34.28125 34.125 V 6.15625 6 H 33.8125 33.5 v 0.9375 0.9375003 z m 0,-3.7500003 h -0.625 V 3.03125 1.9375 h 0.625 0.625 V 2.09375 2.25 H 34.59375 34.75 V 3.03125 3.8125 H 34.59375 34.4375 V 3.96875 4.125 Z m 0,-0.3125 H 34.125 V 3.65625 3.5 h 0.15625 0.15625 V 3.03125 2.5625 H 34.28125 34.125 V 2.40625 2.25 H 33.8125 33.5 V 3.03125 3.8125 Z m 5,5.625 H 36.625 V 8.6562498 7.8750003 h 0.625 0.625 V 5.21875 2.5625 H 37.25 36.625 V 1.78125 1 H 38.8125 41 V 1.78125 2.5625 H 40.375 39.75 V 5.21875 7.8750003 H 40.375 41 V 8.6562498 9.4375 Z m 0,-0.3125002 h 1.875 v -0.46875 -0.46875 h -0.625 -0.625 V 5.21875 2.25 h 0.625 0.625 V 1.78125 1.3125 h -1.875 -1.875 V 1.78125 2.25 h 0.625 0.625 v 2.96875 2.9687498 h -0.625 -0.625 v 0.46875 0.46875 z m 5,0.3125002 H 42.875 V 6 2.5625 H 42.25 41.625 V 1.78125 1 H 43.8125 46 V 1.78125 2.5625 H 45.375 44.75 V 6 9.4375 Z m 0,-0.3125002 h 0.625 V 5.6875 2.25 h 0.625 0.625 V 1.78125 1.3125 h -1.875 -1.875 V 1.78125 2.25 h 0.625 0.625 v 3.4375 3.4374998 z"
       style="display:inline;fill:#800080;fill-opacity:1;stroke-width:0.03125" />
    <path
       d="m 32.562492,1.3124809 v 6.8750646 0.937443 H 34.75002 V 8.8125078 h 0.312481 V 8.5000263 h 0.312481 V 8.1875455 h 0.312481 V 6.0000177 H 35.374982 V 5.6875368 H 35.062501 V 5.3750559 H 34.75002 V 5.062575 H 34.437539 V 4.7499326 h 0.937443 V 4.4374517 h 0.312481 V 2.2499238 H 35.374982 V 1.9374428 H 35.062501 V 1.6249619 H 34.75002 v -0.312481 h -1.562566 z m 4.375056,0 v 0.9374429 h 1.249924 v 5.9376217 h -1.249924 v 0.937443 h 3.749933 V 8.1875455 H 39.437557 V 2.2499238 h 1.249924 V 1.3124809 Z m 5.000018,0 v 0.9374429 h 1.249923 v 6.8750647 h 1.250086 V 2.2499238 h 1.249923 V 1.3124809 Z m -8.750112,0.6249619 h 1.250085 v 0.312481 h 0.312481 v 1.562566 h -0.312481 v 0.3124809 h -1.250085 z m 0,3.750094 h 1.250085 v 0.3124809 h 0.312481 v 1.8750471 h -0.312481 v 0.3124807 h -1.250085 z"
       style="fill:#ff00ff;fill-opacity:1;stroke:#000000;stroke-width:0;stroke-miterlimit:4;stroke-dasharray:none;stroke-opacity:1"
       id="rect1087" />
  </g>
  <g
     style="display:inline"
     inkscape:label="VIRTUAL"
     id="layer6"
     inkscape:groupmode="layer">
    <path
       id="path1159"
       d="M 3.03125,16 H 2.5625 V 15.84375 15.6875 H 2.40625 2.25 V 15.375 15.0625 H 2.09375 1.9375 V 14.59375 14.125 H 1.78125 1.625 V 13.8125 13.5 H 1.46875 1.3125 V 12.875 12.25 H 1.15625 1 V 11.3125 10.375 H 1.625 2.25 v 0.46875 0.46875 H 2.40625 2.5625 v 0.625 0.625 H 2.71875 2.875 V 13.03125 13.5 H 3.03125 3.1875 V 13.03125 12.5625 H 3.34375 3.5 v -0.625 -0.625 H 3.65625 3.8125 V 10.84375 10.375 h 0.625 0.625 V 11.3125 12.25 H 4.90625 4.75 V 12.875 13.5 H 4.59375 4.4375 v 0.3125 0.3125 H 4.28125 4.125 v 0.46875 0.46875 H 3.96875 3.8125 v 0.3125 0.3125 H 3.65625 3.5 V 15.84375 16 Z m 0,-0.3125 H 3.1875 V 15.53125 15.375 H 3.34375 3.5 V 15.0625 14.75 H 3.65625 3.8125 V 14.28125 13.8125 H 3.96875 4.125 V 13.5 13.1875 H 4.28125 4.4375 v -0.625 -0.625 H 4.59375 4.75 v -0.625 -0.625 H 4.4375 4.125 V 11.15625 11.625 H 3.96875 3.8125 v 0.625 0.625 H 3.65625 3.5 v 0.46875 0.46875 H 3.34375 3.1875 V 14.28125 14.75 H 3.03125 2.875 V 14.28125 13.8125 H 2.71875 2.5625 V 13.34375 12.875 H 2.40625 2.25 V 12.25 11.625 H 2.09375 1.9375 V 11.15625 10.6875 H 1.625 1.3125 v 0.625 0.625 H 1.46875 1.625 v 0.625 0.625 H 1.78125 1.9375 V 13.5 13.8125 H 2.09375 2.25 V 14.28125 14.75 H 2.40625 2.5625 v 0.3125 0.3125 H 2.71875 2.875 v 0.15625 0.15625 z M 7.25,16 H 5.6875 V 15.375 14.75 H 6.15625 6.625 V 13.1875 11.625 H 6.15625 5.6875 V 11 10.375 H 7.25 8.8125003 V 11 11.625 h -0.46875 -0.46875 v 1.5625 1.5625 h 0.46875 0.46875 V 15.375 16 Z m 0,-0.3125 H 8.5 V 15.375 15.0625 H 8.03125 7.5625 v -1.875 -1.875 H 8.03125 8.5 V 11 10.6875 H 7.25 6 V 11 11.3125 H 6.46875 6.9375 v 1.875 1.875 H 6.46875 6 v 0.3125 0.3125 z M 10.0625,16 H 9.4375 V 13.1875 10.375 H 10.84375 12.25 v 0.15625 0.15625 h 0.15625 0.15625 V 10.84375 11 h 0.15625 0.15625 v 1.09375 1.09375 H 12.71875 12.5625 V 13.34375 13.5 H 12.40625 12.25 v 0.15625 0.15625 H 12.09375 11.9375 V 13.96875 14.125 H 12.09375 12.25 v 0.15625 0.15625 h 0.3125 0.3125 V 14.59375 14.75 h 0.15625 0.15625 V 15.375 16 H 12.40625 11.625 V 15.84375 15.6875 H 11.46875 11.3125 V 15.53125 15.375 H 11.15625 11 V 15.21875 15.0625 H 10.84375 10.6875 V 15.53125 16 Z m 0,-0.3125 H 10.375 V 14.90625 14.125 h 0.15625 0.15625 v 0.15625 0.15625 H 10.84375 11 V 14.59375 14.75 h 0.15625 0.15625 v 0.15625 0.15625 h 0.15625 0.15625 v 0.15625 0.15625 h 0.15625 0.15625 v 0.15625 0.15625 H 12.40625 12.875 V 15.375 15.0625 H 12.71875 12.5625 V 14.90625 14.75 H 12.25 11.9375 V 14.59375 14.4375 H 11.78125 11.625 V 14.28125 14.125 H 11.46875 11.3125 V 13.96875 13.8125 H 11.15625 11 V 13.65625 13.5 h 0.46875 0.46875 V 13.34375 13.1875 H 12.09375 12.25 V 13.03125 12.875 h 0.15625 0.15625 V 12.09375 11.3125 H 12.40625 12.25 V 11.15625 11 H 12.09375 11.9375 V 10.84375 10.6875 H 10.84375 9.7500003 v 2.5 2.5 z M 11,12.875 H 10.375 V 12.09375 11.3125 H 11 11.625 v 0.15625 0.15625 h 0.15625 0.15625 v 0.46875 0.46875 H 11.78125 11.625 v 0.15625 0.15625 z m 0,-0.3125 h 0.3125 V 12.40625 12.25 H 11.46875 11.625 V 12.09375 11.9375 H 11.46875 11.3125 V 11.78125 11.625 H 11 10.6875 v 0.46875 0.46875 z M 15.84375,16 H 15.0625 V 13.8125 11.625 H 14.28125 13.5 V 11 10.375 h 2.34375 2.34375 V 11 11.625 H 17.40625 16.625 V 13.8125 16 Z m 0,-0.3125 H 16.3125 V 13.5 11.3125 H 17.09375 17.875 V 11 10.6875 H 15.84375 13.8125 V 11 11.3125 H 14.59375 15.375 V 13.5 15.6875 Z m 5,0.3125 H 19.75 V 15.84375 15.6875 H 19.4375 19.125 V 15.53125 15.375 H 18.96875 18.8125 v -2.5 -2.5 h 0.625 0.625 v 1.875 1.875 h 0.15625 0.15625 v 0.15625 0.15625 h 0.46875 0.46875 V 14.28125 14.125 H 21.46875 21.625 V 12.25 10.375 h 0.625 0.625 v 2.34375 2.34375 H 22.71875 22.5625 v 0.3125 0.3125 H 22.25 21.9375 V 15.84375 16 Z m 0,-0.3125 H 21.625 V 15.53125 15.375 H 21.9375 22.25 V 15.0625 14.75 h 0.15625 0.15625 V 12.71875 10.6875 H 22.25 21.9375 v 1.875 1.875 H 21.78125 21.625 V 14.59375 14.75 H 20.84375 20.0625 V 14.59375 14.4375 H 19.90625 19.75 v -1.875 -1.875 H 19.4375 19.125 v 2.1875 2.1875 h 0.15625 0.15625 v 0.15625 0.15625 h 0.3125 0.3125 v 0.15625 0.15625 z M 24.125,16 H 23.5 V 13.65625 11.3125 h 0.15625 0.15625 V 11.15625 11 H 23.96875 24.125 V 10.84375 10.6875 h 0.15625 0.15625 V 10.53125 10.375 h 0.9375 0.9375 v 0.15625 0.15625 H 26.46875 26.625 V 10.84375 11 h 0.15625 0.15625 v 0.15625 0.15625 H 27.09375 27.25 V 13.65625 16 H 26.625 26 V 15.0625 14.125 H 25.375 24.75 V 15.0625 16 Z m 0,-0.3125 h 0.3125 V 14.75 13.8125 h 0.9375 0.9375 v 0.9375 0.9375 h 0.3125 0.3125 V 13.65625 11.625 H 26.78125 26.625 V 11.46875 11.3125 H 26.46875 26.3125 V 11.15625 11 H 26.15625 26 V 10.84375 10.6875 H 25.375 24.75 V 10.84375 11 H 24.59375 24.4375 v 0.15625 0.15625 H 24.28125 24.125 V 11.46875 11.625 H 23.96875 23.8125 v 2.03125 2.03125 z m 1.25,-2.5 H 24.4375 V 12.40625 11.625 H 24.59375 24.75 V 11.46875 11.3125 H 25.375 26 v 0.15625 0.15625 h 0.15625 0.15625 v 0.78125 0.78125 z m 0,-0.3125 H 26 V 12.40625 11.9375 H 25.84375 25.6875 V 11.78125 11.625 H 25.375 25.0625 v 0.15625 0.15625 H 24.90625 24.75 V 12.40625 12.875 Z M 29.59375,16 H 27.875 V 13.1875 10.375 h 0.78125 0.78125 v 2.1875 2.1875 h 0.9375 0.9375 V 15.375 16 Z m 0,-0.3125 H 31 V 15.375 15.0625 H 30.0625 29.125 V 12.875 10.6875 H 28.65625 28.1875 v 2.5 2.5 z"
       style="display:inline;fill:#400080;fill-opacity:1;stroke-width:0.03125" />
    <path
       d="m 1.3124618,10.687555 v 0.937443 0.31248 h 0.312481 v 1.250085 h 0.3124809 v 0.624962 h 0.3126425 v 0.937443 H 2.562547 v 0.624962 h 0.3124809 v 0.312643 h 0.312481 V 15.37493 h 0.3124809 v -0.624962 h 0.312481 v -0.937443 h 0.3124808 v -0.624962 h 0.312481 V 11.937478 H 4.750075 V 10.687555 H 4.1249516 v 0.937443 H 3.8124708 v 1.249923 h -0.312481 v 0.937604 H 3.1875089 v 0.937443 H 2.8750279 V 13.812525 H 2.562547 V 12.874921 H 2.2500662 v -0.937443 -0.31248 H 1.9374237 v -0.937443 z m 4.6875369,0 v 0.624962 h 0.9374428 v 3.749931 H 5.9999987 v 0.625125 H 8.5000075 V 15.062448 H 7.5625648 v -3.749931 h 0.9374427 v -0.624962 z m 3.7499326,0 v 0.624962 4.375056 h 0.6251237 v -1.562567 h 0.312481 v 0.312481 h 0.31248 v 0.312481 h 0.312482 v 0.31248 h 0.31248 v 0.312482 h 0.312481 v 0.312643 h 0.937604 v -0.625125 h -0.312642 v -0.31248 h -0.624962 v -0.312481 h -0.312481 v -0.312481 h -0.31248 v -0.312481 h -0.312482 v -0.31248 h 0.937443 v -0.312482 h 0.312481 v -0.312642 h 0.312481 V 12.56244 11.312517 H 12.24994 v -0.312482 h -0.312481 v -0.31248 h -0.312481 z m 4.0625747,0 v 0.624962 h 1.562566 v 4.375056 h 0.937443 v -4.375056 h 1.562405 v -0.624962 z m 5.312499,0 v 3.749932 0.624961 h 0.312481 v 0.312482 h 0.624962 v 0.312643 h 1.562566 V 15.37493 h 0.624962 v -0.624962 h 0.312481 v -0.312481 -3.749932 h -0.624963 v 3.749932 h -0.31248 v 0.312481 h -1.562566 v -0.312481 h -0.312482 v -3.749932 z m 5.62498,0 v 0.31248 h -0.312481 v 0.312482 h -0.312482 v 0.312481 h -0.31248 v 4.062575 h 0.624962 v -1.875048 h 1.875047 v 1.875048 h 0.624961 v -4.062575 h -0.312481 v -0.312481 h -0.31248 v -0.312482 h -0.312482 v -0.31248 z m 3.437451,0 v 4.374893 0.625125 h 2.81249 v -0.625125 h -1.874885 v -4.374893 z m -17.812381,0.624962 h 1.249923 v 0.312481 h 0.312481 v 0.937442 h -0.312481 v 0.312481 h -1.249923 z m 14.37493,0 h 1.250085 v 0.312481 h 0.312481 v 1.562565 h -1.875047 v -1.562565 h 0.312481 z"
       style="fill:#a000ff;fill-opacity:1;stroke:#000000;stroke-width:0;stroke-miterlimit:4;stroke-dasharray:none;stroke-opacity:1"
       id="rect1163" />
  </g>
  <g
     style="display:inline"
     inkscape:label="STUDIOS"
     id="layer7"
     inkscape:groupmode="layer">
    <path
       id="path1332"
       d="M 34.59375,16 H 32.875 V 15.375 14.75 h 1.40625 1.40625 V 14.4375 14.125 H 35.53125 35.375 V 13.96875 13.8125 H 34.75 34.125 V 13.65625 13.5 H 33.96875 33.8125 V 13.34375 13.1875 H 33.65625 33.5 V 13.03125 12.875 H 33.34375 33.1875 V 12.71875 12.5625 H 33.03125 32.875 v -0.625 -0.625 h 0.15625 0.15625 V 11.15625 11 H 33.34375 33.5 V 10.84375 10.6875 h 0.15625 0.15625 V 10.53125 10.375 H 35.53125 37.25 V 11 11.625 H 35.84375 34.4375 V 11.9375 12.25 H 34.59375 34.75 v 0.15625 0.15625 H 35.375 36 v 0.15625 0.15625 h 0.15625 0.15625 v 0.15625 0.15625 H 36.46875 36.625 V 13.34375 13.5 h 0.15625 0.15625 v 0.15625 0.15625 H 37.09375 37.25 v 0.625 0.625 H 37.09375 36.9375 V 15.21875 15.375 H 36.78125 36.625 v 0.15625 0.15625 H 36.46875 36.3125 V 15.84375 16 Z m 0,-0.3125 H 36 V 15.53125 15.375 h 0.15625 0.15625 V 15.21875 15.0625 H 36.46875 36.625 V 14.90625 14.75 h 0.15625 0.15625 V 14.4375 14.125 H 36.78125 36.625 V 13.96875 13.8125 H 36.46875 36.3125 V 13.65625 13.5 H 36.15625 36 V 13.1875 12.875 H 35.21875 34.4375 V 12.71875 12.5625 H 34.28125 34.125 V 12.40625 12.25 H 33.96875 33.8125 V 11.9375 11.625 H 33.96875 34.125 V 11.46875 11.3125 h 1.40625 1.40625 V 11 10.6875 H 35.53125 34.125 V 10.84375 11 H 33.96875 33.8125 v 0.15625 0.15625 H 33.65625 33.5 V 11.46875 11.625 H 33.34375 33.1875 V 11.9375 12.25 H 33.34375 33.5 v 0.15625 0.15625 h 0.15625 0.15625 v 0.15625 0.15625 h 0.15625 0.15625 v 0.15625 0.15625 h 0.15625 0.15625 V 13.34375 13.5 h 0.625 0.625 v 0.15625 0.15625 H 35.84375 36 v 0.15625 0.15625 h 0.15625 0.15625 V 14.4375 14.75 H 36.15625 36 v 0.15625 0.15625 H 34.59375 33.1875 v 0.3125 0.3125 z M 40.21875,16 H 39.4375 V 13.8125 11.625 H 38.65625 37.875 V 11 10.375 h 2.34375 2.34375 V 11 11.625 H 41.78125 41 V 13.8125 16 Z m 0,-0.3125 H 40.6875 V 13.5 11.3125 H 41.46875 42.25 V 11 10.6875 H 40.21875 38.1875 V 11 11.3125 H 38.96875 39.75 V 13.5 15.6875 Z m 5,0.3125 H 44.125 V 15.84375 15.6875 H 43.8125 43.5 V 15.53125 15.375 H 43.34375 43.1875 v -2.5 -2.5 h 0.625 0.625 v 1.875 1.875 H 44.59375 44.75 v 0.15625 0.15625 h 0.46875 0.46875 V 14.28125 14.125 H 45.84375 46 V 12.25 10.375 h 0.625 0.625 v 2.34375 2.34375 H 47.09375 46.9375 v 0.3125 0.3125 H 46.625 46.3125 V 15.84375 16 Z m 0,-0.3125 H 46 V 15.53125 15.375 h 0.3125 0.3125 V 15.0625 14.75 h 0.15625 0.15625 V 12.71875 10.6875 H 46.625 46.3125 v 1.875 1.875 H 46.15625 46 V 14.59375 14.75 H 45.21875 44.4375 V 14.59375 14.4375 H 44.28125 44.125 v -1.875 -1.875 H 43.8125 43.5 v 2.1875 2.1875 h 0.15625 0.15625 v 0.15625 0.15625 h 0.3125 0.3125 v 0.15625 0.15625 z M 48.96875,16 H 47.875 V 13.1875 10.375 h 1.09375 1.09375 v 0.15625 0.15625 H 50.21875 50.375 V 10.84375 11 h 0.15625 0.15625 v 0.15625 0.15625 H 50.84375 51 v 1.875 1.875 H 50.84375 50.6875 V 15.21875 15.375 H 50.53125 50.375 v 0.15625 0.15625 H 50.21875 50.0625 V 15.84375 16 Z m 0,-0.3125 H 49.75 V 15.53125 15.375 h 0.15625 0.15625 V 15.21875 15.0625 H 50.21875 50.375 V 14.90625 14.75 h 0.15625 0.15625 V 13.1875 11.625 H 50.53125 50.375 V 11.46875 11.3125 H 50.21875 50.0625 V 11.15625 11 H 49.90625 49.75 V 10.84375 10.6875 H 48.96875 48.1875 v 2.5 2.5 z M 49.28125,14.75 H 48.8125 V 13.1875 11.625 H 49.28125 49.75 v 0.15625 0.15625 h 0.15625 0.15625 v 1.25 1.25 H 49.90625 49.75 V 14.59375 14.75 Z m 0,-0.3125 H 49.4375 V 14.28125 14.125 H 49.59375 49.75 V 13.1875 12.25 H 49.59375 49.4375 V 12.09375 11.9375 H 49.28125 49.125 v 1.25 1.25 z M 53.1875,16 H 51.625 V 15.375 14.75 h 0.46875 0.46875 V 13.1875 11.625 H 52.09375 51.625 V 11 10.375 H 53.1875 54.75 V 11 11.625 H 54.28125 53.8125 V 13.1875 14.75 H 54.28125 54.75 V 15.375 16 Z m 0,-0.3125 h 1.25 V 15.375 15.0625 H 53.96875 53.5 v -1.875 -1.875 h 0.46875 0.46875 V 11 10.6875 h -1.25 -1.25 V 11 11.3125 h 0.46875 0.46875 v 1.875 1.875 H 52.40625 51.9375 v 0.3125 0.3125 z M 57.71875,16 H 56.9375 V 15.84375 15.6875 H 56.625 56.3125 V 15.53125 15.375 H 56.15625 56 V 15.21875 15.0625 H 55.84375 55.6875 V 14.59375 14.125 H 55.53125 55.375 V 13.1875 12.25 h 0.15625 0.15625 V 11.78125 11.3125 H 55.84375 56 V 11.15625 11 h 0.15625 0.15625 V 10.84375 10.6875 h 0.3125 0.3125 V 10.53125 10.375 H 57.71875 58.5 v 0.15625 0.15625 h 0.3125 0.3125 V 10.84375 11 h 0.15625 0.15625 v 0.15625 0.15625 H 59.59375 59.75 V 11.78125 12.25 h 0.15625 0.15625 v 0.9375 0.9375 H 59.90625 59.75 v 0.46875 0.46875 H 59.59375 59.4375 V 15.21875 15.375 H 59.28125 59.125 v 0.15625 0.15625 H 58.8125 58.5 V 15.84375 16 Z m 0,-0.3125 H 58.1875 V 15.53125 15.375 H 58.5 58.8125 V 15.21875 15.0625 H 58.96875 59.125 V 14.90625 14.75 h 0.15625 0.15625 V 14.28125 13.8125 H 59.59375 59.75 v -0.625 -0.625 H 59.59375 59.4375 V 12.09375 11.625 H 59.28125 59.125 V 11.46875 11.3125 H 58.96875 58.8125 V 11.15625 11 H 58.5 58.1875 V 10.84375 10.6875 H 57.71875 57.25 V 10.84375 11 H 56.9375 56.625 v 0.15625 0.15625 H 56.46875 56.3125 V 11.46875 11.625 H 56.15625 56 v 0.46875 0.46875 H 55.84375 55.6875 v 0.625 0.625 H 55.84375 56 V 14.28125 14.75 h 0.15625 0.15625 v 0.15625 0.15625 h 0.15625 0.15625 v 0.15625 0.15625 h 0.3125 0.3125 v 0.15625 0.15625 z m 0,-0.625 H 57.25 V 14.90625 14.75 H 57.09375 56.9375 V 14.59375 14.4375 H 56.78125 56.625 V 14.125 13.8125 H 56.46875 56.3125 v -0.625 -0.625 H 56.46875 56.625 V 12.25 11.9375 h 0.15625 0.15625 V 11.78125 11.625 H 57.09375 57.25 V 11.46875 11.3125 h 0.46875 0.46875 V 11.46875 11.625 H 58.34375 58.5 v 0.15625 0.15625 h 0.15625 0.15625 v 0.3125 0.3125 h 0.15625 0.15625 v 0.625 0.625 H 58.96875 58.8125 v 0.3125 0.3125 H 58.65625 58.5 V 14.59375 14.75 H 58.34375 58.1875 v 0.15625 0.15625 z m 0,-0.3125 H 57.875 V 14.59375 14.4375 h 0.15625 0.15625 V 14.28125 14.125 H 58.34375 58.5 V 13.8125 13.5 h 0.15625 0.15625 V 13.1875 12.875 H 58.65625 58.5 V 12.5625 12.25 H 58.34375 58.1875 V 12.09375 11.9375 H 58.03125 57.875 V 11.78125 11.625 H 57.71875 57.5625 v 0.15625 0.15625 H 57.40625 57.25 V 12.09375 12.25 H 57.09375 56.9375 v 0.3125 0.3125 H 56.78125 56.625 V 13.1875 13.5 h 0.15625 0.15625 v 0.3125 0.3125 H 57.09375 57.25 v 0.15625 0.15625 h 0.15625 0.15625 V 14.59375 14.75 Z M 62.40625,16 H 60.6875 V 15.375 14.75 H 62.09375 63.5 V 14.4375 14.125 H 63.34375 63.1875 V 13.96875 13.8125 h -0.625 -0.625 V 13.65625 13.5 H 61.78125 61.625 V 13.34375 13.1875 H 61.46875 61.3125 V 13.03125 12.875 H 61.15625 61 V 12.71875 12.5625 H 60.84375 60.6875 v -0.625 -0.625 H 60.84375 61 V 11.15625 11 h 0.15625 0.15625 V 10.84375 10.6875 H 61.46875 61.625 V 10.53125 10.375 h 1.71875 1.71875 V 11 11.625 H 63.65625 62.25 v 0.3125 0.3125 h 0.15625 0.15625 v 0.15625 0.15625 h 0.625 0.625 v 0.15625 0.15625 h 0.15625 0.15625 v 0.15625 0.15625 h 0.15625 0.15625 V 13.34375 13.5 H 64.59375 64.75 v 0.15625 0.15625 h 0.15625 0.15625 v 0.625 0.625 H 64.90625 64.75 V 15.21875 15.375 H 64.59375 64.4375 v 0.15625 0.15625 H 64.28125 64.125 V 15.84375 16 Z m 0,-0.3125 H 63.8125 V 15.53125 15.375 H 63.96875 64.125 V 15.21875 15.0625 h 0.15625 0.15625 V 14.90625 14.75 H 64.59375 64.75 V 14.4375 14.125 H 64.59375 64.4375 V 13.96875 13.8125 H 64.28125 64.125 V 13.65625 13.5 H 63.96875 63.8125 V 13.1875 12.875 H 63.03125 62.25 V 12.71875 12.5625 H 62.09375 61.9375 V 12.40625 12.25 H 61.78125 61.625 V 11.9375 11.625 h 0.15625 0.15625 V 11.46875 11.3125 H 63.34375 64.75 V 11 10.6875 H 63.34375 61.9375 V 10.84375 11 H 61.78125 61.625 v 0.15625 0.15625 H 61.46875 61.3125 V 11.46875 11.625 H 61.15625 61 v 0.3125 0.3125 h 0.15625 0.15625 v 0.15625 0.15625 h 0.15625 0.15625 v 0.15625 0.15625 h 0.15625 0.15625 v 0.15625 0.15625 H 62.09375 62.25 V 13.34375 13.5 h 0.625 0.625 v 0.15625 0.15625 h 0.15625 0.15625 V 13.96875 14.125 H 63.96875 64.125 V 14.4375 14.75 H 63.96875 63.8125 v 0.15625 0.15625 H 62.40625 61 v 0.3125 0.3125 z"
       style="display:inline;fill:#408000;fill-opacity:1;stroke-width:0.03125" />
    <path
       d="m 34.125059,10.687555 v 0.31248 h -0.312482 v 0.312482 h -0.312642 v 0.312481 h -0.312481 v 0.624962 h 0.312481 v 0.31248 h 0.312642 v 0.312481 h 0.312482 v 0.312642 h 0.31248 v 0.312482 h 1.249924 v 0.31248 h 0.312481 v 0.312481 h 0.31248 v 0.624962 h -0.31248 v 0.31248 h -2.81249 v 0.625125 h 2.81249 V 15.37493 h 0.31248 v -0.312482 h 0.312643 v -0.31248 h 0.312481 v -0.624962 h -0.312481 v -0.312481 h -0.312643 v -0.31248 h -0.31248 V 12.874921 H 34.437539 V 12.56244 h -0.31248 v -0.31248 h -0.312482 v -0.624962 h 0.312482 v -0.312481 h 2.812489 v -0.624962 z m 4.062413,0 v 0.624962 h 1.562566 v 4.375056 h 0.937443 v -4.375056 h 1.562566 v -0.624962 z m 5.312498,0 v 3.749932 0.624961 h 0.312481 v 0.312482 h 0.625124 v 0.312643 h 1.562404 V 15.37493 h 0.624961 v -0.624962 h 0.312482 V 10.687555 H 46.31246 v 3.749932 h -0.312481 v 0.312481 h -1.562404 v -0.312481 h -0.312642 v -3.749932 z m 4.687537,0 v 0.937443 4.062575 h 0.624962 0.937605 V 15.37493 h 0.31248 v -0.312482 h 0.312481 v -0.31248 h 0.312481 v -0.312481 -2.812489 h -0.312481 v -0.312481 h -0.312481 v -0.312482 h -0.31248 v -0.31248 z m 3.749933,0 v 0.624962 h 0.937604 v 3.749931 H 51.93744 v 0.625125 h 2.500008 v -0.625125 h -0.937443 v -3.749931 h 0.937443 v -0.624962 z m 5.312499,0 v 0.31248 h -0.624962 v 0.312482 h -0.312481 v 0.312481 h -0.312482 v 0.937442 h -0.31248 v 1.250085 h 0.31248 v 0.937443 h 0.312482 v 0.31248 h 0.312481 v 0.312482 h 0.624962 v 0.312643 h 0.937603 V 15.37493 h 0.624962 v -0.312482 h 0.312481 v -0.31248 h 0.312481 v -0.937443 h 0.312481 V 12.56244 h -0.312481 v -0.937442 h -0.312481 v -0.312481 h -0.312481 v -0.312482 h -0.624962 v -0.31248 z m 4.687536,0 v 0.31248 h -0.312481 v 0.312482 h -0.31248 v 0.312481 h -0.312482 v 0.624962 h 0.312482 v 0.31248 h 0.31248 v 0.312481 h 0.312481 v 0.312642 h 0.312481 v 0.312482 h 1.250086 v 0.31248 h 0.31248 v 0.312481 h 0.312481 v 0.624962 h -0.312481 v 0.31248 h -2.81249 v 0.625125 h 2.81249 V 15.37493 h 0.312481 v -0.312482 h 0.312481 v -0.31248 h 0.312481 v -0.624962 h -0.312481 v -0.312481 h -0.312481 v -0.31248 H 63.812522 V 12.874921 H 62.249956 V 12.56244 h -0.312481 v -0.31248 h -0.312481 v -0.624962 h 0.312481 v -0.312481 h 2.81249 v -0.624962 z m -4.687536,0.624962 h 0.937603 v 0.312481 h 0.312482 v 0.31248 h 0.31248 v 0.624962 h 0.312481 v 1.250085 h -0.312481 v 0.624962 h -0.31248 v 0.312481 h -0.312482 v 0.31248 h -0.937603 v -0.31248 h -0.312482 v -0.312481 h -0.31248 V 13.812525 H 56.312496 V 12.56244 h 0.312481 v -0.624962 h 0.31248 v -0.31248 h 0.312482 z m -8.43747,0.312481 h 0.937605 v 0.31248 h 0.31248 v 2.500009 h -0.312642 v 0.312481 h -0.937443 z"
       style="fill:#a0ff00;fill-opacity:1;stroke:#000000;stroke-width:0;stroke-miterlimit:4;stroke-dasharray:none;stroke-opacity:1"
       id="rect1335" />
  </g>
</svg>
