<?xml version="1.0" encoding="UTF-8" standalone="no"?>
<svg
   width="16.884001mm"
   height="12mm"
   viewBox="0 0 16.884001 11.999999"
   version="1.1"
   id="svg9"
   sodipodi:docname="GameCube Icon 12mm.svg"
   inkscape:version="1.3.2 (091e20e, 2023-11-25, custom)"
   xmlns:inkscape="http://www.inkscape.org/namespaces/inkscape"
   xmlns:sodipodi="http://sodipodi.sourceforge.net/DTD/sodipodi-0.dtd"
   xmlns="http://www.w3.org/2000/svg"
   xmlns:svg="http://www.w3.org/2000/svg">
  <defs
     id="defs9" />
  <sodipodi:namedview
     id="namedview9"
     pagecolor="#ffffff"
     bordercolor="#000000"
     borderopacity="0.25"
     inkscape:showpageshadow="2"
     inkscape:pageopacity="0.0"
     inkscape:pagecheckerboard="0"
     inkscape:deskcolor="#d1d1d1"
     inkscape:document-units="mm"
     inkscape:zoom="1.2498226"
     inkscape:cx="239.63402"
     inkscape:cy="246.03493"
     inkscape:window-width="1920"
     inkscape:window-height="1017"
     inkscape:window-x="-8"
     inkscape:window-y="-8"
     inkscape:window-maximized="1"
     inkscape:current-layer="layer3" />
  <g
     inkscape:groupmode="layer"
     id="layer1"
     inkscape:label="Shilouette"
     style="display:inline">
    <path
       id="Pad001_f0003"
       d="m 13.5034,7.4021773 a 2.3892718,2.3892718 0 0 0 -0.449579,0.8642379 2.0483262,2.0483262 0 1 1 -3.388688,-2.0341008 2.5574477,2.5574477 0 0 0 0.56593,-0.8037641 7.7256232,7.7256232 0 0 0 -3.5785563,0 2.5574477,2.5574477 0 0 0 0.56593,0.8037641 A 2.0483262,2.0483262 0 1 1 3.8297479,8.2664152 2.3892718,2.3892718 0 0 0 3.3801699,7.4021751 14.800045,14.800045 0 0 1 2.2943676,11.388111 0.97680292,0.97680292 0 0 1 0.4483876,11.235469 14.800045,14.800045 0 0 1 0.75775589,3.0910405 2.9156088,2.9156088 0 0 1 2.3227126,1.3449194 a 14.800045,14.800045 0 0 1 12.2381444,0 2.9156088,2.9156088 0 0 1 1.564957,1.7461211 14.800045,14.800045 0 0 1 0.309368,8.1444285 0.97680292,0.97680292 0 0 1 -1.84598,0.152642 A 14.800045,14.800045 0 0 1 13.5034,7.4021751 Z"
       stroke="#191919"
       stroke-width="0.35 px"
       style="fill:#abc94d;fill-opacity:1;fill-rule:evenodd;stroke-width:0.0414401;stroke-linecap:square;stroke-miterlimit:4;stroke-dasharray:none" />
  </g>
  <g
     inkscape:groupmode="layer"
     id="layer2"
     inkscape:label="Outline"
     style="display:inline">
    <path
       id="Pad001_f0004"
       d="m 13.5034,7.4021773 a 14.800045,14.800045 0 0 0 1.085802,3.9859337 0.97680292,0.97680292 0 0 0 1.84598,-0.152642 14.800045,14.800045 0 0 0 -0.309368,-8.1444285 2.9156088,2.9156088 0 0 0 -1.564956,-1.7461211 14.800045,14.800045 0 0 0 -12.2381454,0 2.9156088,2.9156088 0 0 0 -1.56495671,1.7461211 14.800045,14.800045 0 0 0 -0.30936829,8.1444285 0.97680292,0.97680292 0 0 0 1.84598,0.152642 14.800045,14.800045 0 0 0 1.0858023,-3.9859359 2.3892718,2.3892718 0 0 1 0.449578,0.8642401 2.0483262,2.0483262 0 1 0 3.3886888,-2.0341008 2.5574477,2.5574477 0 0 1 -0.56593,-0.8037641 7.7256232,7.7256232 0 0 1 3.5785563,0 2.5574477,2.5574477 0 0 1 -0.56593,0.8037641 2.0483262,2.0483262 0 1 0 3.38869,2.0341008 2.3892718,2.3892718 0 0 1 0.449578,-0.8642401 z m 2.471868,3.7202667 a 0.5032015,0.5032015 0 0 1 -0.950957,0.07863 14.326443,14.326443 0 0 1 -1.121488,-4.5482619 0.11840035,0.11840035 0 0 0 -0.185721,-0.087975 2.8628733,2.8628733 0 0 0 -1.119168,1.5732671 1.5747247,1.5747247 0 1 1 -2.6051755,-1.5637951 3.0310491,3.0310491 0 0 0 0.8180395,-1.3574899 0.11840035,0.11840035 0 0 0 -0.08082,-0.1461686 8.1992242,8.1992242 0 0 0 -4.5763863,0 0.11840035,0.11840035 0 0 0 -0.08082,0.1461686 A 3.0310491,3.0310491 0 0 0 6.8908113,6.5743094 1.5747247,1.5747247 0 1 1 4.2856366,8.1381045 2.8628733,2.8628733 0 0 0 3.1664691,6.5648374 0.11840035,0.11840035 0 0 0 2.9807463,6.6528121 14.326443,14.326443 0 0 1 1.8592581,11.201074 0.5032015,0.5032015 0 0 1 0.90830196,11.122444 14.326443,14.326443 0 0 1 1.207772,3.2386384 2.4420073,2.4420073 0 0 1 2.5185231,1.7761453 a 14.326443,14.326443 0 0 1 11.8465229,0 2.4420073,2.4420073 0 0 1 1.310751,1.4624931 14.326443,14.326443 0 0 1 0.299471,7.8838056 z"
       stroke="#191919"
       stroke-width="0.35 px"
       style="fill:#abc94d;fill-opacity:1;fill-rule:evenodd;stroke-width:0.0414401;stroke-linecap:square;stroke-miterlimit:4;stroke-dasharray:none" />
  </g>
  <g
     inkscape:groupmode="layer"
     id="layer3"
     inkscape:label="Details"
     style="display:inline">
    <path
       id="Pad001_f0063"
       d="M 5.4758562,6.6754392 H 6.1270579 V 7.385841 H 6.8374601 V 8.0370435 H 6.1270579 V 8.7474457 H 5.4758562 V 8.0370435 H 4.7654539 V 7.385841 h 0.7104023 z"
       stroke="#191919"
       stroke-width="0.35 px"
       style="fill:#abc94d;fill-opacity:1;fill-rule:evenodd;stroke-width:0.0414401;stroke-linecap:square;stroke-miterlimit:4;stroke-dasharray:none" />
    <circle
       cx="11.082113"
       cy="-7.7114415"
       r="0.59200174"
       stroke="#191919"
       stroke-width="0.35 px"
       style="fill:#abc94d;stroke-width:0.0414401;stroke-linecap:square;stroke-miterlimit:4;stroke-dasharray:none"
       id="circle6"
       transform="scale(1,-1)" />
    <circle
       cx="3.5281706"
       cy="-3.9996629"
       r="1.1840035"
       stroke="#191919"
       stroke-width="0.35 px"
       style="fill:#abc94d;stroke-width:0.0414401;stroke-linecap:square;stroke-miterlimit:4;stroke-dasharray:none"
       id="circle7"
       transform="scale(1,-1)" />
    <circle
       cx="11.668654"
       cy="-4.9735055"
       r="0.59200174"
       stroke="#191919"
       stroke-width="0.35 px"
       style="fill:#abc94d;stroke-width:0.0414401;stroke-linecap:square;stroke-miterlimit:4;stroke-dasharray:none"
       id="circle8"
       transform="scale(1,-1)" />
    <circle
       cx="13.355399"
       cy="-3.9996629"
       r="0.94128281"
       stroke="#191919"
       stroke-width="0.35 px"
       style="fill:#abc94d;stroke-width:0.0414401;stroke-linecap:square;stroke-miterlimit:4;stroke-dasharray:none"
       id="circle9"
       transform="scale(1,-1)" />
    <path
       id="Pad001_f0068"
       d="m 14.753776,4.0233443 a 0.41440151,0.41440151 0 1 0 0.7273,0.3974269 1.3862432,1.3862432 0 0 0 -0.49534,-1.848644 0.41440125,0.41440125 0 1 0 -0.431142,0.7078329 0.55743719,0.55743719 0 0 1 0.199185,0.7433883 z"
       stroke="#191919"
       stroke-width="0.35 px"
       style="fill:#abc94d;fill-opacity:1;fill-rule:evenodd;stroke-width:0.0414401;stroke-linecap:square;stroke-miterlimit:4;stroke-dasharray:none" />
    <path
       id="Pad001_f0069"
       d="m 11.554549,2.794354 a 0.41440125,0.41440125 0 0 0 0.7953,0.2332476 0.55743719,0.55743719 0 0 1 0.666499,-0.3848012 0.41440125,0.41440125 0 0 0 0.195644,-0.8053711 1.3862432,1.3862432 0 0 0 -1.657438,0.9569235 z"
       stroke="#191919"
       stroke-width="0.35 px"
       style="fill:#abc94d;fill-opacity:1;fill-rule:evenodd;stroke-width:0.0414401;stroke-linecap:square;stroke-miterlimit:4;stroke-dasharray:none" />
  </g>
</svg>
