<?xml version="1.0" encoding="UTF-8" standalone="no"?>
<svg
   width="12mm"
   height="8.5290003mm"
   viewBox="0 0 12 8.5289996"
   version="1.1"
   id="svg9"
   sodipodi:docname="GameCube Icon Support.svg"
   inkscape:version="1.3.2 (091e20e, 2023-11-25, custom)"
   xmlns:inkscape="http://www.inkscape.org/namespaces/inkscape"
   xmlns:sodipodi="http://sodipodi.sourceforge.net/DTD/sodipodi-0.dtd"
   xmlns="http://www.w3.org/2000/svg"
   xmlns:svg="http://www.w3.org/2000/svg">
  <defs
     id="defs9" />
  <sodipodi:namedview
     id="namedview9"
     pagecolor="#ffffff"
     bordercolor="#000000"
     borderopacity="0.25"
     inkscape:showpageshadow="2"
     inkscape:pageopacity="0.0"
     inkscape:pagecheckerboard="0"
     inkscape:deskcolor="#d1d1d1"
     inkscape:document-units="mm"
     inkscape:zoom="1.2498226"
     inkscape:cx="239.63402"
     inkscape:cy="246.03493"
     inkscape:window-width="1920"
     inkscape:window-height="1017"
     inkscape:window-x="-8"
     inkscape:window-y="-8"
     inkscape:window-maximized="1"
     inkscape:current-layer="layer3" />
  <g
     inkscape:groupmode="layer"
     id="layer1"
     inkscape:label="Shilouette"
     style="display:inline">
    <path
       id="Pad001_f0003"
       d="M 9.5975439,5.2610988 A 1.6981753,1.6981753 0 0 0 9.2780055,5.875356 1.4558482,1.4558482 0 1 1 6.8694949,4.4296185 1.8177064,1.8177064 0 0 0 7.2717298,3.8583431 a 5.490988,5.490988 0 0 0 -2.5434595,0 A 1.8177064,1.8177064 0 0 0 5.1305051,4.4296185 1.4558482,1.4558482 0 1 1 2.721994,5.875356 1.6981753,1.6981753 0 0 0 2.4024563,5.2610972 10.519135,10.519135 0 0 1 1.6307222,8.0941018 0.69426284,0.69426284 0 0 1 0.31869157,7.9856115 10.519135,10.519135 0 0 1 0.53857514,2.1969576 2.0722695,2.0722695 0 0 1 1.6508684,0.9559017 a 10.519135,10.519135 0 0 1 8.6982636,0 2.0722695,2.0722695 0 0 1 1.112293,1.2410559 10.519135,10.519135 0 0 1 0.219883,5.7886539 0.69426284,0.69426284 0 0 1 -1.31203,0.1084903 10.519135,10.519135 0 0 1 -0.7717341,-2.8330046 z"
       stroke="#191919"
       stroke-width="0.35 px"
       style="fill:#abc94d;fill-opacity:1;fill-rule:evenodd;stroke-width:0.0294536;stroke-linecap:square;stroke-miterlimit:4;stroke-dasharray:none" />
  </g>
  <g
     inkscape:groupmode="layer"
     id="layer2"
     inkscape:label="Outline"
     style="display:inline">
    <path
       id="Pad001_f0004"
       d="m 9.5975439,5.2610988 a 10.519135,10.519135 0 0 0 0.7717341,2.833003 0.69426284,0.69426284 0 0 0 1.31203,-0.1084903 10.519135,10.519135 0 0 0 -0.219883,-5.7886539 2.0722695,2.0722695 0 0 0 -1.112293,-1.2410559 10.519135,10.519135 0 0 0 -8.6982636,0 A 2.0722695,2.0722695 0 0 0 0.53857514,2.1969576 10.519135,10.519135 0 0 0 0.31869157,7.9856115 0.69426284,0.69426284 0 0 0 1.6307222,8.0941018 10.519135,10.519135 0 0 0 2.4024563,5.2610972 1.6981753,1.6981753 0 0 1 2.721994,5.875356 1.4558482,1.4558482 0 1 0 5.1305051,4.4296185 1.8177064,1.8177064 0 0 1 4.7282703,3.8583431 a 5.490988,5.490988 0 0 1 2.5434595,0 A 1.8177064,1.8177064 0 0 1 6.8694949,4.4296185 1.4558482,1.4558482 0 1 0 9.2780069,5.875356 1.6981753,1.6981753 0 0 1 9.5975446,5.2610972 Z M 11.354424,7.905279 A 0.35765055,0.35765055 0 0 1 10.678532,7.9611653 10.182522,10.182522 0 0 1 9.8814338,4.7284873 0.08415307,0.08415307 0 0 0 9.7494326,4.6659591 2.0347877,2.0347877 0 0 0 8.9539837,5.784159 1.1192358,1.1192358 0 1 1 7.1023548,4.6726913 2.1543187,2.1543187 0 0 0 7.6837765,3.7078551 0.08415307,0.08415307 0 0 0 7.6263337,3.6039658 a 5.8276,5.8276 0 0 0 -3.2526673,0 A 0.08415307,0.08415307 0 0 0 4.3162235,3.7078551 2.1543187,2.1543187 0 0 0 4.8976453,4.6726915 1.1192358,1.1192358 0 1 1 3.046017,5.7841592 2.0347877,2.0347877 0 0 0 2.2505685,4.6659593 0.08415307,0.08415307 0 0 0 2.118566,4.7284873 10.182522,10.182522 0 0 1 1.321468,7.9611653 0.35765055,0.35765055 0 0 1 0.64557578,7.905279 10.182522,10.182522 0 0 1 0.85842417,2.3018628 1.7356571,1.7356571 0 0 1 1.7900407,1.2623956 a 10.182522,10.182522 0 0 1 8.4199183,0 1.7356571,1.7356571 0 0 1 0.931616,1.0394672 10.182522,10.182522 0 0 1 0.212849,5.6034162 z"
       stroke="#191919"
       stroke-width="0.35 px"
       style="fill:#abc94d;fill-opacity:1;fill-rule:evenodd;stroke-width:0.0294536;stroke-linecap:square;stroke-miterlimit:4;stroke-dasharray:none" />
  </g>
  <g
     inkscape:groupmode="layer"
     id="layer3"
     inkscape:label="Details"
     style="display:inline">
    <path
       id="Pad001_f0063"
       d="M 3.8919657,4.7445696 H 4.3548075 V 5.2494878 H 4.8597259 V 5.71233 H 4.3548075 V 6.2172485 H 3.8919657 V 5.71233 H 3.3870472 V 5.2494878 h 0.5049185 z"
       stroke="#191919"
       stroke-width="0.35 px"
       style="fill:#abc94d;fill-opacity:1;fill-rule:evenodd;stroke-width:0.0294536;stroke-linecap:square;stroke-miterlimit:4;stroke-dasharray:none" />
    <circle
       cx="7.8766141"
       cy="-5.4809084"
       r="0.42076534"
       stroke="#191919"
       stroke-width="0.35 px"
       style="fill:#abc94d;stroke-width:0.0294536;stroke-linecap:square;stroke-miterlimit:4;stroke-dasharray:none"
       id="circle6"
       transform="scale(1,-1)" />
    <circle
       cx="2.5076478"
       cy="-2.842761"
       r="0.84153068"
       stroke="#191919"
       stroke-width="0.35 px"
       style="fill:#abc94d;stroke-width:0.0294536;stroke-linecap:square;stroke-miterlimit:4;stroke-dasharray:none"
       id="circle7"
       transform="scale(1,-1)" />
    <circle
       cx="8.293498"
       cy="-3.53492"
       r="0.42076534"
       stroke="#191919"
       stroke-width="0.35 px"
       style="fill:#abc94d;stroke-width:0.0294536;stroke-linecap:square;stroke-miterlimit:4;stroke-dasharray:none"
       id="circle8"
       transform="scale(1,-1)" />
    <circle
       cx="9.4923525"
       cy="-2.842761"
       r="0.6690169"
       stroke="#191919"
       stroke-width="0.35 px"
       style="fill:#abc94d;stroke-width:0.0294536;stroke-linecap:square;stroke-miterlimit:4;stroke-dasharray:none"
       id="circle9"
       transform="scale(1,-1)" />
    <path
       id="Pad001_f0068"
       d="m 10.486249,2.8595927 a 0.29453594,0.29453594 0 1 0 0.516928,0.2824712 0.98527259,0.98527259 0 0 0 -0.352063,-1.313924 0.29453576,0.29453576 0 1 0 -0.306434,0.5030923 0.39619858,0.39619858 0 0 1 0.141571,0.5283634 z"
       stroke="#191919"
       stroke-width="0.35 px"
       style="fill:#abc94d;fill-opacity:1;fill-rule:evenodd;stroke-width:0.0294536;stroke-linecap:square;stroke-miterlimit:4;stroke-dasharray:none" />
    <path
       id="Pad001_f0069"
       d="M 8.2123977,1.9860876 A 0.29453576,0.29453576 0 0 0 8.7776573,2.1518684 0.39619858,0.39619858 0 0 1 9.2513716,1.8783708 0.29453576,0.29453576 0 0 0 9.3904256,1.3059532 0.98527259,0.98527259 0 0 0 8.2124012,1.9860867 Z"
       stroke="#191919"
       stroke-width="0.35 px"
       style="fill:#abc94d;fill-opacity:1;fill-rule:evenodd;stroke-width:0.0294536;stroke-linecap:square;stroke-miterlimit:4;stroke-dasharray:none" />
  </g>
</svg>
