<?xml version="1.0" encoding="UTF-8" standalone="no"?>
<svg
   xmlns:dc="http://purl.org/dc/elements/1.1/"
   xmlns:cc="http://creativecommons.org/ns#"
   xmlns:rdf="http://www.w3.org/1999/02/22-rdf-syntax-ns#"
   xmlns:svg="http://www.w3.org/2000/svg"
   xmlns="http://www.w3.org/2000/svg"
   xmlns:sodipodi="http://sodipodi.sourceforge.net/DTD/sodipodi-0.dtd"
   xmlns:inkscape="http://www.inkscape.org/namespaces/inkscape"
   width="12mm"
   height="6.6760001mm"
   viewBox="0 0 12 6.6760002"
   version="1.1"
   id="svg977"
   inkscape:version="1.0 (4035a4fb49, 2020-05-01)"
   sodipodi:docname="GBA Icon Deep Groove.svg">
  <defs
     id="defs971" />
  <sodipodi:namedview
     id="base"
     pagecolor="#ffffff"
     bordercolor="#666666"
     borderopacity="1.0"
     inkscape:pageopacity="0.0"
     inkscape:pageshadow="2"
     inkscape:zoom="22.627417"
     inkscape:cx="20.205867"
     inkscape:cy="14.895152"
     inkscape:document-units="mm"
     inkscape:current-layer="Pad003-7"
     inkscape:document-rotation="0"
     showgrid="false"
     inkscape:window-width="1920"
     inkscape:window-height="1017"
     inkscape:window-x="-8"
     inkscape:window-y="-8"
     inkscape:window-maximized="1" />
  <metadata
     id="metadata974">
    <rdf:RDF>
      <cc:Work
         rdf:about="">
        <dc:format>image/svg+xml</dc:format>
        <dc:type
           rdf:resource="http://purl.org/dc/dcmitype/StillImage" />
        <dc:title />
      </cc:Work>
    </rdf:RDF>
  </metadata>
  <g
     inkscape:label="Layer 1"
     inkscape:groupmode="layer"
     id="layer1">
    <g
       transform="matrix(0.99999999,0,0,-0.99999999,110.36905,149.84416)"
       id="Pad003"
       style="fill:#846eb1;fill-opacity:1">
      <title
         id="title1564">b'Pad003'</title>
      <g
         transform="matrix(1,0,0,0.93775946,-21.198857,-0.4860137)"
         id="Pad003-7"
         style="fill:#846eb1;fill-opacity:1">
        <title
           id="title1625">b'Pad003'</title>
        <path
           sodipodi:nodetypes="ccccccscsccccccccs"
           id="Body001_f0017"
           style="fill:#ff45ff;fill-opacity:1;fill-rule:evenodd;stroke-width:0.109904;stroke-miterlimit:4;stroke-dasharray:none"
           d="M 10.251953,0.67773438 C 7.7868659,0.65292436 5.330274,0.9734928 2.953125,1.6269531 2.0874015,1.8647748 1.4606141,2.6150456 1.3828125,3.5097656 4.5477909,3.5734315 7.5776849,2.8074758 10.251953,0.67773438 Z m 24.851563,0 C 37.443656,2.8586114 40.695412,3.655937 43.972656,3.5097656 43.894836,2.6150456 43.268079,1.8648457 42.402344,1.6269531 40.025183,0.9737409 37.56861,0.65342056 35.103516,0.67773438 Z M 22.677734,2.7226562 c -3.581865,0 -7.163357,0.4643115 -10.654296,1.3925782 C 11.6359,4.2183377 11.35603,4.5552825 11.326172,4.9550781 L 10.238281,19.492188 c -0.06989,0.935018 0.55914,1.778798 1.47461,1.980468 7.223444,1.59018 14.706243,1.59018 21.929687,0 0.915462,-0.201493 1.54254,-1.04545 1.472656,-1.980468 L 34.029297,4.9550781 C 33.999408,4.5550344 33.719584,4.2187276 33.332031,4.1152344 29.841093,3.1869677 26.2596,2.7226562 22.677734,2.7226562 Z"
           transform="matrix(0.26458334,0,0,-0.28214414,-89.170194,160.30782)" />
      </g>
    </g>
  </g>
</svg>
