<?xml version="1.0" encoding="UTF-8" standalone="no"?>
<svg
   width="10mm"
   height="5.1560001mm"
   viewBox="0 0 10 5.1560004"
   version="1.1"
   id="svg24"
   sodipodi:docname="Game Gear Icon.svg"
   inkscape:version="1.2.2 (732a01da63, 2022-12-09)"
   xmlns:inkscape="http://www.inkscape.org/namespaces/inkscape"
   xmlns:sodipodi="http://sodipodi.sourceforge.net/DTD/sodipodi-0.dtd"
   xmlns="http://www.w3.org/2000/svg"
   xmlns:svg="http://www.w3.org/2000/svg">
  <defs
     id="defs28" />
  <sodipodi:namedview
     id="namedview26"
     pagecolor="#ffffff"
     bordercolor="#666666"
     borderopacity="1.0"
     inkscape:showpageshadow="2"
     inkscape:pageopacity="0.0"
     inkscape:pagecheckerboard="0"
     inkscape:deskcolor="#d1d1d1"
     inkscape:document-units="mm"
     showgrid="false"
     inkscape:zoom="5.8761435"
     inkscape:cx="35.397366"
     inkscape:cy="36.418443"
     inkscape:window-width="1920"
     inkscape:window-height="1017"
     inkscape:window-x="-8"
     inkscape:window-y="-8"
     inkscape:window-maximized="1"
     inkscape:current-layer="svg24" />
  <g
     id="Body"
     transform="matrix(0.04672408,0,0,-0.04672408,9.9056505,4.2133425)"
     style="stroke-width:2.14022408;stroke-dasharray:none">
    <path
       id="Body_f0003"
       d="M -17.230824,-16.330866 A 1051.6,1051.6 0 0 0 -192.769,-16.3309 18.9946,18.9946 0 0 0 -210,0 a 194.597,194.597 0 0 0 5.5,79.51 12.5864,12.5864 0 0 0 11.731,9.1591 2894.81,2894.81 0 0 0 175.5382,0 A 12.5864,12.5864 0 0 0 -5.5,79.51 194.597,194.597 0 0 0 0,0 18.9946,18.9946 0 0 0 -17.2308,-16.3309 Z"
       stroke="#000000"
       stroke-width="0.35 px"
       style="fill:#b3d9ba;fill-opacity:1;fill-rule:evenodd;stroke-width:2.14022408;stroke-linecap:square;stroke-miterlimit:4;stroke-dasharray:none" />
    <path
       id="Body_f0018"
       d="m -164.62416,80.885897 a 803.924,803.924 0 0 0 119.24836,3e-6 6.5,6.5 0 0 0 5.6758,-8.563 L -55.5,25.565661 A 16.5581,16.5581 0 0 0 -68.4551,14.5352 a 221.525,221.525 0 0 0 -73.0899,0 16.5581,16.5581 0 0 0 -12.955,11.0305 l -15.8,46.757242 a 6.5,6.5 0 0 0 5.676,8.562958 z"
       stroke="#000000"
       stroke-width="0.35 px"
       style="fill:#b3d9ba;fill-opacity:1;fill-rule:evenodd;stroke-width:2.14022408;stroke-linecap:square;stroke-miterlimit:4;stroke-dasharray:none" />
    <title
       id="title21">b'Body'</title>
  </g>
</svg>
