<?xml version="1.0" encoding="UTF-8" standalone="no"?>
<svg
   xmlns:dc="http://purl.org/dc/elements/1.1/"
   xmlns:cc="http://creativecommons.org/ns#"
   xmlns:rdf="http://www.w3.org/1999/02/22-rdf-syntax-ns#"
   xmlns:svg="http://www.w3.org/2000/svg"
   xmlns="http://www.w3.org/2000/svg"
   xmlns:sodipodi="http://sodipodi.sourceforge.net/DTD/sodipodi-0.dtd"
   xmlns:inkscape="http://www.inkscape.org/namespaces/inkscape"
   inkscape:version="1.0 (4035a4fb49, 2020-05-01)"
   sodipodi:docname="NES Icon.svg"
   id="svg67"
   version="1.1"
   viewBox="0 0 29.454999 14"
   height="14mm"
   width="29.455mm">
  <metadata
     id="metadata73">
    <rdf:RDF>
      <cc:Work
         rdf:about="">
        <dc:format>image/svg+xml</dc:format>
        <dc:type
           rdf:resource="http://purl.org/dc/dcmitype/StillImage" />
        <dc:title></dc:title>
      </cc:Work>
    </rdf:RDF>
  </metadata>
  <defs
     id="defs71" />
  <sodipodi:namedview
     inkscape:current-layer="layer1"
     inkscape:window-maximized="1"
     inkscape:window-y="-8"
     inkscape:window-x="-8"
     inkscape:cy="32.295423"
     inkscape:cx="69.30768"
     inkscape:zoom="9.5139545"
     showgrid="false"
     id="namedview69"
     inkscape:window-height="1017"
     inkscape:window-width="1920"
     inkscape:pageshadow="2"
     inkscape:pageopacity="0"
     guidetolerance="10"
     gridtolerance="10"
     objecttolerance="10"
     borderopacity="1"
     bordercolor="#666666"
     pagecolor="#ffffff" />
  <g
     style="display:inline"
     inkscape:label="NES Controller"
     id="layer1"
     inkscape:groupmode="layer">
    <path
       style="fill:#b78e00;fill-opacity:1;fill-rule:evenodd;stroke-width:0.0772766;stroke-linecap:square;stroke-miterlimit:4;stroke-dasharray:none"
       stroke-width="0.35 px"
       stroke="#000000"
       d="M 6.7350505,11.018399 H 4.9024837 A 0.22079117,0.22079117 0 0 1 4.6816927,10.797608 V 9.6892363 A 0.22079117,0.22079117 0 0 0 4.4609014,9.468445 H 3.3525297 A 0.22079117,0.22079117 0 0 1 3.1317386,9.247654 V 7.4150872 A 0.22079117,0.22079117 0 0 1 3.3525297,7.1942962 H 4.4609014 A 0.22079117,0.22079117 0 0 0 4.6816927,6.9735049 V 5.8651332 a 0.22079117,0.22079117 0 0 1 0.220791,-0.2207911 h 1.8325668 a 0.22079117,0.22079117 0 0 1 0.220791,0.2207911 v 1.1083717 a 0.22079117,0.22079117 0 0 0 0.2207913,0.2207913 h 1.1083717 a 0.22079117,0.22079117 0 0 1 0.2207911,0.220791 V 9.247654 A 0.22079117,0.22079117 0 0 1 8.2850045,9.468445 H 7.1766328 A 0.22079117,0.22079117 0 0 0 6.9558415,9.6892363 v 1.1083717 a 0.22079117,0.22079117 0 0 1 -0.220791,0.220791 z"
       id="Body_f0043" />
    <path
       style="fill:#b78e00;fill-opacity:1;fill-rule:evenodd;stroke-width:0.0772766;stroke-linecap:square;stroke-miterlimit:4;stroke-dasharray:none"
       stroke-width="0.35 px"
       stroke="#000000"
       d="m 17.379392,8.4097515 v 2.1858325 a 0.22079117,0.22079117 0 0 1 -0.220791,0.220791 H 10.121986 A 0.22079117,0.22079117 0 0 1 9.9011955,10.595584 V 8.4097515 A 0.22079117,0.22079117 0 0 1 10.121986,8.1889602 h 7.036615 a 0.22079117,0.22079117 0 0 1 0.220791,0.2207913 z"
       id="Body_f0047" />
    <path
       id="Body_f0044"
       d="M 1.4802206,1.0386383 A 0.44158233,0.44158233 0 0 0 1.0386383,1.4802206 V 12.519779 a 0.44158233,0.44158233 0 0 0 0.4415823,0.441582 H 27.975163 a 0.44158233,0.44158233 0 0 0 0.441581,-0.441582 V 1.4802206 A 0.44158233,0.44158233 0 0 0 27.975163,1.0386383 Z M 1.921803,12.519779 A 0.44158233,0.44158233 0 0 1 1.4802206,12.078197 V 1.921803 A 0.44158233,0.44158233 0 0 1 1.921803,1.4802206 H 27.53358 a 0.44158233,0.44158233 0 0 1 0.441583,0.4415824 v 10.156394 a 0.44158233,0.44158233 0 0 1 -0.441583,0.441582 z"
       stroke="#000000"
       stroke-width="0.35 px"
       style="fill:#b78e00;fill-opacity:1;fill-rule:evenodd;stroke-width:0.0772766;stroke-linecap:square;stroke-miterlimit:4;stroke-dasharray:none" />
    <circle
       transform="scale(1,-1)"
       cx="20.286108"
       cy="-9.5026684"
       r="1.1392825"
       stroke="#000000"
       stroke-width="0.35 px"
       style="fill:#b78e00;stroke-width:0.0772768;stroke-linecap:square;stroke-miterlimit:4;stroke-dasharray:none"
       id="circle2" />
    <circle
       transform="scale(1,-1)"
       cx="20.286108"
       cy="-9.5026684"
       r="1.1392825"
       stroke="#000000"
       stroke-width="0.35 px"
       style="fill:#b78e00;stroke-width:0.0772768;stroke-linecap:square;stroke-miterlimit:4;stroke-dasharray:none"
       id="circle36" />
    <circle
       transform="scale(1,-1)"
       cx="23.854092"
       cy="-9.5026684"
       r="1.1392825"
       stroke="#000000"
       stroke-width="0.35 px"
       style="fill:#b78e00;stroke-width:0.0772768;stroke-linecap:square;stroke-miterlimit:4;stroke-dasharray:none"
       id="circle38" />
    <circle
       transform="scale(1,-1)"
       cx="20.286108"
       cy="-9.5026684"
       r="1.1392825"
       stroke="#000000"
       stroke-width="0.35 px"
       style="fill:#b78e00;stroke-width:0.0772768;stroke-linecap:square;stroke-miterlimit:4;stroke-dasharray:none"
       id="circle50" />
    <circle
       transform="scale(1,-1)"
       cx="23.854092"
       cy="-9.5026684"
       r="1.1392825"
       stroke="#000000"
       stroke-width="0.35 px"
       style="fill:#b78e00;stroke-width:0.0772768;stroke-linecap:square;stroke-miterlimit:4;stroke-dasharray:none"
       id="circle52" />
  </g>
</svg>
