<?xml version="1.0" encoding="UTF-8" standalone="no"?>
<svg
   width="10mm"
   height="10.338mm"
   viewBox="0 0 10 10.338"
   version="1.1"
   id="svg31"
   sodipodi:docname="KeyNintendo DS.svg"
   inkscape:version="1.2.2 (732a01da63, 2022-12-09)"
   xmlns:inkscape="http://www.inkscape.org/namespaces/inkscape"
   xmlns:sodipodi="http://sodipodi.sourceforge.net/DTD/sodipodi-0.dtd"
   xmlns="http://www.w3.org/2000/svg"
   xmlns:svg="http://www.w3.org/2000/svg">
  <defs
     id="defs35" />
  <sodipodi:namedview
     id="namedview33"
     pagecolor="#ffffff"
     bordercolor="#666666"
     borderopacity="1.0"
     inkscape:showpageshadow="2"
     inkscape:pageopacity="0.0"
     inkscape:pagecheckerboard="0"
     inkscape:deskcolor="#d1d1d1"
     inkscape:document-units="mm"
     showgrid="false"
     inkscape:zoom="5.3869192"
     inkscape:cx="75.182119"
     inkscape:cy="77.781008"
     inkscape:window-width="1920"
     inkscape:window-height="1017"
     inkscape:window-x="-8"
     inkscape:window-y="-8"
     inkscape:window-maximized="1"
     inkscape:current-layer="svg31" />
  <g
     id="Pocket002"
     transform="matrix(0.25412961,0,0,-0.25412961,0.04447268,10.29352)">
    <path
       id="Pocket002_f0004"
       d="M 1,22 A 1,1 0 0 1 0,21 V 1 A 1,1 0 0 1 1,0 h 37 a 1,1 0 0 1 1,1 v 20 a 1,1 0 0 1 -1,1 h -0.45 v 17.33 a 1,1 0 0 1 -1,1 H 2.45 a 1,1 0 0 1 -1,-1 L 1.45,22 Z M 11.4,5.3 H 27.6 V 17.5 H 11.4 Z M 27.6,36.08 H 11.4 v -12.2 h 16.2 z"
       stroke="#000000"
       stroke-width="0.35 px"
       style="fill:#a3491e;fill-opacity:1;fill-rule:evenodd;stroke-width:0.35;stroke-linecap:square;stroke-miterlimit:4;stroke-dasharray:none" />
    <title
       id="title28">b'Pocket002'</title>
  </g>
</svg>
