<?xml version="1.0" encoding="UTF-8" standalone="no"?>
<svg
   inkscape:version="1.3.2 (091e20e, 2023-11-25, custom)"
   sodipodi:docname="SNES Stand Icon.svg"
   id="svg62"
   version="1.1"
   viewBox="0 0 24.929 12"
   height="12mm"
   width="24.929001mm"
   xmlns:inkscape="http://www.inkscape.org/namespaces/inkscape"
   xmlns:sodipodi="http://sodipodi.sourceforge.net/DTD/sodipodi-0.dtd"
   xmlns="http://www.w3.org/2000/svg"
   xmlns:svg="http://www.w3.org/2000/svg"
   xmlns:rdf="http://www.w3.org/1999/02/22-rdf-syntax-ns#"
   xmlns:cc="http://creativecommons.org/ns#"
   xmlns:dc="http://purl.org/dc/elements/1.1/">
  <metadata
     id="metadata68">
    <rdf:RDF>
      <cc:Work
         rdf:about="">
        <dc:format>image/svg+xml</dc:format>
        <dc:type
           rdf:resource="http://purl.org/dc/dcmitype/StillImage" />
      </cc:Work>
    </rdf:RDF>
  </metadata>
  <defs
     id="defs66" />
  <sodipodi:namedview
     inkscape:current-layer="layer1"
     inkscape:window-maximized="1"
     inkscape:window-y="-8"
     inkscape:window-x="-8"
     inkscape:cy="27.186075"
     inkscape:cx="34.48435"
     inkscape:zoom="8.2211206"
     showgrid="false"
     id="namedview64"
     inkscape:window-height="1017"
     inkscape:window-width="1920"
     inkscape:pageshadow="2"
     inkscape:pageopacity="0"
     guidetolerance="10"
     gridtolerance="10"
     objecttolerance="10"
     borderopacity="1"
     bordercolor="#666666"
     pagecolor="#ffffff"
     inkscape:showpageshadow="2"
     inkscape:pagecheckerboard="0"
     inkscape:deskcolor="#d1d1d1"
     inkscape:document-units="mm" />
  <g
     style="display:inline"
     inkscape:label="SNES Icon"
     id="layer1"
     inkscape:groupmode="layer">
    <path
       style="fill:#6d0f5b;fill-opacity:1;fill-rule:evenodd;stroke:#000000;stroke-width:0.0251212;stroke-linecap:square;stroke-miterlimit:4;stroke-dasharray:none;stroke-opacity:1"
       d="M 7.8205042,4.9693398 H 4.8167823 A 2.0871512,2.0871512 0 1 1 3.4202192,1.3311208 H 9.217067 a 2.0871512,2.0871512 0 1 1 -1.396561,3.638219 z"
       id="path1" />
    <path
       id="Body_f0033"
       d="m 2.5749944,3.6273445 v -0.418145 a 0.07147778,0.07147778 0 0 1 0.071478,-0.071478 h 0.4217189 a 0.07147778,0.07147778 0 0 0 0.071478,-0.071478 V 2.644525 a 0.07147778,0.07147778 0 0 1 0.071478,-0.071478 h 0.418145 a 0.07147778,0.07147778 0 0 1 0.071478,0.071478 v 0.4217189 a 0.07147778,0.07147778 0 0 0 0.071478,0.071478 h 0.4217189 a 0.07147778,0.07147778 0 0 1 0.071478,0.071478 v 0.418145 a 0.07147778,0.07147778 0 0 1 -0.071478,0.071478 h -0.42172 A 0.07147778,0.07147778 0 0 0 3.7007695,3.7703 v 0.4217189 a 0.07147778,0.07147778 0 0 1 -0.071478,0.071478 H 3.2111467 A 0.07147778,0.07147778 0 0 1 3.1396689,4.1920189 V 3.7703 A 0.07147778,0.07147778 0 0 0 3.0681911,3.6988223 H 2.6464722 a 0.07147778,0.07147778 0 0 1 -0.071478,-0.071478 z"
       stroke="#000000"
       stroke-width="0.35 px"
       style="fill:#6d0f5b;fill-opacity:1;fill-rule:evenodd;stroke-width:0.0250172;stroke-linecap:square;stroke-miterlimit:4;stroke-dasharray:none" />
    <path
       id="circle44"
       style="fill:#6d0f5b;stroke:#000000;stroke-width:0.0250172;stroke-linecap:square;stroke-miterlimit:4;stroke-dasharray:none"
       d="M 8.5630453,3.418272 A 0.36989753,0.36989753 0 0 0 8.1931483,3.0483745 0.36989753,0.36989753 0 0 0 7.8232505,3.418272 0.36989753,0.36989753 0 0 0 8.1931483,3.7881696 0.36989753,0.36989753 0 0 0 8.5630453,3.418272" />
    <path
       id="circle42"
       style="fill:#6d0f5b;stroke:#000000;stroke-width:0.0250172;stroke-linecap:square;stroke-miterlimit:4;stroke-dasharray:none"
       d="M 9.5869649,4.0912354 A 0.36989753,0.36989753 0 0 0 9.217067,3.7213378 0.36989753,0.36989753 0 0 0 8.8471696,4.0912354 0.36989753,0.36989753 0 0 0 9.217067,4.4611329 0.36989753,0.36989753 0 0 0 9.5869649,4.0912354" />
    <path
       id="circle48"
       style="fill:#6d0f5b;stroke:#000000;stroke-width:0.0250172;stroke-linecap:square;stroke-miterlimit:4;stroke-dasharray:none"
       d="M 9.5869649,2.7453087 A 0.36989753,0.36989753 0 0 0 9.217067,2.3754112 0.36989753,0.36989753 0 0 0 8.8471696,2.7453087 0.36989753,0.36989753 0 0 0 9.217067,3.1152062 0.36989753,0.36989753 0 0 0 9.5869649,2.7453087" />
    <path
       id="circle46"
       style="fill:#6d0f5b;stroke:#000000;stroke-width:0.0250172;stroke-linecap:square;stroke-miterlimit:4;stroke-dasharray:none"
       d="M 10.610884,3.418272 A 0.36989753,0.36989753 0 0 0 10.240986,3.0483745 0.36989753,0.36989753 0 0 0 9.8710888,3.418272 0.36989753,0.36989753 0 0 0 10.240986,3.7881696 0.36989753,0.36989753 0 0 0 10.610884,3.418272" />
  </g>
</svg>
