<?xml version="1.0" encoding="UTF-8" standalone="no"?>
<svg
   inkscape:version="1.3.2 (091e20e, 2023-11-25, custom)"
   sodipodi:docname="SNES Icon.svg"
   id="svg62"
   version="1.1"
   viewBox="0 0 24.929 12"
   height="12mm"
   width="24.929001mm"
   xmlns:inkscape="http://www.inkscape.org/namespaces/inkscape"
   xmlns:sodipodi="http://sodipodi.sourceforge.net/DTD/sodipodi-0.dtd"
   xmlns="http://www.w3.org/2000/svg"
   xmlns:svg="http://www.w3.org/2000/svg"
   xmlns:rdf="http://www.w3.org/1999/02/22-rdf-syntax-ns#"
   xmlns:cc="http://creativecommons.org/ns#"
   xmlns:dc="http://purl.org/dc/elements/1.1/">
  <metadata
     id="metadata68">
    <rdf:RDF>
      <cc:Work
         rdf:about="">
        <dc:format>image/svg+xml</dc:format>
        <dc:type
           rdf:resource="http://purl.org/dc/dcmitype/StillImage" />
        <dc:title />
      </cc:Work>
    </rdf:RDF>
  </metadata>
  <defs
     id="defs66" />
  <sodipodi:namedview
     inkscape:current-layer="layer1"
     inkscape:window-maximized="1"
     inkscape:window-y="-8"
     inkscape:window-x="-8"
     inkscape:cy="27.186075"
     inkscape:cx="34.48435"
     inkscape:zoom="8.2211206"
     showgrid="false"
     id="namedview64"
     inkscape:window-height="1017"
     inkscape:window-width="1920"
     inkscape:pageshadow="2"
     inkscape:pageopacity="0"
     guidetolerance="10"
     gridtolerance="10"
     objecttolerance="10"
     borderopacity="1"
     bordercolor="#666666"
     pagecolor="#ffffff"
     inkscape:showpageshadow="2"
     inkscape:pagecheckerboard="0"
     inkscape:deskcolor="#d1d1d1"
     inkscape:document-units="mm" />
  <g
     style="display:inline"
     inkscape:label="SNES Icon"
     id="layer1"
     inkscape:groupmode="layer">
    <path
       style="fill:#6d0f5b;fill-opacity:1;fill-rule:evenodd;stroke-width:0.056;stroke-linecap:square;stroke-miterlimit:4;stroke-dasharray:none;stroke:#000000;stroke-opacity:1"
       d="M 15.812568,9.4568654 H 9.1166816 A 4.6526702,4.6526702 0 1 1 6.0034679,1.3465602 H 18.925781 a 4.6526702,4.6526702 0 1 1 -3.113209,8.1103052 z"
       id="path1" />
    <path
       id="Body_f0033"
       d="M 4.1192958,6.4652941 V 5.5331667 a 0.15933802,0.15933802 0 0 1 0.159338,-0.1593381 h 0.9400943 a 0.15933802,0.15933802 0 0 0 0.159338,-0.159338 V 4.2743963 a 0.15933802,0.15933802 0 0 1 0.1593381,-0.159338 h 0.9321274 a 0.15933802,0.15933802 0 0 1 0.159338,0.159338 v 0.9400943 a 0.15933802,0.15933802 0 0 0 0.159338,0.159338 h 0.9400943 a 0.15933802,0.15933802 0 0 1 0.159338,0.1593381 v 0.9321274 a 0.15933802,0.15933802 0 0 1 -0.159338,0.159338 H 6.7882076 a 0.15933802,0.15933802 0 0 0 -0.159338,0.159338 v 0.9400943 a 0.15933802,0.15933802 0 0 1 -0.159338,0.159338 H 5.5374042 A 0.15933802,0.15933802 0 0 1 5.3780661,7.7240644 V 6.7839701 A 0.15933802,0.15933802 0 0 0 5.2187281,6.6246321 H 4.2786338 a 0.15933802,0.15933802 0 0 1 -0.159338,-0.159338 z"
       stroke="#000000"
       stroke-width="0.35 px"
       style="fill:#6d0f5b;fill-opacity:1;fill-rule:evenodd;stroke-width:0.0557683;stroke-linecap:square;stroke-miterlimit:4;stroke-dasharray:none" />
    <path
       id="circle44"
       style="fill:#6d0f5b;stroke:#000000;stroke-width:0.0557683;stroke-linecap:square;stroke-miterlimit:4;stroke-dasharray:none"
       d="M 17.467838,5.9992305 A 0.82457428,0.82457428 0 0 0 16.643265,5.1746563 0.82457428,0.82457428 0 0 0 15.81869,5.9992305 0.82457428,0.82457428 0 0 0 16.643265,6.8238048 0.82457428,0.82457428 0 0 0 17.467838,5.9992305" />
    <path
       id="circle42"
       style="fill:#6d0f5b;stroke:#000000;stroke-width:0.0557683;stroke-linecap:square;stroke-miterlimit:4;stroke-dasharray:none"
       d="M 19.750356,7.4993981 A 0.82457428,0.82457428 0 0 0 18.925781,6.6748237 0.82457428,0.82457428 0 0 0 18.101207,7.4993981 0.82457428,0.82457428 0 0 0 18.925781,8.3239724 0.82457428,0.82457428 0 0 0 19.750356,7.4993981" />
    <path
       id="circle48"
       style="fill:#6d0f5b;stroke:#000000;stroke-width:0.0557683;stroke-linecap:square;stroke-miterlimit:4;stroke-dasharray:none"
       d="M 19.750356,4.4990629 A 0.82457428,0.82457428 0 0 0 18.925781,3.6744887 0.82457428,0.82457428 0 0 0 18.101207,4.4990629 0.82457428,0.82457428 0 0 0 18.925781,5.3236372 0.82457428,0.82457428 0 0 0 19.750356,4.4990629" />
    <path
       id="circle46"
       style="fill:#6d0f5b;stroke:#000000;stroke-width:0.0557683;stroke-linecap:square;stroke-miterlimit:4;stroke-dasharray:none"
       d="M 22.032873,5.9992305 A 0.82457428,0.82457428 0 0 0 21.208298,5.1746563 0.82457428,0.82457428 0 0 0 20.383724,5.9992305 0.82457428,0.82457428 0 0 0 21.208298,6.8238048 0.82457428,0.82457428 0 0 0 22.032873,5.9992305" />
  </g>
</svg>
