<?xml version="1.0" encoding="UTF-8" standalone="no"?>
<svg
   xmlns:dc="http://purl.org/dc/elements/1.1/"
   xmlns:cc="http://creativecommons.org/ns#"
   xmlns:rdf="http://www.w3.org/1999/02/22-rdf-syntax-ns#"
   xmlns:svg="http://www.w3.org/2000/svg"
   xmlns="http://www.w3.org/2000/svg"
   xmlns:sodipodi="http://sodipodi.sourceforge.net/DTD/sodipodi-0.dtd"
   xmlns:inkscape="http://www.inkscape.org/namespaces/inkscape"
   width="12mm"
   height="6.6760001mm"
   viewBox="0 0 12 6.6760002"
   version="1.1"
   id="svg977"
   inkscape:version="1.0 (4035a4fb49, 2020-05-01)"
   sodipodi:docname="GBA Icon Middle.svg">
  <defs
     id="defs971" />
  <sodipodi:namedview
     id="base"
     pagecolor="#ffffff"
     bordercolor="#666666"
     borderopacity="1.0"
     inkscape:pageopacity="0.0"
     inkscape:pageshadow="2"
     inkscape:zoom="14.481547"
     inkscape:cx="17.850334"
     inkscape:cy="6.6387936"
     inkscape:document-units="mm"
     inkscape:current-layer="Pad003-7"
     inkscape:document-rotation="0"
     showgrid="false"
     inkscape:window-width="1920"
     inkscape:window-height="1017"
     inkscape:window-x="-8"
     inkscape:window-y="-8"
     inkscape:window-maximized="1" />
  <metadata
     id="metadata974">
    <rdf:RDF>
      <cc:Work
         rdf:about="">
        <dc:format>image/svg+xml</dc:format>
        <dc:type
           rdf:resource="http://purl.org/dc/dcmitype/StillImage" />
        <dc:title></dc:title>
      </cc:Work>
    </rdf:RDF>
  </metadata>
  <g
     inkscape:label="Layer 1"
     inkscape:groupmode="layer"
     id="layer1">
    <g
       transform="matrix(0.99999999,0,0,-0.99999999,110.36905,149.84416)"
       id="Pad003"
       style="fill:#846eb1;fill-opacity:1">
      <title
         id="title1564">b'Pad003'</title>
      <g
         transform="matrix(1,0,0,0.93775946,-21.198857,-0.4860137)"
         id="Pad003-7"
         style="fill:#846eb1;fill-opacity:1">
        <title
           id="title1625">b'Pad003'</title>
        <path
           sodipodi:nodetypes="cscccccccscccccccccccccccc"
           style="fill:#61589b;fill-opacity:1;fill-rule:evenodd;stroke-width:0.0300277;stroke-miterlimit:4;stroke-dasharray:none"
           stroke-width="0.35 px"
           stroke="#000000"
           d="m -86.4929,153.53018 c 2.196387,-0.4348 4.449021,-0.4348 6.645409,0 0.572934,0.1134 1.148441,0.2115 1.72598,0.29418 0.571696,0.0818 0.982163,0.6285 0.932183,1.24149 l -0.346666,4.2516 c -0.841615,-0.005 -1.662972,0.27527 -2.346461,0.79913 -0.02898,0.0222 -0.05768,0.0449 -0.0861,0.0678 -0.08672,0.0703 -0.192662,0.10836 -0.301595,0.10836 h -5.800099 c -0.108936,0 -0.214863,-0.038 -0.30159,-0.10836 -0.02842,-0.023 -0.05712,-0.0456 -0.08611,-0.0678 -0.683487,-0.52386 -1.504841,-0.80361 -2.346453,-0.79912 l -0.161826,-1.98468 -0.18484,-2.26693 c -0.04998,-0.61298 0.360487,-1.15966 0.932184,-1.24149 0.577538,-0.0827 1.153044,-0.18078 1.725979,-0.29418 z m 0.421603,0.71928 c -0.242218,0.0569 -0.408394,0.29504 -0.389903,0.55885 l 0.287471,4.10139 c 0.0079,0.1128 0.08195,0.20801 0.184486,0.2371 1.847289,0.52381 3.790808,0.52381 5.638096,0 0.10254,-0.0292 0.176578,-0.12424 0.184486,-0.23711 l 0.287468,-4.10138 c 0.01849,-0.26381 -0.147683,-0.502 -0.389899,-0.55885 -1.911203,-0.44866 -3.891004,-0.44866 -5.802207,0 z"
           id="Pad003_f0023" />
      </g>
    </g>
  </g>
</svg>
