<?xml version="1.0" encoding="UTF-8" standalone="no"?>
<svg
   xmlns:dc="http://purl.org/dc/elements/1.1/"
   xmlns:cc="http://creativecommons.org/ns#"
   xmlns:rdf="http://www.w3.org/1999/02/22-rdf-syntax-ns#"
   xmlns:svg="http://www.w3.org/2000/svg"
   xmlns="http://www.w3.org/2000/svg"
   xmlns:sodipodi="http://sodipodi.sourceforge.net/DTD/sodipodi-0.dtd"
   xmlns:inkscape="http://www.inkscape.org/namespaces/inkscape"
   width="12mm"
   height="6.6760001mm"
   viewBox="0 0 12 6.6760001"
   version="1.1"
   id="svg869"
   inkscape:version="1.0 (4035a4fb49, 2020-05-01)"
   sodipodi:docname="GBA Icon Outline.svg">
  <defs
     id="defs863" />
  <sodipodi:namedview
     id="base"
     pagecolor="#ffffff"
     bordercolor="#666666"
     borderopacity="1.0"
     inkscape:pageopacity="0.0"
     inkscape:pageshadow="2"
     inkscape:zoom="7.9195959"
     inkscape:cx="30.175164"
     inkscape:cy="4.0373762"
     inkscape:document-units="mm"
     inkscape:current-layer="layer1"
     inkscape:document-rotation="0"
     showgrid="false"
     inkscape:window-width="1920"
     inkscape:window-height="1017"
     inkscape:window-x="-8"
     inkscape:window-y="-8"
     inkscape:window-maximized="1" />
  <metadata
     id="metadata866">
    <rdf:RDF>
      <cc:Work
         rdf:about="">
        <dc:format>image/svg+xml</dc:format>
        <dc:type
           rdf:resource="http://purl.org/dc/dcmitype/StillImage" />
        <dc:title></dc:title>
      </cc:Work>
    </rdf:RDF>
  </metadata>
  <g
     inkscape:label="Layer 1"
     inkscape:groupmode="layer"
     id="layer1">
    <path
       style="fill:#ff45ff;fill-opacity:1;fill-rule:evenodd;stroke-width:0.0290802;stroke-miterlimit:4;stroke-dasharray:none"
       stroke-width="0.35 px"
       stroke="#000000"
       d="M 3.1001721,0.0145401 A 0.49851882,0.49851882 0 0 0 2.7985151,0.11616482 3.9881508,3.9881508 0 0 1 2.7123867,0.17981736 7.0305698,7.0305698 0 0 0 0.7808331,0.43059645 0.56802731,0.56802731 0 0 0 0.36540155,0.92911535 L 0.01865675,4.9157342 a 1.0801241,1.0801241 0 0 0 0.93239726,1.1641187 34.91493,34.91493 0 0 1 1.72636999,0.2758486 18.215131,18.215131 0 0 0 6.6469185,0 34.91493,34.91493 0 0 1 1.7263715,-0.2758486 1.0801241,1.0801241 0 0 0 0.932394,-1.1641146 L 11.636364,0.92911782 A 0.56802731,0.56802731 0 0 0 11.220932,0.43059645 7.0305698,7.0305698 0 0 0 9.2893716,0.17981736 3.9881508,3.9881508 0 0 1 9.2032519,0.11616482 0.49851882,0.49851882 0 0 0 8.9015909,0.0145401 Z"
       id="Body001_f0017" />
  </g>
</svg>
