<?xml version="1.0" encoding="UTF-8" standalone="no"?>
<svg
   width="9.6330004mm"
   height="10mm"
   viewBox="0 0 9.6330007 10"
   version="1.1"
   id="svg36"
   sodipodi:docname="3DSIcon.svg"
   inkscape:version="1.2.2 (732a01da63, 2022-12-09)"
   xmlns:inkscape="http://www.inkscape.org/namespaces/inkscape"
   xmlns:sodipodi="http://sodipodi.sourceforge.net/DTD/sodipodi-0.dtd"
   xmlns="http://www.w3.org/2000/svg"
   xmlns:svg="http://www.w3.org/2000/svg">
  <defs
     id="defs40" />
  <sodipodi:namedview
     id="namedview38"
     pagecolor="#ffffff"
     bordercolor="#666666"
     borderopacity="1.0"
     inkscape:showpageshadow="2"
     inkscape:pageopacity="0.0"
     inkscape:pagecheckerboard="0"
     inkscape:deskcolor="#d1d1d1"
     inkscape:document-units="mm"
     showgrid="false"
     inkscape:zoom="5.3647349"
     inkscape:cx="-0.372805"
     inkscape:cy="53.68392"
     inkscape:window-width="1920"
     inkscape:window-height="1017"
     inkscape:window-x="-8"
     inkscape:window-y="-8"
     inkscape:window-maximized="1"
     inkscape:current-layer="svg36" />
  <g
     id="Pocket010"
     transform="matrix(0.24479804,0,0,-0.24479804,0.04283966,9.9571603)">
    <path
       id="Pocket010_f0001"
       d="M 0,20.9 A 1.9,1.9 0 0 1 0.0972244,20.3 1.9,1.9 0 0 1 0,19.7 V 1.9 A 1.9,1.9 0 0 1 1.9,0 H 37.1 A 1.9,1.9 0 0 1 39,1.9 V 19.7 A 1.9,1.9 0 0 1 38.9028,20.3 1.9,1.9 0 0 1 39,20.9 v 17.7 a 1.9,1.9 0 0 1 -1.9,1.9 H 1.9 A 1.9,1.9 0 0 1 0,38.6 Z"
       stroke="#000000"
       stroke-width="0.35 px"
       style="fill:#a6b59e;fill-opacity:1;fill-rule:evenodd;stroke-width:0.35;stroke-linecap:square;stroke-miterlimit:4;stroke-dasharray:none" />
    <path
       id="Pocket010_f0020"
       d="M 30.85,22.9 V 36.6 H 8.15 V 22.9 Z"
       stroke="#000000"
       stroke-width="0.35 px"
       style="fill:#a6b59e;fill-opacity:1;fill-rule:evenodd;stroke-width:0.35;stroke-linecap:square;stroke-miterlimit:4;stroke-dasharray:none" />
    <path
       id="Pocket010_f0025"
       d="M 28.65,16.9 V 3.2 h -18.3 v 13.7 z"
       stroke="#000000"
       stroke-width="0.35 px"
       style="fill:#a6b59e;fill-opacity:1;fill-rule:evenodd;stroke-width:0.35;stroke-linecap:square;stroke-miterlimit:4;stroke-dasharray:none" />
    <circle
       cx="5.0625"
       cy="13.0625"
       r="3.0625"
       stroke="#000000"
       stroke-width="0.35 px"
       style="fill:#a6b59e;stroke-width:0.35;stroke-linecap:square;stroke-miterlimit:4;stroke-dasharray:none"
       id="circle31" />
    <title
       id="title33">b'Pocket010'</title>
  </g>
</svg>
